<?xml version="1.0" standalone="no"?>
<!DOCTYPE svg PUBLIC "-//W3C//DTD SVG 1.1//EN" "http://www.w3.org/Graphics/SVG/1.1/DTD/svg11.dtd" >
<svg xmlns="http://www.w3.org/2000/svg" xmlns:xlink="http://www.w3.org/1999/xlink" version="1.1">
<metadata>
Created by FontForge 20201107 at Wed Mar 12 00:32:11 2025
 By 
Copyright (c) 1997-2022 Typodermic Fonts Inc. All rights reserved.
</metadata>
<defs>
<font id="HeavyHeapRg-Regular" horiz-adv-x="1191" >
  <font-face 
    font-family="Heavy Heap Rg"
    font-weight="400"
    font-stretch="normal"
    units-per-em="2048"
    panose-1="4 3 8 3 8 11 2 2 10 4"
    ascent="1526"
    descent="-522"
    x-height="1100"
    cap-height="1446"
    bbox="-344 -522 1806 1935"
    underline-thickness="40"
    underline-position="-292"
    unicode-range="U+0017-25CA"
  />
<missing-glyph horiz-adv-x="1323" 
d="M92 -293v1968h1139v-1968h-1139zM383 281q-63 0 -108.5 -45.5t-45.5 -108.5t43 -109.5t109 -46.5q62 0 109 44t47 110q0 63 -44.5 109.5t-109.5 46.5zM670 451q-21 -7 -37 -7q-66 0 -66 54q0 23 14 45t32.5 38.5t55.5 37.5t64 34t76 35q34 15 60.5 29t63.5 37.5t64 52
t52.5 64.5t39 83t13.5 101q0 80 -31.5 146.5t-81 108.5t-112 71.5t-122 42t-114.5 12.5q-83 0 -156.5 -32t-122 -81.5t-76.5 -108.5t-28 -114q0 -76 49 -134.5t139 -58.5q-10 30 -10 54q0 61 49.5 102t118.5 41q50 0 88.5 -23t38.5 -71q0 -41 -34.5 -70.5t-147.5 -95.5
q-236 -134 -236 -301q0 -88 64 -144.5t145 -56.5q50 0 90 27.5t58 81.5z" />
    <glyph glyph-name=".notdef" horiz-adv-x="1323" 
d="M92 -293v1968h1139v-1968h-1139zM383 281q-63 0 -108.5 -45.5t-45.5 -108.5t43 -109.5t109 -46.5q62 0 109 44t47 110q0 63 -44.5 109.5t-109.5 46.5zM670 451q-21 -7 -37 -7q-66 0 -66 54q0 23 14 45t32.5 38.5t55.5 37.5t64 34t76 35q34 15 60.5 29t63.5 37.5t64 52
t52.5 64.5t39 83t13.5 101q0 80 -31.5 146.5t-81 108.5t-112 71.5t-122 42t-114.5 12.5q-83 0 -156.5 -32t-122 -81.5t-76.5 -108.5t-28 -114q0 -76 49 -134.5t139 -58.5q-10 30 -10 54q0 61 49.5 102t118.5 41q50 0 88.5 -23t38.5 -71q0 -41 -34.5 -70.5t-147.5 -95.5
q-236 -134 -236 -301q0 -88 64 -144.5t145 -56.5q50 0 90 27.5t58 81.5z" />
    <glyph glyph-name=".null" horiz-adv-x="0" 
 />
    <glyph glyph-name="nonmarkingreturn" horiz-adv-x="682" 
 />
    <glyph glyph-name="uni0017" horiz-adv-x="522" 
 />
    <glyph glyph-name="space" unicode=" " horiz-adv-x="522" 
 />
    <glyph glyph-name="exclam" unicode="!" horiz-adv-x="532" 
d="M377 1620q123 -94 123 -252q0 -79 -30 -187t-66.5 -200.5t-66.5 -212t-30 -217.5q0 -79 21 -141q-141 77 -211 228.5t-70 328.5q0 119 33 198.5t102 153.5q99 103 135 157.5t60 143.5zM125 137q0 65 44 109.5t110 44.5q63 0 108 -45t45 -109q0 -65 -44.5 -109t-108.5 -44
q-66 0 -110 43.5t-44 109.5z" />
    <glyph glyph-name="quotedbl" unicode="&#x22;" horiz-adv-x="753" 
d="M281 1569q94 -60 94 -160q0 -50 -23 -119.5t-50 -128.5t-50 -135.5t-23 -138.5q0 -51 15 -90q-107 49 -159 145.5t-52 208.5q0 79 24 128.5t78 96.5q74 68 101 102t45 91zM637 1569q94 -60 94 -160q0 -50 -22.5 -119.5t-50 -128.5t-50 -135.5t-22.5 -138.5q0 -54 14 -90
q-107 49 -159 145.5t-52 208.5q0 79 24.5 128.5t78.5 96.5q74 67 100.5 101.5t44.5 91.5z" />
    <glyph glyph-name="numbersign" unicode="#" horiz-adv-x="1083" 
d="M889 389h-111q-3 -28 -7.5 -109t-10 -146.5t-12.5 -90.5q-15 -63 -78 -63q-47 0 -86 24.5t-39 56.5q0 48 4 103t10.5 122t9.5 103h-145q-5 -40 -15.5 -177.5t-17.5 -168.5q-14 -61 -82 -61q-45 0 -83 23.5t-38 55.5q5 93 31 328q-10 0 -42 -3t-50 -3q-55 0 -72.5 17
t-17.5 49q0 18 3 39.5t11 47t24.5 42t39.5 16.5h127l37 307h-105q-33 0 -49 21t-16 53q0 46 26.5 89.5t57.5 43.5h110q25 226 43 303q14 62 82 62q46 0 83.5 -25.5t37.5 -56.5q-4 -42 -11.5 -89.5t-17 -105.5t-14.5 -88h147q40 269 52 303q15 39 28.5 50.5t42.5 11.5
q60 0 94.5 -26.5t34.5 -55.5q-6 -53 -21 -150.5t-20 -132.5q9 0 40 2t48 2q54 0 73 -16t19 -49q0 -25 -4.5 -54.5t-23.5 -60.5t-49 -31h-131q-3 -24 -17 -135.5t-20 -171.5h108q32 0 49 -21t17 -51q0 -47 -26 -90t-58 -43zM625 901h-146q-17 -125 -35 -307h144
q13 131 37 307z" />
    <glyph glyph-name="dollar" unicode="$" horiz-adv-x="690" 
d="M571 907q-7 28 -17.5 54t-35.5 53.5t-55 27.5q-22 0 -36.5 -13.5t-14.5 -39.5q0 -36 28.5 -78t75 -100.5t72.5 -108.5q61 -115 61 -233q0 -121 -56 -197t-147 -106v-223q-3 -39 -13 -49.5t-40 -10.5q-61 0 -106 20t-45 58v199q-95 23 -148 94.5t-53 175.5q0 118 78 170
q14 -80 45 -118t69 -38q31 0 52.5 22t21.5 54q0 35 -28.5 79t-75.5 101.5t-68 92.5q-63 100 -63 219q0 92 47 156.5t123 95.5v161q3 39 13 49.5t40 10.5q61 0 106 -20t45 -58v-131q83 -23 137 -79t54 -130q0 -83 -66 -160z" />
    <glyph glyph-name="percent" unicode="%" horiz-adv-x="1296" 
d="M322 631q-59 0 -104 36.5t-70 97t-37.5 130t-12.5 143.5q0 54 6 108t22.5 112.5t41 102.5t65.5 72.5t93 28.5q55 0 98 -32.5t67 -79.5t40 -108t21 -111t5 -95q0 -67 -13 -134t-39.5 -130t-74 -102t-108.5 -39zM385 1047q0 204 -59 204q-60 0 -60 -217q0 -205 56 -205
q29 0 46 56t17 162zM1120 1530q31 -60 31 -133q0 -145 -110.5 -332t-288.5 -373q-74 -77 -202 -195.5t-212.5 -197.5t-166 -185.5t-112.5 -201.5q-4 16 -4 49q0 73 37.5 163t91 171.5t137 181.5t151 171t157.5 161q86 87 131 134t115 129t109.5 144.5t78 146t57.5 167.5z
M1008 -14q-59 0 -104 36.5t-70 97t-37.5 130t-12.5 143.5q0 54 6 108t22.5 112.5t41 102.5t65.5 72.5t93 28.5q55 0 98 -32.5t67 -79.5t40 -108t21 -111t5 -95q0 -67 -13 -134t-39.5 -130t-74 -102t-108.5 -39zM1071 401q0 205 -59 205q-60 0 -60 -217q0 -205 56 -205
q29 0 46 55.5t17 161.5z" />
    <glyph glyph-name="ampersand" unicode="&#x26;" horiz-adv-x="1290" 
d="M625 813q9 -44 57 -129q39 52 67.5 84.5t67.5 65.5t82.5 49t93.5 16q100 0 186.5 -58.5t110.5 -160.5q-58 10 -98 10q-41 0 -74.5 -12.5t-55.5 -29t-45.5 -51t-36.5 -60t-37.5 -76.5t-39.5 -80q84 -88 137 -88q60 0 99 96q24 -57 24 -110q0 -70 -28.5 -137t-84.5 -112.5
t-124 -45.5q-113 0 -232 122q-133 -133 -291 -133t-274.5 125t-116.5 299q0 125 70.5 250t218.5 230q-49 131 -49 249q0 156 84 252.5t201 96.5q105 0 182.5 -74.5t77.5 -200.5q0 -96 -48.5 -197.5t-123.5 -189.5zM492 1151q0 -52 14 -107q29 26 49 77.5t20 90.5
q0 48 -24 48q-31 0 -45 -36.5t-14 -72.5zM492 412q-75 127 -99 204q-38 -32 -58 -72t-20 -75q0 -42 23.5 -73t62.5 -31q44 0 91 47z" />
    <glyph glyph-name="quotesingle" unicode="'" horiz-adv-x="397" 
d="M281 1569q94 -60 94 -160q0 -50 -23 -119.5t-50 -128.5t-50 -135.5t-23 -138.5q0 -51 15 -90q-107 49 -159 145.5t-52 208.5q0 79 24 128.5t78 96.5q74 68 101 102t45 91z" />
    <glyph glyph-name="parenleft" unicode="(" horiz-adv-x="647" 
d="M633 -352q-506 25 -506 958q0 212 26 375t83.5 291.5t157.5 200.5t239 81q-129 -173 -179.5 -382t-50.5 -566q0 -358 51 -574.5t179 -383.5z" />
    <glyph glyph-name="parenright" unicode=")" horiz-adv-x="647" 
d="M14 -352q128 167 179 383.5t51 574.5q0 357 -50.5 566t-179.5 382q112 -7 199 -56.5t145 -131t95 -200t53 -255.5t16 -305q0 -933 -508 -958z" />
    <glyph glyph-name="asterisk" unicode="*" horiz-adv-x="1069" 
d="M754 1315q-57 -100 -133 -250q17 -24 28 -43q102 12 168 27q114 30 156 30q36 0 47.5 -26.5t11.5 -98.5q0 -70 -11.5 -96.5t-47.5 -26.5q-39 0 -156 31q-66 15 -168 27q-17 -30 -28 -43q76 -150 133 -250q26 -46 26 -61q0 -37 -82 -66q-69 -27 -123 -27q-26 0 -34 15.5
t-13 66.5q-11 140 -36 281q-30 4 -48 16q-92 -87 -194 -205q-42 -47 -72 -47q-16 0 -29.5 13.5t-54.5 68.5q-19 24 -35 53.5t-16 43.5q0 30 66 59q16 8 60 27.5t93 43t103 50.5q-3 12 -3 26q0 17 3 29q-103 52 -256 119q-66 31 -66 61q0 14 16 43.5t35 53.5q40 54 54 67.5
t30 13.5q30 0 72 -47q97 -112 194 -204q15 10 48 14q25 145 36 282q5 51 13 66.5t34 15.5q56 0 123 -26q41 -14 61.5 -32t20.5 -34q0 -18 -26 -61z" />
    <glyph glyph-name="plus" unicode="+" 
d="M494 287v358h-379q-39 3 -49.5 13t-10.5 40q0 61 20.5 106.5t59.5 45.5h359v379q3 39 13 49t40 10q62 0 106.5 -20t44.5 -58v-360h379q39 -3 49.5 -13t10.5 -40q0 -61 -20 -106.5t-58 -45.5h-361v-379q-3 -39 -13 -49t-40 -10q-60 0 -105.5 21t-45.5 59z" />
    <glyph glyph-name="comma" unicode="," horiz-adv-x="395" 
d="M201 -287q-146 32 -146 172q0 50 23.5 147.5t23.5 141.5q0 75 -47 119q49 12 86 12q86 0 142.5 -54t56.5 -142q0 -48 -18 -85.5t-58 -89.5q-25 -34 -36.5 -52t-23 -50t-11.5 -65q0 -27 8 -54z" />
    <glyph glyph-name="hyphen" unicode="-" horiz-adv-x="753" 
d="M131 821l547 -4q33 0 46 -8.5t13 -32.5q0 -69 -26 -102t-99 -37l-528 -21q-34 -3 -52 13t-18 57q0 40 23 92q13 26 29.5 34.5t64.5 8.5z" />
    <glyph glyph-name="period" unicode="." horiz-adv-x="419" 
d="M55 137q0 65 44 109.5t110 44.5q64 0 108.5 -44.5t44.5 -109.5q0 -66 -44 -109.5t-109 -43.5q-66 0 -110 43.5t-44 109.5z" />
    <glyph glyph-name="slash" unicode="/" horiz-adv-x="768" 
d="M707 1522q61 -128 61 -260q0 -84 -20.5 -166.5t-60.5 -160.5t-80 -140.5t-97 -137.5q-70 -93 -162 -201.5t-143.5 -170t-106 -152t-88.5 -192.5q-10 68 -10 125q0 104 26 205t79 201t103.5 176.5t127.5 180.5q90 119 137 186t97.5 153.5t81.5 168.5t55 185z" />
    <glyph glyph-name="zero" unicode="0" horiz-adv-x="940" 
d="M459 -29q-86 0 -156 45t-115 118t-76 171.5t-44 200.5t-13 209q0 99 11 197.5t40.5 204t74 185t118 130.5t166.5 51q72 0 133 -30.5t103.5 -80.5t75.5 -118.5t53 -139t33 -147.5t17.5 -139t4.5 -119q0 -95 -14 -192.5t-46.5 -197t-80 -176t-121.5 -124.5t-164 -48z
M578 731q0 171 -28 271t-81 100q-55 0 -84 -101.5t-29 -293.5q0 -185 27.5 -279t75.5 -94q53 0 86 102t33 295z" />
    <glyph glyph-name="one" unicode="1" horiz-adv-x="630" 
d="M524 1491q-59 -281 -59 -596q0 -241 32 -481t95 -432q-108 12 -219 12q-95 0 -291 -12q86 256 104 411q31 306 31 406q0 71 -6 125t-20.5 99t-41.5 69t-65 24q-32 0 -84 -18q50 132 211.5 247t312.5 146z" />
    <glyph glyph-name="two" unicode="2" horiz-adv-x="905" 
d="M750 551q66 -19 99.5 -91t33.5 -169q0 -65 -15 -119.5t-46.5 -100.5t-88 -72t-133.5 -26q-57 0 -190 25t-205 25q-87 0 -152 -23q0 145 56.5 297t152.5 324q112 194 154.5 285t42.5 159q0 51 -24.5 76.5t-63.5 25.5q-49 0 -74 -33.5t-25 -91.5q0 -59 23 -118
q-109 0 -169 63.5t-60 155.5q0 60 26 118.5t73 107t122.5 78.5t165.5 30q107 0 194 -39.5t142 -123.5t55 -200q0 -148 -105 -315q-10 -15 -59.5 -87.5t-69 -104.5t-41.5 -86.5t-22 -96.5q0 -90 80 -90q123 0 123 217z" />
    <glyph glyph-name="three" unicode="3" horiz-adv-x="897" 
d="M102 1481q225 -45 441 -45q151 0 291 20q-35 -394 -195 -569q105 -30 167 -140t62 -247q0 -76 -20 -150t-60.5 -141t-97 -118t-135.5 -81t-170 -30t-162 29.5t-112 77.5t-61.5 103t-20.5 113q0 88 47 163.5t137 106.5q2 -100 38 -166.5t114 -66.5q76 0 136 65t60 170
q0 56 -20.5 88t-53 41.5t-71.5 10.5t-78 2.5t-71.5 11.5t-53 42.5t-20.5 90.5q0 11 1 19.5t1 13.5q11 0 39 -2t40 -2q78 0 139.5 64.5t61.5 142.5q0 49 -25 75.5t-65 26.5q-64 0 -131 -68t-109 -208q-82 108 -82 276q0 86 39 281z" />
    <glyph glyph-name="four" unicode="4" horiz-adv-x="942" 
d="M463 1446q-32 -70 -67.5 -230.5t-35.5 -279.5q0 -154 68 -154q100 0 100 377q0 196 -14 289q140 -16 209 -16q96 0 180 20q-52 -133 -86.5 -396t-34.5 -532q0 -325 52 -534q-296 16 -365 16q-87 0 -170 -6q174 240 174 510q-79 25 -166 25q-121 0 -258 -43q37 199 37 423
q0 248 -51 523q43 -4 123 -4q45 0 95.5 2t111.5 5.5t98 4.5z" />
    <glyph glyph-name="five" unicode="5" horiz-adv-x="886" 
d="M559 1552q26 13 59 13q88 0 145.5 -66.5t57.5 -169.5q0 -63 -22.5 -116.5t-74.5 -90.5t-124 -37q-80 0 -225 56q-15 -43 -15 -113q0 -19 5 -59q65 18 120 18q107 0 191 -69.5t127 -178.5t43 -235q0 -114 -38.5 -220.5t-113.5 -183.5q-121 -127 -282 -127q-101 0 -192 54
t-146.5 147.5t-55.5 200.5q0 131 91 252q28 -112 89.5 -194.5t141.5 -82.5q65 0 103 51.5t38 124.5q0 92 -64.5 160t-189.5 68q-55 0 -123 -15q21 219 21 375q0 126 -19 348q196 -69 320 -69q48 0 87.5 8t68 30t28.5 56q0 43 -51 65z" />
    <glyph glyph-name="six" unicode="6" horiz-adv-x="964" 
d="M621 950q26 56 26 105q0 52 -24 80t-64 28q-74 0 -133 -90.5t-59 -243.5q0 -17 2 -29t2 -18q44 69 109.5 102.5t140.5 33.5q99 0 168 -55.5t99 -142.5t30 -198q0 -106 -28.5 -204.5t-81 -176.5t-134 -125t-180.5 -47q-91 0 -166 42t-125 111.5t-84 163t-49 194.5t-15 208
q0 68 6 137t21.5 149t39.5 151t63.5 138t89.5 115.5t121.5 77.5t156.5 29q77 0 135 -23t91 -62t49 -85t16 -98q0 -104 -59 -181t-164 -86zM391 489q0 -79 30 -134.5t85 -55.5q49 0 74.5 47t25.5 127q0 82 -26.5 140.5t-81.5 58.5q-30 0 -52 -17t-33.5 -45t-16.5 -58t-5 -63z
" />
    <glyph glyph-name="seven" unicode="7" horiz-adv-x="970" 
d="M195 1513q-19 -36 -19 -57q0 -78 184 -78q133 0 321 36t271 63q-28 -71 -94.5 -230.5t-103 -257t-82 -237.5t-67 -269.5t-21.5 -255.5q0 -116 20 -227q-164 8 -287 8t-202 -8q27 273 152.5 561t303.5 555q-156 -80 -305 -80q-107 0 -173 54.5t-66 175.5q0 61 16.5 112
t55.5 89t96 46z" />
    <glyph glyph-name="eight" unicode="8" horiz-adv-x="952" 
d="M733 813q172 -148 172 -381q0 -92 -26.5 -175.5t-77.5 -149.5t-132.5 -105t-183.5 -39q-103 0 -187.5 39t-138.5 104t-83 147t-29 171q0 109 46 210t136 169q-129 129 -129 295q0 160 105.5 269.5t275.5 109.5q90 0 162.5 -34t117.5 -91t69 -127.5t24 -147.5
q0 -176 -121 -264zM420 1075q0 -87 20 -135.5t52 -48.5q29 0 44 44.5t15 111.5q0 76 -19 121.5t-53 45.5q-59 0 -59 -139zM401 479q0 -93 24 -150t67 -57q79 0 79 199q0 205 -82 205q-42 0 -65 -53.5t-23 -143.5z" />
    <glyph glyph-name="nine" unicode="9" horiz-adv-x="964" 
d="M344 500q-29 -63 -29 -105q0 -51 24 -78.5t64 -27.5q75 0 134 90t59 244q0 16 -1 27.5t-1 19.5q-86 -135 -250 -135q-75 0 -133 31.5t-93.5 86.5t-53 125t-17.5 152q0 106 28.5 204t81 176t134 124.5t180.5 46.5q113 0 200 -62.5t137 -167.5t74.5 -228t24.5 -259
q0 -68 -5.5 -137t-21 -149.5t-39 -151.5t-63 -138.5t-89.5 -116t-122 -77.5t-157 -29q-76 0 -134 23.5t-91 62.5t-49.5 86t-16.5 99q0 103 60 180t165 84zM573 963q0 80 -29.5 134t-86.5 54q-48 0 -74.5 -47t-26.5 -125q0 -81 27.5 -140t81.5 -59q30 0 52 17t33.5 45t17 58
t5.5 63z" />
    <glyph glyph-name="colon" unicode=":" horiz-adv-x="419" 
d="M55 244q0 65 44 109t110 44q65 0 109 -44.5t44 -108.5q0 -66 -44 -110t-109 -44q-66 0 -110 44t-44 110zM55 885q0 65 44 109t110 44q65 0 109 -44t44 -109q0 -66 -44 -110t-109 -44q-66 0 -110 44t-44 110z" />
    <glyph glyph-name="semicolon" unicode=";" horiz-adv-x="419" 
d="M362 885q0 -66 -43.5 -110t-109.5 -44q-64 0 -109 44.5t-45 109.5q0 64 45.5 108.5t108.5 44.5q66 0 109.5 -44t43.5 -109zM225 -201q-145 27 -145 170q0 50 23.5 147.5t23.5 141.5q0 74 -47 121q46 12 84 12q87 0 142.5 -54.5t55.5 -141.5q0 -49 -17.5 -87t-55.5 -90
q-25 -33 -37.5 -51.5t-24.5 -50t-12 -63.5q0 -31 10 -54z" />
    <glyph glyph-name="less" unicode="&#x3c;" 
d="M1102 1153q35 0 35 -61q0 -54 -20.5 -100t-57.5 -56l-699 -186l717 -191q38 -10 49 -21.5t11 -39.5q0 -27 -4 -53t-13 -51.5t-27.5 -38t-43.5 -5.5l-934 295q-39 12 -49.5 23t-10.5 37q0 52 21 92.5t59 52.5l942 299q16 4 25 4z" />
    <glyph glyph-name="equal" unicode="=" 
d="M1059 858h-944q-39 4 -49.5 14.5t-10.5 40.5q0 60 21 106t59 46h942q38 -3 49 -13.5t11 -39.5q0 -62 -20 -108t-58 -46zM1059 432h-944q-39 3 -49.5 13t-10.5 40q0 60 21 106t59 46h942q39 -3 49.5 -13t10.5 -40q0 -62 -20 -107t-58 -45z" />
    <glyph glyph-name="greater" unicode="&#x3e;" 
d="M90 346q-35 0 -35 62q0 55 21 100t59 55l696 187l-716 190q-37 10 -48.5 22t-11.5 39q0 28 4 54.5t13 52.5t27.5 37.5t43.5 3.5l934 -295q39 -12 49.5 -22t10.5 -37q0 -51 -20 -92t-58 -54l-944 -299q-16 -4 -25 -4z" />
    <glyph glyph-name="question" unicode="?" horiz-adv-x="874" 
d="M262 137q0 65 45 109.5t109 44.5q65 0 110 -45t45 -109q0 -65 -45 -109t-110 -44t-109.5 43.5t-44.5 109.5zM602 528q-1 -73 -50 -112t-118 -39q-82 0 -143.5 53.5t-61.5 151.5q0 139 150 292q78 80 103.5 115.5t25.5 73.5q0 82 -98 82q-72 0 -124.5 -46.5t-52.5 -109.5
q0 -45 29 -84q-21 -6 -51 -6q-92 0 -142.5 59.5t-50.5 149.5q0 52 16.5 104t52.5 102t85.5 88t122 61.5t156.5 23.5q58 0 113.5 -10.5t110.5 -36.5t95.5 -64.5t66 -99.5t25.5 -137q0 -51 -13 -98t-29 -78.5t-46.5 -67.5t-49 -53t-52.5 -47q-97 -80 -140 -130.5t-43 -103.5
t52 -53q39 0 61 20z" />
    <glyph glyph-name="at" unicode="@" horiz-adv-x="1345" 
d="M858 475q-69 -94 -166 -94q-39 0 -75 13.5t-68 42.5t-51 81t-19 121q0 82 27.5 153.5t71.5 118.5t98 74t108 27t87 -28t44 -70t18 -90.5t10.5 -90.5t19.5 -70t47 -28q69 0 69 174q0 95 -18 171t-47.5 123.5t-70 79t-82 44t-87.5 12.5q-84 0 -164 -37t-144.5 -103.5
t-104 -170t-39.5 -226.5q0 -216 116.5 -352.5t278.5 -136.5q68 0 195 46t212 46q100 0 161 -45.5t61 -146.5q0 -11 -1.5 -23t-1.5 -18q-58 55 -118 55q-39 0 -88 -27.5t-102.5 -66.5t-114.5 -78t-146 -66.5t-176 -27.5q-115 0 -211.5 44t-171.5 131.5t-117.5 230.5
t-42.5 329q0 180 40.5 329t108 249.5t159 169.5t190 100t203.5 31q239 0 381.5 -160.5t142.5 -435.5q0 -174 -60 -297t-182 -160q-16 -8 -41 -8q-67 0 -139 61zM758 840q-52 -26 -81.5 -72t-29.5 -98q0 -41 16 -59.5t35 -18.5q35 0 54.5 51.5t19.5 106.5q0 47 -14 90z" />
    <glyph glyph-name="A" unicode="A" horiz-adv-x="1013" 
d="M1004 315q2 -14 2 -43q0 -118 -67.5 -201t-156.5 -83q-97 0 -170 96q-121 -107 -252 -107q-136 0 -226.5 108.5t-90.5 262.5q0 239 238 420q36 28 83.5 58.5t76 48.5t56.5 42.5t41 54.5t13 70q0 97 -88 97q-38 0 -71.5 -19.5t-56 -47t-43.5 -72t-33.5 -80.5t-27.5 -86
q-58 18 -90 79.5t-32 145.5q0 71 25.5 140.5t75 131t134.5 99.5t193 38q96 0 166 -30t108.5 -83.5t56 -116.5t17.5 -138q0 -77 -28 -296.5t-28 -307.5q0 -99 25 -155t74 -56q36 0 76 30zM541 639q-168 -141 -168 -256q0 -38 15.5 -58t41.5 -20q30 0 53 28t35.5 71.5
t18.5 87.5t6 83q0 15 -1 37t-1 27z" />
    <glyph glyph-name="B" unicode="B" horiz-adv-x="901" 
d="M68 1456q78 -8 114 -8q50 0 158 7t139 7q66 0 126.5 -17t112 -52t82.5 -96.5t31 -143.5q0 -105 -50.5 -198.5t-133.5 -137.5q121 -61 183.5 -162.5t62.5 -232.5q0 -101 -26.5 -175.5t-76.5 -123.5t-131 -78.5t-180.5 -42t-234.5 -12.5q-95 0 -203 6q42 144 67 369.5
t25 465.5q0 388 -65 625zM428 883q50 46 83.5 112t33.5 140q0 92 -53 92q-29 0 -47 -33t-24.5 -75t-6.5 -93q0 -61 14 -143zM584 422q0 106 -45.5 185.5t-100.5 88.5q-12 -34 -12 -129q0 -70 8.5 -128t31.5 -101t58 -43q60 0 60 127z" />
    <glyph glyph-name="C" unicode="C" horiz-adv-x="886" 
d="M600 842q43 71 43 153q0 63 -24 95t-60 32q-50 0 -91.5 -62t-64 -157t-22.5 -196q0 -150 47 -239t123 -89q63 0 105 49.5t49 146.5q66 -15 114.5 -76t48.5 -157q0 -66 -25 -130t-69.5 -116t-112.5 -84t-147 -32q-137 0 -242.5 98.5t-161 262.5t-55.5 364q0 119 20.5 231
t64 211t104.5 172.5t148 116.5t190 43q77 0 135.5 -24t92.5 -65.5t50.5 -92.5t16.5 -111q0 -137 -79 -228t-198 -116z" />
    <glyph glyph-name="D" unicode="D" horiz-adv-x="991" 
d="M39 1468q90 -20 198.5 -29t176.5 -12t146 -28t140 -78q110 -93 173 -254.5t63 -366.5q0 -148 -35 -278t-106 -219q-52 -63 -121 -103t-149 -57.5t-152.5 -25.5t-165.5 -16.5t-154 -20.5q80 294 80 706q0 460 -94 782zM598 625q0 108 -10 219t-38 205t-69 94
q-65 0 -65 -281q0 -72 2.5 -145.5t11 -178.5t30 -171t52.5 -66q39 0 62.5 86.5t23.5 237.5z" />
    <glyph glyph-name="E" unicode="E" horiz-adv-x="868" 
d="M481 1487q61 0 112 -26.5t85.5 -69.5t61.5 -102t42.5 -118.5t25.5 -124.5t13.5 -115t3.5 -95q0 -84 -4 -121q-82 -6 -169 -37.5t-153.5 -89.5t-66.5 -125q0 -48 32 -76.5t77 -28.5q72 0 148 67t81 124q49 -21 49 -154q0 -59 -9.5 -115.5t-33 -113.5t-58.5 -100t-91.5 -70
t-126.5 -27q-83 0 -153 37t-118 99.5t-84 139.5t-56.5 164t-30 165t-9.5 149q0 95 16.5 197.5t52 204t84.5 182t122 130.5t157 50zM408 1073q-17 -52 -17 -149q0 -49 2 -72q73 62 121 88q6 18 6 49q0 50 -15.5 94.5t-43.5 44.5q-18 0 -32 -18.5t-21 -36.5z" />
    <glyph glyph-name="F" unicode="F" horiz-adv-x="880" 
d="M866 1468q27 -114 27 -243q0 -67 -8 -126t-27 -116t-48 -97.5t-75.5 -65.5t-105.5 -25q-19 0 -27 2q53 92 53 204q0 66 -23 109t-57 43q-59 0 -103 -121.5t-50 -326.5q242 30 311 30q29 0 38 -4.5t9 -21.5q0 -15 -6 -33.5t-20.5 -41.5t-46 -42.5t-74.5 -28.5
q-33 -6 -115.5 -10t-101.5 -6q13 -252 143 -535q-327 -4 -506 -18q66 383 66 784q0 420 -80 678q196 -18 397 -18q246 0 430 30z" />
    <glyph glyph-name="G" unicode="G" horiz-adv-x="991" 
d="M582 854q49 57 49 145q0 125 -84 125q-48 0 -87.5 -41t-62.5 -104.5t-35 -133t-12 -134.5q0 -97 27.5 -185.5t72 -141t91.5 -52.5q85 0 108 182q-41 -16 -82 -16q-59 0 -98 34.5t-53.5 84.5t-14.5 114q0 76 21 137q60 -40 102 -56.5t107 -16.5q10 0 53.5 1t67.5 1
q77 0 115 -13.5t57 -54.5q26 -62 26 -176q0 -102 -25 -202t-73.5 -186.5t-130.5 -140t-186 -53.5q-112 0 -206.5 64.5t-155 169t-93.5 233t-33 260.5q0 112 22.5 223t69 213t111.5 180.5t157.5 125.5t198.5 47q142 0 231 -78t89 -213q0 -137 -92.5 -233.5t-251.5 -108.5z
" />
    <glyph glyph-name="H" unicode="H" horiz-adv-x="950" 
d="M512 1454q117 -12 219 -12q90 0 156 10q-44 -235 -61 -378.5t-17 -342.5q0 -473 104 -731q-85 6 -168 6q-107 0 -217 -10q3 60 18 215t15 229q0 166 -72 166q-79 0 -79 -180q0 -99 16.5 -186.5t65.5 -262.5q-129 27 -256 27q-82 0 -170 -10q39 176 55 346t16 403
q0 217 -19 394.5t-79 304.5q16 0 120 -6t171 -6q95 0 159 10q-41 -80 -62 -191t-21 -194q0 -75 19.5 -133t51.5 -58q35 0 53.5 66.5t18.5 171.5q0 197 -37 352z" />
    <glyph glyph-name="I" unicode="I" horiz-adv-x="555" 
d="M39 1446q178 -14 309 -14q97 0 146 4q-88 -254 -88 -637q0 -220 29.5 -431.5t84.5 -365.5q-95 6 -176 6q-120 0 -274 -16q65 349 65 665q0 390 -96 789z" />
    <glyph glyph-name="J" unicode="J" horiz-adv-x="821" 
d="M195 1468q234 -24 368 -24q129 0 230 14q-74 -204 -74 -362q0 -67 24.5 -281.5t24.5 -337.5q0 -156 -43 -264q-52 -120 -155 -180t-218 -60q-87 0 -158.5 33.5t-116 88.5t-68 122.5t-23.5 138.5q0 134 77 223.5t193 77.5q-55 -44 -55 -127q0 -85 38 -134.5t99 -49.5
q66 0 99.5 59.5t33.5 155.5q0 97 -32.5 235t-82 274.5t-89 231.5t-72.5 166z" />
    <glyph glyph-name="K" unicode="K" horiz-adv-x="1124" 
d="M717 1640q-23 -102 63 -200q87 -100 123.5 -160.5t36.5 -126.5q0 -83 -63 -169.5t-218 -217.5q64 -201 137.5 -331t139.5 -130q68 0 68 135q57 -23 88.5 -85.5t31.5 -143.5q0 -34 -6 -68t-21.5 -69.5t-39 -62t-62.5 -43.5t-88 -17q-52 0 -101.5 20t-88.5 50.5t-77 78
t-65 92t-54 104t-43.5 102t-34 98t-24.5 80t-16 59.5q0 -135 44 -338.5t88 -312.5q-141 10 -465 10q51 342 51 698q0 443 -82 772q195 -20 352 -20q61 0 92 2q-63 -300 -63 -569q91 77 133.5 164.5t42.5 170.5q0 38 -12.5 119t-12.5 115q0 62 31.5 108.5t114.5 85.5z" />
    <glyph glyph-name="L" unicode="L" horiz-adv-x="798" 
d="M39 1442q104 -8 229 -8q203 0 336 24q-72 -187 -142.5 -447t-70.5 -433q0 -115 33.5 -188t79.5 -73q38 0 62 49.5t24 114.5q0 80 -33 142q48 0 86 -15.5t63 -44.5t42.5 -64.5t26.5 -82t12.5 -90t3.5 -95.5t-4.5 -132.5t-4.5 -100.5q-12 0 -158.5 5t-232.5 5
q-187 0 -340 -12q74 372 74 721q0 383 -86 725z" />
    <glyph glyph-name="M" unicode="M" horiz-adv-x="1511" 
d="M494 1225q82 120 159.5 181.5t175.5 61.5q150 0 181 -170q66 82 130.5 126t149.5 44q38 0 67.5 -10t58 -35.5t44 -77t15.5 -126.5t-34 -348t-34 -433q0 -259 78 -432q-275 0 -488 -16q55 181 87 473.5t32 525.5q0 56 -6 80.5t-27 24.5q-66 0 -96 -275q-33 -300 -33 -536
q0 -158 23 -273q-287 0 -420 -10q51 174 74.5 451.5t23.5 515.5q0 67 -6.5 97t-30.5 30q-61 0 -101 -185t-40 -475q0 -178 25 -426q-216 -3 -424 -28q98 277 98 663q0 225 -39.5 430.5t-116.5 351.5q232 58 353 58q82 0 110.5 -29t28.5 -94q0 -61 -18 -135z" />
    <glyph glyph-name="N" unicode="N" horiz-adv-x="1064" 
d="M500 1225q84 120 162 181.5t178 61.5q38 0 68.5 -10t59 -35.5t44.5 -77.5t16 -128q0 -74 -33.5 -346.5t-33.5 -432.5q0 -261 77 -432q-277 0 -493 -16q55 181 88 474t33 515q0 67 -6.5 91t-28.5 24q-27 0 -47 -25.5t-31 -54.5q-33 -83 -51.5 -260.5t-18.5 -339.5
q0 -158 25 -406q-219 -3 -430 -28q100 270 100 663q0 226 -39.5 431t-118.5 351q232 58 359 58q82 0 111.5 -29.5t29.5 -93.5q0 -52 -20 -135z" />
    <glyph glyph-name="O" unicode="O" horiz-adv-x="976" 
d="M500 1483q89 0 162 -43.5t120.5 -115.5t79.5 -169t46 -199.5t14 -212.5q0 -80 -8 -161t-25 -171t-49.5 -166t-77 -139t-111.5 -99t-149 -36q-75 0 -138.5 31.5t-108.5 82.5t-80.5 121t-57.5 142.5t-36.5 151t-20 143t-5.5 121.5q0 92 14.5 187t48.5 191.5t84 171.5
t127 122t171 47zM389 735q0 -177 29 -285t80 -108q98 0 98 416q0 194 -22 284.5t-68 90.5q-50 0 -83.5 -102.5t-33.5 -295.5z" />
    <glyph glyph-name="P" unicode="P" horiz-adv-x="919" 
d="M88 1452q65 0 175.5 4t150.5 4q78 0 141.5 -8.5t132 -35t114 -70.5t75.5 -121t30 -181t-28 -188.5t-78 -142t-112 -94.5t-136 -56q-114 -28 -134 -37t-20 -34q0 -71 12 -137.5t37.5 -130.5t47 -107.5t57.5 -108.5q-47 0 -135.5 2t-141.5 2q-130 0 -237 -8q88 523 88 944
q0 254 -39 504zM428 776q74 21 113 84t39 144q0 64 -21.5 109.5t-52.5 45.5q-39 0 -61.5 -67.5t-22.5 -137.5q0 -121 6 -178z" />
    <glyph glyph-name="Q" unicode="Q" horiz-adv-x="976" 
d="M829 289q138 -434 433 -381q-28 -119 -102.5 -178.5t-176.5 -59.5q-75 0 -141 32t-114.5 87t-83.5 123t-56 147q-70 -36 -137 -36q-81 0 -148.5 45.5t-112.5 119t-76 168.5t-45 192t-14 193q0 140 30.5 272.5t86 238t141 169.5t187.5 64q84 0 156 -45t119.5 -117
t81.5 -164t49.5 -184.5t15.5 -179.5q0 -108 -24.5 -248t-68.5 -258zM381 678q39 24 92 24q77 0 125 -59q8 68 8 145q0 153 -30 253t-74 100q-17 0 -33.5 -14.5t-32.5 -49.5t-28 -87t-19.5 -132.5t-7.5 -179.5zM395 522q3 -62 30 -119t62 -57q10 0 33 10q-13 81 -44.5 124.5
t-65.5 43.5q-4 0 -9 -1t-6 -1z" />
    <glyph glyph-name="R" unicode="R" horiz-adv-x="1032" 
d="M39 1446q14 -2 45 -2q56 0 201 17.5t207 17.5q165 0 259.5 -80.5t94.5 -231.5q0 -115 -55 -211t-150 -161q18 -103 57.5 -228.5t94.5 -206.5q49 -75 102 -75q38 0 61 33.5t23 70.5q0 7 -1 14t-1 9q55 -47 55 -152q0 -121 -74.5 -211t-185.5 -90q-47 0 -92 18.5t-90.5 62
t-83.5 109.5t-71 168.5t-54 231.5q0 -17 -1 -55t-1 -60q0 -119 22 -220t76 -218q-125 16 -284 16q-89 0 -148 -6q61 385 61 787q0 405 -67 653zM434 1171q-33 -42 -33 -159q0 -70 15 -129q47 56 78.5 120t31.5 119q0 68 -51 68q-28 0 -41 -19z" />
    <glyph glyph-name="S" unicode="S" horiz-adv-x="774" 
d="M657 981q-5 46 -16.5 83t-40 67t-68.5 30q-37 0 -56 -23.5t-19 -60.5q0 -38 23.5 -81t55 -78.5t74 -94t70.5 -114.5q74 -145 74 -314q0 -106 -31.5 -189t-86 -132.5t-123 -75t-146.5 -25.5q-162 0 -258.5 102t-96.5 271q0 162 97 225q39 -221 149 -221q44 0 67 30.5
t23 72.5q0 52 -37.5 113t-96.5 136.5t-85 124.5q-78 135 -78 289q0 90 31 161.5t84.5 115.5t120 67t141.5 23q78 0 140 -25.5t98.5 -67t55.5 -91.5t19 -103q0 -118 -84 -215z" />
    <glyph glyph-name="T" unicode="T" horiz-adv-x="870" 
d="M831 1477q19 -157 19 -260q0 -309 -125 -383q2 10 2 47q0 39 -4.5 80t-14.5 83t-29.5 68.5t-45.5 26.5q-84 0 -84 -254q0 -153 26 -322t56 -287q16 -70 35.5 -111.5t87.5 -162.5q-136 4 -242 4q-214 0 -395 -12q82 146 145.5 394t63.5 466q0 49 -4 92.5t-12.5 85.5
t-26 67t-41.5 25q-41 0 -64.5 -64.5t-23.5 -152.5q0 -64 10 -106q-82 44 -121 149.5t-39 233.5q0 167 41 254q490 4 786 39z" />
    <glyph glyph-name="U" unicode="U" horiz-adv-x="1028" 
d="M20 1473q174 -29 259 -29q75 0 141 14q0 -4 -9 -110.5t-16 -199t-13.5 -230.5t-6.5 -246q0 -181 20 -259.5t66 -78.5q44 0 61 71.5t17 256.5q0 211 -18 441.5t-44 364.5q156 -24 314 -24q65 0 102 2q-53 -207 -53 -647q0 -70 1.5 -123.5t5.5 -113.5t12.5 -102.5
t21.5 -78.5t33.5 -54t46.5 -18q25 0 55 27q12 -52 12 -96q0 -107 -61.5 -171.5t-143.5 -64.5q-55 0 -101.5 29.5t-76.5 87.5q-50 -73 -112.5 -104t-143.5 -31q-172 0 -258 122.5t-86 356.5q0 78 15.5 247t15.5 273q0 243 -56 488z" />
    <glyph glyph-name="V" unicode="V" horiz-adv-x="985" 
d="M702 1491q-30 -40 -30 -98q0 -53 33 -106.5t102 -135.5q72 -82 107.5 -155t35.5 -169q0 -60 -13.5 -115.5t-41.5 -107.5t-53.5 -89t-65.5 -89q-8 -11 -36 -47t-37.5 -49t-31 -43.5t-30 -48.5t-20.5 -43.5t-16.5 -48.5t-4.5 -46q0 -64 39 -123q-125 17 -279 17
q-33 0 -70.5 -1t-56.5 -1q80 118 80 233q0 89 -36.5 171t-108.5 194q-43 70 -68 118.5t-47 125.5t-22 157q0 128 47 239t130 178t181 67q11 0 51 -5q-88 -88 -88 -188q0 -61 26 -121t79 -147q34 -60 49.5 -89.5t32 -83t16.5 -102.5q0 -70 -35.5 -188t-38.5 -160
q16 37 45 88.5t47.5 85.5t33 84.5t14.5 102.5q0 108 -72 227q-78 132 -78 238q0 95 47 165q39 57 93.5 83t90.5 26z" />
    <glyph glyph-name="W" unicode="W" horiz-adv-x="1222" 
d="M850 1511q2 -36 4 -59t10.5 -42.5t15 -29.5t26.5 -22.5t34 -18.5t49 -20q219 -90 219 -352q0 -86 -22.5 -171t-55 -154t-64.5 -134.5t-54.5 -137.5t-22.5 -139q0 -79 28 -119.5t83 -64.5q-38 -100 -164 -100q-61 0 -111.5 27t-81.5 67t-52 89.5t-29.5 91.5t-8.5 75
q0 57 21 145q-70 -119 -70 -235q0 -139 68 -221q-131 16 -275 16q-94 0 -141 -2q98 95 98 295q0 77 -21.5 141t-48 102.5t-83.5 106.5q-191 232 -191 471q0 135 52.5 245.5t138.5 131.5q-15 -24 -15 -61q0 -29 11 -54t34 -49.5t44 -41.5t57.5 -44.5t56.5 -44.5
q205 -166 205 -383q0 -83 -38 -212t-42 -193q14 34 55 107t63.5 135.5t22.5 131.5q0 72 -23 140t-63 114q5 0 15 1t20 1q114 0 199.5 -90t85.5 -217q0 -67 -37 -162.5t-37 -148.5q0 -29 2 -43q13 68 42 127t49 108t20 109t-19.5 112t-47 92t-55.5 82.5t-47.5 102
t-19.5 131.5q0 86 26.5 157.5t84.5 110.5z" />
    <glyph glyph-name="X" unicode="X" horiz-adv-x="925" 
d="M129 1460q23 2 68 2q124 0 176.5 -52.5t52.5 -133.5q0 -48 -24.5 -146.5t-24.5 -134.5q0 -40 16.5 -68t50.5 -28q40 0 60 37.5t20 81.5q0 32 -18.5 125.5t-18.5 132.5q0 106 58 180t145 74q17 0 37 -4q-20 -20 -20 -64q0 -78 63 -157q41 -59 61.5 -112.5t20.5 -125.5
q0 -119 -53.5 -206.5t-145.5 -135.5q109 -55 150 -130.5t41 -184.5q0 -35 -5 -97t-5 -96q0 -127 61 -219q-77 6 -154 6q-129 0 -243 -20q37 188 37 346q0 121 -23 189.5t-53 68.5q-29 0 -50.5 -62.5t-21.5 -171.5q0 -161 47 -358q-62 4 -104 4q-48 0 -151 -6.5t-148 -7.5
q47 82 47 184q0 39 -9.5 120.5t-9.5 119.5q0 92 42 169t155 148q-209 88 -209 287q0 56 16.5 120t37 109.5t37 90.5t16.5 69q0 21 -25 57z" />
    <glyph glyph-name="Y" unicode="Y" horiz-adv-x="987" 
d="M166 1501q34 21 74 21q59 0 103 -37.5t63.5 -88t19.5 -102.5t-33 -179t-33 -171q0 -67 42 -111.5t94 -44.5q41 0 68.5 31.5t37.5 69.5t10 76q0 36 -19.5 136.5t-19.5 149.5q0 36 8 69.5t25 64t49.5 49t75.5 18.5q73 0 103 -49q-32 0 -46 -22t-14 -52q0 -75 78 -180
q54 -71 77 -124.5t23 -143.5q0 -112 -39.5 -177.5t-115.5 -105.5q-41 -22 -60 -32.5t-50 -30.5t-45.5 -35.5t-30.5 -38t-22.5 -49t-6.5 -58.5q0 -136 147 -372q-147 18 -303 18q-125 0 -248 -12q172 233 172 383q0 37 -8.5 65.5t-33 58.5t-48.5 52t-74 63
q-82 68 -116.5 138.5t-34.5 187.5q0 74 18 133.5t72 147.5q31 51 44.5 75t28.5 62.5t15 66.5q0 64 -47 80z" />
    <glyph glyph-name="Z" unicode="Z" horiz-adv-x="890" 
d="M113 1477q286 -43 432 -43q171 0 295 41q-2 -85 -52 -239.5t-108.5 -295.5t-107 -288.5t-48.5 -221.5q0 -56 22 -81t56 -25q42 0 71 40t29 97q0 23 -6.5 55.5t-7.5 38.5q78 -32 129 -121.5t51 -191.5q0 -118 -77 -193.5t-236 -75.5q-59 0 -192.5 18.5t-200.5 18.5
q-66 0 -127 -12q0 96 68 283t161.5 406t122.5 312q21 71 21 117q0 70 -33 70q-41 0 -84.5 -90.5t-50.5 -239.5q-50 21 -86 94t-51 161t-15 179q0 120 25 187z" />
    <glyph glyph-name="bracketleft" unicode="[" horiz-adv-x="602" 
d="M119 -291v1776q4 39 14.5 50t40.5 11h354q39 -3 49.5 -13t10.5 -40q0 -60 -21 -106t-59 -46h-182v-1488h202q39 -3 49.5 -13.5t10.5 -40.5q0 -61 -20.5 -106t-59.5 -45h-334q-30 0 -40.5 11t-14.5 50z" />
    <glyph glyph-name="backslash" unicode="\" horiz-adv-x="768" 
d="M59 1522q25 -103 56 -185t82 -168.5t98 -153.5t137 -186q78 -106 127.5 -181t103 -176t79.5 -201.5t26 -204.5q0 -63 -12 -125q-34 102 -88.5 192.5t-105.5 151.5t-143.5 170.5t-162.5 201.5q-56 76 -95.5 137.5t-79.5 140.5t-60.5 161.5t-20.5 165.5q0 136 59 260z" />
    <glyph glyph-name="bracketright" unicode="]" horiz-adv-x="602" 
d="M483 1485v-1776q-3 -39 -13 -50t-40 -11h-336q-39 0 -59.5 45t-20.5 106q0 30 11 40.5t51 13.5h203v1488h-185q-38 0 -59 46t-21 106q0 30 11 40t51 13h354q30 0 40 -11t13 -50z" />
    <glyph glyph-name="asciicircum" unicode="^" horiz-adv-x="714" 
d="M659 745q0 -34 -61 -34q-54 0 -101 21.5t-55 58.5l-86 356l-92 -375q-9 -38 -21 -49.5t-40 -11.5q-38 0 -72.5 6.5t-60.5 28t-15 53.5l197 594q12 39 23 50t36 11q52 0 93.5 -21t52.5 -59l198 -602q4 -16 4 -27z" />
    <glyph glyph-name="underscore" unicode="_" horiz-adv-x="1261" 
d="M170 -125l975 -4q34 0 47.5 -7.5t13.5 -31.5q0 -68 -26.5 -101.5t-98.5 -37.5l-956 -23q-34 -2 -52 14.5t-18 57.5q0 40 23 92q13 25 29 33t63 8z" />
    <glyph glyph-name="grave" unicode="`" horiz-adv-x="722" 
d="M225 1503q120 0 209 -117q70 -88 117.5 -130.5t116.5 -71.5q-62 -62 -164 -62q-76 0 -130 37t-102 103q-69 93 -113 129.5t-104 42.5q69 69 170 69z" />
    <glyph glyph-name="a" unicode="a" horiz-adv-x="808" 
d="M772 440q33 -73 33 -164q0 -116 -50.5 -199t-133.5 -83q-89 0 -136 86q-70 -96 -188 -96q-112 0 -187 91.5t-75 213.5q0 62 22.5 111.5t58 81.5t78.5 57.5t86.5 44.5t79 37.5t58 42.5t22.5 53q0 63 -88 63q-77 0 -145 -53t-119 -129q-18 70 -18 123q0 180 91.5 279.5
t231.5 99.5q135 0 214 -92.5t79 -223.5q0 -42 -14.5 -139t-14.5 -145q0 -66 17 -102t41 -36q18 0 33 20.5t24 57.5zM301 311q0 -45 39 -45q33 0 59.5 38t39 90.5t12.5 103.5q-150 -101 -150 -187z" />
    <glyph glyph-name="b" unicode="b" horiz-adv-x="829" 
d="M354 905q47 75 108.5 125.5t127.5 50.5q96 0 143 -104.5t47 -280.5q0 -126 -24 -248.5t-71 -228.5t-126.5 -171.5t-179.5 -65.5q-137 0 -229.5 113t-92.5 321q0 102 37 347t37 353q0 225 -119 328q117 74 244 74q39 0 74 -8.5t68 -27t53 -55.5t20 -88q0 -56 -25 -142.5
t-55.5 -172.5t-36.5 -119zM328 444q0 -69 17 -118.5t48 -49.5q51 0 89 122.5t38 254.5q0 146 -59 146q-40 0 -72 -64t-46.5 -143.5t-14.5 -147.5z" />
    <glyph glyph-name="c" unicode="c" horiz-adv-x="765" 
d="M502 666q6 27 6 61q0 61 -21 100t-57 39q-52 0 -84.5 -74t-32.5 -194q0 -149 49 -226t119 -77q57 0 92.5 54.5t38.5 162.5q57 -19 87 -78.5t30 -136.5q0 -141 -93 -226t-222 -85q-118 0 -206 80.5t-131.5 209t-43.5 283.5q0 104 21.5 199.5t64 176t117 129t170.5 48.5
q124 0 197 -73.5t73 -186.5q0 -95 -51 -140.5t-123 -45.5z" />
    <glyph glyph-name="d" unicode="d" horiz-adv-x="940" 
d="M915 309q23 -47 23 -100q0 -97 -77 -171.5t-163 -74.5q-105 0 -143 121q-73 -102 -199 -102q-105 0 -177.5 79t-104 202.5t-31.5 281.5q0 99 16.5 193t48.5 174t85.5 129t121.5 49q63 0 120 -40t95 -112q17 117 17 182q0 237 -174 310q84 51 221 51q124 0 185 -57.5
t61 -190.5q0 -79 -42 -305.5t-42 -366.5q0 -124 25 -205.5t77 -81.5q29 0 57 35zM338 500q0 -123 19.5 -189.5t52.5 -66.5q43 0 65.5 102t22.5 225q0 101 -17 174.5t-53 73.5q-43 0 -66.5 -92t-23.5 -227z" />
    <glyph glyph-name="e" unicode="e" horiz-adv-x="704" 
d="M387 1110q60 0 108 -26t78 -70.5t51 -95t31.5 -108t14.5 -101t4 -82.5q0 -63 -4 -90q-66 -4 -138 -27.5t-127 -66.5t-55 -93q0 -35 27 -55.5t63 -20.5q60 0 123 52.5t68 97.5q41 -44 41 -137q0 -134 -72.5 -217.5t-198.5 -83.5q-77 0 -139.5 35t-102.5 91t-67 130
t-38 148.5t-11 150.5q0 103 22 202.5t63 182t108.5 133.5t150.5 51zM328 700q0 -39 2 -53q56 46 100 68q7 137 -45 137q-57 0 -57 -152z" />
    <glyph glyph-name="f" unicode="f" horiz-adv-x="696" 
d="M643 1575q53 -74 53 -172q0 -123 -75 -195q-25 -24 -65.5 -43.5t-75.5 -35t-68 -37.5t-52.5 -61.5t-19.5 -96.5q19 6 83.5 27t112 35t66.5 14q35 0 35 -37q0 -38 -31 -85t-74 -57q-153 -36 -196 -53q14 -130 27.5 -215t39.5 -191.5t70.5 -200t108.5 -181.5
q-109 14 -238 14t-305 -18q49 128 70.5 216t21.5 179q0 104 -42 359.5t-42 361.5q0 101 26.5 176t64 115t92.5 64t98 30.5t94 7.5q40 1 56.5 1.5t45 3t41.5 7t30.5 13.5t28 22.5t19.5 32.5z" />
    <glyph glyph-name="g" unicode="g" horiz-adv-x="751" 
d="M434 672q29 54 29 112q0 70 -49 70q-46 0 -76.5 -70t-30.5 -215q0 -150 33.5 -232.5t91.5 -82.5q75 0 80 176q-24 -4 -39 -4q-65 0 -103 46t-38 112q0 43 14 78q70 -37 111 -37q29 0 78 17t75 17q113 0 113 -196q0 -211 -92 -343t-228 -132q-146 0 -253 156.5t-107 410.5
q0 255 110.5 404t280.5 149q62 0 110 -21.5t75.5 -57.5t41 -78t13.5 -87q0 -78 -38 -127t-91 -63t-111 -2z" />
    <glyph glyph-name="h" unicode="h" horiz-adv-x="894" 
d="M33 1423q119 56 227 56q114 0 156.5 -62.5t42.5 -187.5q0 -71 -10.5 -150t-27 -162t-20.5 -108q88 291 240 291q89 0 142 -92t53 -215q0 -72 -17.5 -285.5t-17.5 -282.5q0 -134 49 -235q-83 14 -211 14q-85 0 -170 -12q74 378 74 598q0 174 -37 174q-22 0 -46.5 -52
t-43.5 -168t-19 -265q0 -144 25 -261q-20 2 -62 2q-45 0 -96.5 -4t-114.5 -10.5t-98 -9.5q41 146 65.5 402.5t24.5 488.5q0 243 -27.5 359.5t-80.5 176.5z" />
    <glyph glyph-name="i" unicode="i" horiz-adv-x="526" 
d="M20 1014q85 63 218 63q132 0 184.5 -66t52.5 -186q0 -74 -25.5 -248t-25.5 -253q0 -127 17 -193.5t61 -140.5q-86 8 -217 8q-117 0 -219 -10q47 92 74.5 249t27.5 318q0 180 -37 305.5t-111 153.5zM113 1337q0 65 44.5 109.5t108.5 44.5q65 0 110.5 -45t45.5 -109
q0 -65 -45.5 -109t-110.5 -44t-109 43.5t-44 109.5z" />
    <glyph glyph-name="j" unicode="j" horiz-adv-x="741" 
d="M246 512q-43 -65 -43 -137q0 -62 26 -102t80 -40q59 0 91 50.5t32 142.5q0 53 -10 119.5t-32 141t-53 136.5t-78.5 103.5t-102.5 44.5q99 108 250 108q83 0 142 -39t92 -112.5t47.5 -166t14.5 -212.5q0 -306 -92.5 -475.5t-285.5 -169.5q-79 0 -141.5 29t-99 77.5
t-55 105t-18.5 117.5q0 118 63.5 198.5t172.5 80.5zM236 1337q0 73 45 113.5t108 40.5q61 0 107.5 -41.5t46.5 -112.5q0 -72 -46 -112.5t-108 -40.5q-63 0 -108 40.5t-45 112.5z" />
    <glyph glyph-name="k" unicode="k" horiz-adv-x="880" 
d="M51 1442q99 41 195 41q227 0 227 -193q0 -47 -41 -221q-36 -150 -48.5 -239t-18.5 -267q68 33 103.5 76.5t35.5 110.5q0 53 -31 108.5t-31 102.5q0 132 140 217q-9 -30 -9 -60q0 -58 29.5 -91t93.5 -71q35 -21 55.5 -37.5t39 -51t18.5 -79.5q0 -163 -223 -268
q10 -64 70 -147.5t108 -83.5q47 0 55 94q58 -61 58 -174q0 -102 -49.5 -178t-129.5 -76q-32 0 -64.5 15t-58.5 36t-54.5 57.5t-47.5 65t-43.5 74.5t-36 70t-31.5 67q-4 -18 -4 -61q0 -137 64 -289q-37 2 -124 8t-147 9t-116 3q86 391 86 787q0 190 -18.5 377t-51.5 268z" />
    <glyph glyph-name="l" unicode="l" horiz-adv-x="536" 
d="M61 1444q63 31 109 45t102 14q108 0 161.5 -60.5t53.5 -197.5q0 -76 -19.5 -213t-39.5 -314.5t-20 -350.5q0 -220 24 -353q-74 4 -108 4q-89 0 -273 -16q41 156 68.5 408t27.5 491q0 431 -86 543z" />
    <glyph glyph-name="m" unicode="m" horiz-adv-x="1239" 
d="M27 1014q45 33 116 59.5t129 26.5q59 0 94 -32.5t35 -96.5q0 -13 -10 -86q51 102 107 160.5t135 58.5q71 0 102.5 -50t38.5 -143q45 88 108 140.5t136 52.5q162 0 162 -289q0 -70 -14.5 -261t-14.5 -263q0 -154 47 -279q-232 -7 -352 -18q21 146 35 328.5t14 295.5
q0 68 -9 101t-34 33q-21 0 -37.5 -25.5t-26.5 -64t-15 -71t-7 -59.5q-14 -100 -14 -227q0 -180 30 -295q-135 6 -170 6q-78 0 -151 -6q21 148 35 322.5t14 285.5q0 134 -41 134q-43 0 -62.5 -93.5t-19.5 -242.5q0 -96 7 -228t12 -176q-228 0 -338 -22q13 92 25.5 265.5
t12.5 338.5q0 361 -79 420z" />
    <glyph glyph-name="n" unicode="n" horiz-adv-x="870" 
d="M27 1014q44 33 116.5 59.5t130.5 26.5q62 0 97 -32.5t35 -96.5q0 -6 -11 -86q51 103 107.5 161t136.5 58q63 0 101 -40t51.5 -100.5t13.5 -148.5q0 -70 -13.5 -261t-13.5 -263q0 -161 47 -279q-235 -7 -360 -18q21 145 35 332t14 301q0 65 -8.5 99t-32.5 34
q-43 0 -64.5 -94t-21.5 -238q0 -96 8.5 -231t14.5 -185q-230 0 -342 -22q14 98 27.5 269.5t13.5 332.5q0 361 -82 422z" />
    <glyph glyph-name="o" unicode="o" horiz-adv-x="786" 
d="M403 1112q73 0 131.5 -31t96.5 -83t64 -124t37 -150.5t11 -166.5q0 -63 -6 -123.5t-20 -127t-40 -122t-62 -100.5t-91 -70.5t-123 -25.5q-84 0 -149.5 40.5t-103.5 102t-63 142t-33.5 150.5t-8.5 138q0 98 20 191t60.5 176t113 133.5t166.5 50.5zM315 555
q0 -129 24.5 -210t66.5 -81q40 0 60.5 78.5t20.5 216.5q0 285 -79 285q-39 0 -66 -75t-27 -214z" />
    <glyph glyph-name="p" unicode="p" horiz-adv-x="780" 
d="M49 1034q165 84 316 84q75 0 142 -23t121.5 -68t87 -120.5t32.5 -173.5q0 -162 -86 -254q-29 -32 -66 -54t-71 -30t-51 -10t-30 -2q-11 0 -24 1t-17 1q-53 0 -53 -63q0 -67 42 -161t97 -163q-27 0 -109.5 3t-129.5 3q-112 0 -211 -12q63 255 63 586q0 283 -53 456z
M362 532q73 33 106.5 89t33.5 118q0 57 -18 94t-46 37q-38 0 -59 -65.5t-21 -165.5q0 -78 4 -107z" />
    <glyph glyph-name="q" unicode="q" horiz-adv-x="776" 
d="M676 190q27 -73 77.5 -143t126 -122t152.5 -52q36 0 94 21q0 -104 -77.5 -175t-186.5 -71q-57 0 -110.5 21t-104 64.5t-89.5 121.5t-58 182q-70 -19 -105 -19q-83 0 -151 48t-111 127t-66.5 176.5t-23.5 201.5q0 102 23 197t66 172t113.5 123.5t157.5 46.5
q84 0 150 -42.5t107 -116t62 -166t21 -197.5q0 -102 -17.5 -210t-49.5 -188zM311 537q27 10 54 10q33 0 67 -14.5t55 -36.5q5 41 5 100q0 115 -26 181.5t-65 66.5q-42 0 -66 -80.5t-24 -226.5zM324 399q5 -43 33 -88t59 -45q20 0 30 21q-7 42 -43.5 74t-78.5 38z" />
    <glyph glyph-name="r" unicode="r" horiz-adv-x="858" 
d="M403 862q69 132 133 184t140 52q71 0 115.5 -68.5t44.5 -165.5q0 -68 -22 -130t-75.5 -117t-132.5 -82q41 83 41 143q0 78 -43 78q-67 0 -131.5 -104t-64.5 -267q0 -184 100 -395q-71 12 -174 12q-55 0 -275 -10q1 4 19.5 51t23 62.5t18 67.5t18 95t9.5 115t5 156
q0 162 -11.5 253.5t-33.5 132t-62 54.5q33 50 100 84.5t138 34.5q58 0 94.5 -36t36.5 -99q0 -20 -5 -55.5t-6 -45.5z" />
    <glyph glyph-name="s" unicode="s" horiz-adv-x="645" 
d="M551 735q-7 48 -41.5 96t-77.5 48q-23 0 -37 -13.5t-14 -40.5q0 -36 28.5 -76t78 -100.5t81.5 -118.5q62 -124 62 -235q0 -145 -89 -231.5t-229 -86.5q-131 0 -212 76.5t-81 202.5q0 119 80 172q13 -83 49.5 -125.5t81.5 -42.5q33 0 51.5 20.5t18.5 51.5q0 39 -30.5 85.5
t-81.5 106.5t-74 97q-62 105 -62 215q0 131 82.5 204.5t204.5 73.5q115 0 196.5 -63t81.5 -158q0 -82 -67 -158z" />
    <glyph glyph-name="t" unicode="t" horiz-adv-x="686" 
d="M504 942q0 -28 -15 -145q25 4 94.5 17.5t102.5 16.5q0 -95 -55.5 -135.5t-188.5 -46.5q-36 -71 -36 -213q0 -119 51 -119q16 0 31.5 11.5t29 34.5t21.5 39.5t20 45.5t14 33q60 -57 60 -180q0 -86 -27 -160.5t-84.5 -124t-134.5 -49.5q-110 0 -177 95t-67 245
q0 37 8.5 169t8.5 200q0 306 -160 426q75 72 246 72q128 0 193 -53.5t65 -178.5z" />
    <glyph glyph-name="u" unicode="u" horiz-adv-x="901" 
d="M37 1059q77 41 176 41q233 0 233 -201q0 -77 -46 -279t-46 -253q0 -35 12.5 -58.5t26.5 -23.5q43 0 85 164t42 337q0 209 -76 295q59 19 117 19q111 0 181.5 -58t70.5 -176q0 -68 -36 -225t-36 -219q0 -53 16.5 -82t43.5 -29q40 0 71 51q19 -55 19 -112
q0 -105 -57 -187.5t-132 -82.5q-93 0 -161 147q-47 -69 -100.5 -105t-131.5 -36q-56 0 -99 19.5t-69.5 50.5t-43 74t-23 86.5t-6.5 92.5q0 74 24.5 250t24.5 256q0 167 -80 244z" />
    <glyph glyph-name="v" unicode="v" horiz-adv-x="847" 
d="M604 1184q-12 -28 -12 -60q0 -35 16.5 -62.5t41.5 -45.5t53.5 -42.5t53.5 -51.5t41.5 -74.5t16.5 -108.5q0 -71 -22 -136t-53.5 -114t-63.5 -95t-54 -100t-22 -110q0 -82 47 -182q-72 4 -215 4q-131 0 -217 -12q29 47 44 85.5t15 86.5q0 63 -28 121.5t-99 167.5
q-49 74 -80.5 167.5t-31.5 170.5q0 72 25 145t78.5 126.5t121.5 53.5q18 0 33 -6q-29 -66 -29 -117q0 -39 16.5 -77.5t32.5 -60t45 -54.5q66 -74 93.5 -130.5t27.5 -140.5q0 -108 -33 -237q13 28 44 80.5t42 88t11 85.5q0 66 -23.5 132.5t-47 126.5t-23.5 110q0 77 43 155.5
t112 110.5z" />
    <glyph glyph-name="w" unicode="w" horiz-adv-x="1103" 
d="M201 1135q-6 -27 -6 -72q0 -51 16.5 -89.5t43 -62.5t59 -45t64.5 -45t58.5 -54t43 -80t16.5 -116q0 -65 -25.5 -144t-30.5 -103q52 49 84.5 127t32.5 165q0 111 -70 175q27 12 62 12q76 0 133 -66t57 -168q0 -37 -10 -114t-12 -107q5 14 28.5 63t36.5 93.5t13 93.5
q0 37 -7.5 69t-25 60.5t-28 43t-36.5 42t-30 31.5q-52 58 -52 129q0 98 95 157q2 -24 5 -42.5t11 -35.5t12.5 -28t20 -26t22 -22t30.5 -23t34 -22t43 -26q176 -102 176 -299q0 -82 -29 -156.5t-82 -160.5q-6 -11 -29 -50t-32 -56.5t-19 -48.5t-10 -58q0 -35 25 -74
q-44 -20 -86 -20q-97 0 -156 100t-59 233q-51 -104 -51 -213q0 -52 14 -98q-98 4 -152 4q-124 0 -223 -16q66 112 66 223q0 63 -22 127t-53.5 119t-63.5 109.5t-54 118.5t-22 126q0 61 17.5 123.5t58.5 119t98 77.5z" />
    <glyph glyph-name="x" unicode="x" horiz-adv-x="907" 
d="M102 1092q27 35 68 54t84 19q71 0 122.5 -45.5t51.5 -128.5q0 -37 -19.5 -124t-19.5 -124q0 -46 18.5 -77t53.5 -31q51 0 51 72q0 27 -14.5 132.5t-14.5 151.5q0 208 226 238q-11 -32 -11 -62q0 -43 16 -88.5t34.5 -80t34.5 -88t16 -111.5q0 -94 -40.5 -147.5
t-123.5 -82.5q74 -36 111.5 -92t45 -118.5t9 -125.5t16.5 -129.5t53 -113.5q-41 0 -122 2t-121 2q-91 0 -164 -8q47 160 47 290q0 82 -18.5 127.5t-45.5 45.5q-28 0 -47.5 -50t-19.5 -139q0 -119 37 -264q-25 0 -65.5 1t-67.5 1q-124 0 -244 -16q25 55 32.5 120.5t7 120
t6.5 111.5t41 113.5t101 107.5q-125 101 -125 236q0 55 28 142.5t28 108.5q0 50 -56 50z" />
    <glyph glyph-name="y" unicode="y" horiz-adv-x="876" 
d="M846 1067q-90 -22 -90 -149q0 -67 42 -238t42 -264q0 -198 -124 -335.5t-294 -137.5q-141 0 -247.5 91t-106.5 238q0 20 4 56q43 -50 119.5 -82.5t154.5 -32.5q117 0 117 84q0 33 -19 45t-65 12q-126 0 -201 32.5t-112 111.5q-25 56 -25 118q0 64 22 142.5t44 144.5
t22 101q0 63 -63 77q51 39 129 39q98 0 143 -57.5t45 -136.5q0 -44 -19.5 -143t-19.5 -136q0 -92 80 -92q57 0 85 41.5t28 99.5q0 46 -25 133.5t-25 122.5q0 70 48 130.5t141 60.5q110 0 170 -76z" />
    <glyph glyph-name="z" unicode="z" horiz-adv-x="796" 
d="M715 1100q0 -84 -26 -175.5t-63.5 -168.5t-75 -149.5t-63.5 -143t-26 -125.5q0 -45 16 -68.5t43 -23.5q28 0 50.5 26.5t35 66.5t19 81t6.5 76q135 -66 135 -258q0 -74 -18 -125.5t-51.5 -78t-72 -37.5t-87.5 -11q-47 0 -153.5 14t-164.5 14q-87 0 -182 -18
q8 105 30.5 188t48 132t74.5 128q14 22 34.5 55t30.5 49t25.5 41t22.5 37.5t16.5 30.5t14 28.5t9 23.5t6 23t1.5 20q0 51 -45 51q-38 0 -69.5 -39.5t-47.5 -88t-24 -100.5q-52 37 -76.5 118t-24.5 181q0 98 29 216q159 -25 303 -25q165 0 320 35z" />
    <glyph glyph-name="braceleft" unicode="{" horiz-adv-x="643" 
d="M274 606q35 -20 56.5 -44t37 -75.5t15.5 -128.5q0 -54 -11.5 -156.5t-11.5 -160.5q0 -297 203 -297q31 0 68 6q-95 -100 -236 -100q-134 0 -194 93t-60 273q0 86 16.5 238t16.5 195q0 64 -15.5 93.5t-43.5 45.5q-17 10 -17 18q0 12 15 21q19 11 30.5 22.5t21 41t9.5 75.5
q0 43 -16.5 194t-16.5 236q0 181 60 275t194 94q138 0 236 -101q-37 6 -68 6q-203 0 -203 -296q0 -58 11.5 -161.5t11.5 -158.5q0 -110 -27.5 -163t-81.5 -85z" />
    <glyph glyph-name="bar" unicode="|" horiz-adv-x="555" 
d="M176 -264v1792q3 39 13 49t40 10q61 0 106.5 -20t45.5 -58v-1794q-3 -38 -13.5 -48.5t-39.5 -10.5q-62 0 -107 20t-45 60z" />
    <glyph glyph-name="braceright" unicode="}" horiz-adv-x="643" 
d="M371 606q-55 32 -83 85t-28 163q0 55 11.5 158.5t11.5 161.5q0 296 -203 296q-30 0 -68 -6q98 101 236 101q134 0 194 -94t60 -275q0 -85 -15.5 -236t-15.5 -194q0 -66 15 -94t44 -45q15 -9 15 -21q0 -8 -17 -18q-28 -16 -42.5 -45.5t-14.5 -93.5q0 -43 15.5 -195
t15.5 -238q0 -180 -60 -273t-194 -93q-141 0 -236 100q37 -6 68 -6q203 0 203 297q0 58 -11.5 160.5t-11.5 156.5q0 112 28 165t83 83z" />
    <glyph glyph-name="asciitilde" unicode="~" 
d="M63 694q43 110 122 151.5t196 41.5q70 0 224 -19.5t241 -19.5q178 0 284 72q-41 -186 -192 -304t-338 -118q-70 0 -121.5 18t-107.5 55q-116 76 -169 98t-139 25z" />
    <glyph glyph-name="nbspace" unicode="&#xa0;" horiz-adv-x="522" 
 />
    <glyph glyph-name="exclamdown" unicode="&#xa1;" horiz-adv-x="532" 
d="M170 -465q-123 96 -123 252q0 78 30 186t66.5 200t66.5 211.5t30 217.5q0 79 -21 141q142 -75 211.5 -226.5t69.5 -328.5q0 -121 -32.5 -199t-102.5 -153q-99 -105 -135 -159t-60 -142zM424 1018q0 -65 -45 -109.5t-111 -44.5q-63 0 -108 45t-45 109t45 108.5t108 44.5
q66 0 111 -44t45 -109z" />
    <glyph glyph-name="cent" unicode="&#xa2;" horiz-adv-x="829" 
d="M555 838q6 27 6 61q0 55 -21 92t-53 37q-46 0 -83 -70.5t-37 -185.5q0 -132 49 -201t116 -69q53 0 92.5 48t43.5 136q56 -21 85 -80t29 -135q0 -111 -60 -188.5t-155 -106.5q2 -6 2 -14v-219q-4 -39 -14.5 -49.5t-40.5 -10.5q-61 0 -106.5 20t-45.5 58v209
q-145 41 -227 195.5t-82 353.5q0 128 33 240.5t104.5 198.5t171.5 114v153q3 38 14 49t40 11q62 0 107.5 -20t45.5 -58v-141q76 -27 118 -91.5t42 -148.5q0 -96 -51 -142t-123 -46z" />
    <glyph glyph-name="sterling" unicode="&#xa3;" horiz-adv-x="1081" 
d="M590 877q49 69 49 129q0 49 -28.5 78.5t-65.5 29.5q-39 0 -66.5 -34t-27.5 -99q0 -100 75 -254q21 4 83 11t100 7q30 0 37.5 -5.5t7.5 -22.5q0 -23 -4 -41t-9 -31t-19 -23t-25 -16t-36 -12.5t-43 -10t-55 -10.5q21 -103 21 -178q0 -43 -6 -90q44 -6 90 -6
q83 0 142.5 31.5t59.5 95.5q0 47 -39 78q5 0 12 1t15 1q84 0 140.5 -74t56.5 -178q0 -125 -74 -211t-207 -86q-147 0 -295 131q-132 -121 -250 -121q-87 0 -141.5 60t-54.5 139q0 62 34 112t87 74q16 8 33 13.5t38 8.5t34.5 4.5t39.5 2.5t35 2q-22 68 -70 158
q-85 -11 -94 -11q-50 0 -75 23t-25 51q0 31 28.5 56t69.5 36q-23 65 -36 105.5t-24.5 101.5t-11.5 119q0 207 121 343t322 136q166 0 257 -93.5t91 -229.5q0 -116 -71.5 -197.5t-225.5 -103.5z" />
    <glyph glyph-name="currency" unicode="&#xa4;" horiz-adv-x="1163" 
d="M575 1092q102 0 181 -37q91 86 157.5 135t108.5 49q38 0 61 -38.5t23 -63.5q0 -16 -16 -41t-52.5 -62t-63.5 -63t-79 -74q25 -67 25 -141q0 -90 -31 -164q244 -253 244 -273q0 -39 -52.5 -70.5t-81.5 -31.5q-48 0 -258 223q-67 -30 -166 -30q-83 0 -153 24
q-266 -260 -277 -260q-38 0 -69 48t-31 93q0 21 219 248q-53 85 -53 195q0 98 49 178q-197 207 -197 229q0 38 50 68.5t96 30.5q10 0 209 -199q76 27 157 27zM487 754q0 -78 24.5 -127t66.5 -49t63 48t21 132q0 172 -82 172q-39 0 -66 -45.5t-27 -130.5z" />
    <glyph glyph-name="yen" unicode="&#xa5;" horiz-adv-x="987" 
d="M870 346h-282q22 -147 141 -377q-141 23 -303 23q-146 0 -248 -15q136 222 164 369h-244q-39 3 -49 13t-10 40q0 62 20 107t58 45h215q-32 75 -146 180q-47 41 -70.5 65.5t-44.5 58t-28.5 70t-7.5 89.5q0 62 18 113.5t72 129.5q29 41 44 64t29.5 55.5t14.5 57.5
q0 56 -47 69q36 19 74 19q87 0 136.5 -62t49.5 -135q0 -47 -33 -157t-33 -148q0 -59 42 -97t94 -38q59 0 87.5 49t28.5 102q0 31 -19.5 118.5t-19.5 131.5q0 32 8 61t25.5 55.5t49.5 42t75 15.5q73 0 103 -43q-32 0 -46 -18t-14 -43q0 -69 78 -158q54 -62 77 -109t23 -124
q0 -66 -20.5 -113.5t-51 -75t-83.5 -59.5q-105 -70 -138 -103q-31 -30 -49 -63h279q39 -3 49 -13t10 -40q0 -61 -20 -106.5t-58 -45.5z" />
    <glyph glyph-name="brokenbar" unicode="&#xa6;" horiz-adv-x="555" 
d="M176 803v725q3 39 13 49t40 10q61 0 106.5 -20t45.5 -58v-725q-3 -38 -13.5 -48.5t-39.5 -10.5q-62 0 -107 20t-45 58zM176 -264v723q3 39 13 50t40 11q60 0 106 -21t46 -59v-725q-3 -38 -13.5 -48.5t-39.5 -10.5q-62 0 -107 20t-45 60z" />
    <glyph glyph-name="section" unicode="&#xa7;" horiz-adv-x="774" 
d="M152 45q7 -56 38 -98.5t91 -42.5q38 0 57.5 17.5t19.5 45.5q0 33 -31.5 73.5t-76 84t-89.5 95t-76.5 126t-31.5 158.5q0 150 90.5 235t231.5 101q-24 17 -70.5 47.5t-75 50t-66 51.5t-58.5 60.5t-36.5 68.5t-15.5 84q0 87 55 152t142.5 97t191.5 32q155 0 237.5 -68.5
t82.5 -159.5q0 -94 -86 -170q-5 35 -17 64.5t-41.5 53.5t-70.5 24q-38 0 -58 -18t-20 -46q0 -29 22.5 -62.5t56.5 -65t73.5 -75t73.5 -88.5t56.5 -109.5t22.5 -135.5q0 -77 -25.5 -138.5t-71 -101.5t-102.5 -64t-124 -32q25 -18 70.5 -48.5t75 -50.5t66.5 -52t58.5 -60.5
t37 -68.5t15.5 -83q0 -129 -113.5 -204.5t-275.5 -75.5q-155 0 -237 68t-82 159q0 94 86 170zM518 600q0 31 -18 48.5t-51 17.5q-57 0 -98.5 -45.5t-41.5 -92.5q0 -28 19.5 -45.5t52.5 -17.5q55 0 96 41.5t41 93.5z" />
    <glyph glyph-name="dieresis" unicode="&#xa8;" horiz-adv-x="845" 
d="M90 1337q0 65 41 109.5t102 44.5q60 0 103 -45t43 -109q0 -65 -42.5 -109t-103.5 -44q-62 0 -102.5 43.5t-40.5 109.5zM469 1337q0 65 41 109.5t102 44.5q60 0 102 -45t42 -109q0 -65 -42 -109t-102 -44q-62 0 -102.5 43.5t-40.5 109.5z" />
    <glyph glyph-name="copyright" unicode="&#xa9;" horiz-adv-x="1363" 
d="M702 1483q151 0 268 -53.5t190.5 -150.5t111 -229t37.5 -294q0 -229 -71.5 -405.5t-215 -279t-340.5 -102.5q-136 0 -245.5 50t-179 129.5t-116.5 185t-66.5 210t-19.5 210.5q0 151 41.5 282t120.5 231t204 158t281 58zM274 723q0 -122 23.5 -223t70.5 -178t124.5 -119.5
t179.5 -42.5q191 0 300 152t109 458q0 545 -364 545q-93 0 -172.5 -36t-140.5 -106.5t-95.5 -185.5t-34.5 -264zM735 795q21 37 21 71q0 28 -11.5 44t-27.5 16q-35 0 -59.5 -59.5t-24.5 -133.5q0 -65 22.5 -103t59.5 -38q25 0 45.5 19.5t23.5 62.5q31 -7 54.5 -35.5
t23.5 -71.5q0 -65 -47 -117.5t-119 -52.5q-98 0 -162.5 98t-64.5 238q0 92 29 171.5t89 131t140 51.5q69 0 103 -38t34 -97q0 -62 -37 -104t-92 -53z" />
    <glyph glyph-name="ordfeminine" unicode="&#xaa;" horiz-adv-x="507" 
d="M457 1096q18 -35 18 -90q0 -63 -28.5 -109.5t-73.5 -46.5q-50 0 -74 47q-39 -51 -104 -51q-61 0 -102.5 50.5t-41.5 117.5q0 47 23 81t55.5 52t65.5 32t56 30.5t23 37.5q0 37 -47 37q-43 0 -81.5 -29.5t-63.5 -70.5q-12 46 -12 65q0 100 51 155.5t127 55.5
q75 0 118.5 -50.5t43.5 -123.5q0 -23 -8.5 -76.5t-8.5 -79.5q0 -36 10 -55.5t23 -19.5q22 0 31 41zM199 1026q0 -25 18 -25q28 0 46 41t18 86q-82 -56 -82 -102zM43 569q14 92 48.5 129t88.5 37q33 0 105.5 -19.5t103.5 -19.5q45 0 84 29q-30 -99 -69 -138.5t-89 -39.5
q-33 0 -100.5 22.5t-101.5 22.5q-41 0 -70 -23z" />
    <glyph glyph-name="guillemotleft" unicode="&#xab;" horiz-adv-x="858" 
d="M27 524q120 100 217 248t121 322q79 -62 79 -217q0 -104 -35.5 -198.5t-93.5 -133.5q129 -123 129 -279q0 -138 -108 -243q-3 82 -24 152.5t-48.5 119.5t-71 94.5t-79.5 74t-86 60.5zM414 524q120 100 217 248t121 322q79 -62 79 -217q0 -104 -35.5 -198.5t-93.5 -133.5
q129 -123 129 -279q0 -138 -108 -243q-3 82 -24 152.5t-48.5 119.5t-71 94.5t-79.5 74t-86 60.5z" />
    <glyph glyph-name="logicalnot" unicode="&#xac;" 
d="M932 80v565h-817q-39 3 -49.5 13t-10.5 40q0 61 20.5 106.5t59.5 45.5h942q39 -3 49.5 -13t10.5 -40v-738q-3 -38 -13 -48.5t-41 -10.5q-60 0 -105.5 21t-45.5 59z" />
    <glyph glyph-name="softhyphen" unicode="&#xad;" horiz-adv-x="753" 
d="M131 821l547 -4q33 0 46 -8.5t13 -32.5q0 -69 -26 -102t-99 -37l-528 -21q-34 -3 -52 13t-18 57q0 40 23 92q13 26 29.5 34.5t64.5 8.5z" />
    <glyph glyph-name="registered" unicode="&#xae;" horiz-adv-x="1363" 
d="M702 1483q151 0 268 -53.5t190.5 -150.5t111 -229t37.5 -294q0 -229 -71.5 -405.5t-215 -279t-340.5 -102.5q-136 0 -245.5 50t-179 129.5t-116.5 185t-66.5 210t-19.5 210.5q0 151 41.5 282t120.5 231t204 158t281 58zM274 723q0 -122 23.5 -223t70.5 -178t124.5 -119.5
t179.5 -42.5q191 0 300 152t109 458q0 545 -364 545q-93 0 -172.5 -36t-140.5 -106.5t-95.5 -185.5t-34.5 -264zM471 1073h21q26 0 95 7t99 7q78 0 123 -37t45 -106q0 -105 -98 -170q30 -140 73 -199q22 -36 50 -36q17 0 28 16.5t11 32.5v10q24 -24 24 -70q0 -56 -35 -97.5
t-88 -41.5q-62 0 -112 64t-74 206q0 -6 -1 -23t-1 -30q0 -98 47 -200q-74 8 -135 8q-34 0 -70 -4q29 185 29 364q0 175 -31 299zM657 946q-14 -17 -14 -72q0 -35 6 -59q51 59 51 109q0 30 -22 30q-16 0 -21 -8z" />
    <glyph glyph-name="macron" unicode="&#xaf;" horiz-adv-x="763" 
d="M158 1374l510 -4q30 0 42.5 -7.5t12.5 -29.5q0 -64 -25 -94.5t-92 -36.5l-491 -18q-32 -2 -48 12t-16 53q0 35 19 84q15 25 30 33t58 8z" />
    <glyph glyph-name="degree" unicode="&#xb0;" horiz-adv-x="669" 
d="M47 1212q0 123 83.5 210t201.5 87q120 0 204.5 -87t84.5 -210q0 -124 -84 -209t-205 -85q-119 0 -202 85t-83 209zM229 1212q0 -75 31.5 -128.5t75.5 -53.5q46 0 78 53.5t32 128.5t-32.5 130t-77.5 55q-44 0 -75.5 -55t-31.5 -130z" />
    <glyph glyph-name="plusminus" unicode="&#xb1;" 
d="M494 416v358h-379q-39 3 -49.5 13t-10.5 40q0 61 20.5 106.5t59.5 45.5h359v379q3 39 13 49t40 10q62 0 106.5 -20t44.5 -58v-360h379q39 -3 49.5 -13t10.5 -40q0 -61 -20 -106.5t-58 -45.5h-361v-379q-3 -39 -13 -49t-40 -10q-60 0 -105.5 21t-45.5 59zM1059 4h-944
q-39 3 -49.5 13t-10.5 40q0 61 20.5 106.5t59.5 45.5h942q39 -3 49.5 -13t10.5 -40q0 -61 -20 -106.5t-58 -45.5z" />
    <glyph glyph-name="twosuperior" unicode="&#xb2;" horiz-adv-x="561" 
d="M444 948q37 -10 55.5 -49.5t18.5 -93.5q0 -77 -37 -125.5t-119 -48.5q-32 0 -104 13t-113 13q-49 0 -84 -12q-2 140 117 340q59 103 83 156t24 90q0 55 -49 55q-54 0 -54 -67q0 -27 13 -66q-60 0 -93.5 36t-33.5 85q0 71 58.5 127.5t156.5 56.5q90 0 151.5 -53.5
t61.5 -147.5q0 -51 -25.5 -106.5t-55.5 -95t-55.5 -88.5t-25.5 -88q0 -50 43 -50q67 0 67 119z" />
    <glyph glyph-name="threesuperior" unicode="&#xb3;" horiz-adv-x="557" 
d="M88 1460q107 -24 244 -24q91 0 160 10q-22 -216 -109 -313q58 -17 91.5 -76.5t33.5 -134.5q0 -72 -29 -136.5t-91 -108.5t-144 -44q-96 0 -146.5 54.5t-50.5 123.5q0 49 26.5 90t76.5 57q4 -127 83 -127q41 0 75 36.5t34 93.5q0 43 -21 60.5t-50.5 17.5h-59.5t-51 18.5
t-21 62.5v17q6 0 21.5 -1t21.5 -1q44 0 77.5 35.5t33.5 78.5q0 27 -13.5 41.5t-35.5 14.5q-35 0 -72 -37.5t-61 -114.5q-45 62 -45 152q0 47 22 155z" />
    <glyph glyph-name="acute" unicode="&#xb4;" horiz-adv-x="722" 
d="M498 1503q101 0 170 -69q-60 -6 -104 -42.5t-113 -129.5q-48 -66 -102 -103t-132 -37q-100 0 -162 62q69 29 116.5 71.5t117.5 130.5q44 58 93 87.5t116 29.5z" />
    <glyph glyph-name="paragraph" unicode="&#xb6;" horiz-adv-x="937" 
d="M332 1460q56 0 184.5 -13t194.5 -13q93 0 180 20q-25 -223 -25 -399q0 -220 17.5 -704t38.5 -644q-74 6 -152 6q-27 0 -82 -1t-84 -1q39 154 67.5 454t28.5 580q0 244 -26.5 374t-89.5 130q-26 0 -41 -27t-25 -112.5t-10 -239.5q0 -399 55 -1163q-73 6 -151 6
q-27 0 -82 -1t-84 -1q100 663 100 901q0 29 -1.5 49t-6 34.5t-8 22t-14.5 14t-17.5 9t-24 8t-28.5 9.5q-219 78 -219 375q0 59 9.5 107.5t25 82t39.5 58.5t49 40t57.5 24t61.5 12t63 3z" />
    <glyph glyph-name="periodcentered" unicode="&#xb7;" horiz-adv-x="419" 
d="M55 717q0 65 44 109t110 44q65 0 109 -44t44 -109q0 -66 -44 -110t-109 -44q-66 0 -110 44t-44 110z" />
    <glyph glyph-name="cedilla" unicode="&#xb8;" horiz-adv-x="405" 
d="M147 -522q0 2 3.5 21.5t3.5 35.5q0 57 -13.5 97.5t-32.5 62.5t-38.5 39.5t-33 41t-13.5 54.5q0 57 59.5 97.5t179.5 43.5q-49 -34 -49 -73q0 -25 17.5 -49t42.5 -44.5t50 -42t42.5 -50t17.5 -60.5q0 -61 -57 -108t-179 -66z" />
    <glyph glyph-name="onesuperior" unicode="&#xb9;" horiz-adv-x="409" 
d="M322 1466q-33 -149 -33 -329q0 -295 67 -502q-58 6 -118 6q-80 0 -160 -6q74 226 74 450q0 172 -74 172q-17 0 -45 -8q26 72 114.5 134.5t174.5 82.5z" />
    <glyph glyph-name="ordmasculine" unicode="&#xba;" horiz-adv-x="495" 
d="M254 1466q65 0 108.5 -45t60.5 -110.5t17 -147.5q0 -55 -8 -105.5t-27.5 -100t-58.5 -79.5t-94 -30q-57 0 -98 32.5t-61 84t-29 101.5t-9 99q0 53 11 103.5t33.5 96t62.5 73.5t92 28zM205 1161q0 -70 14 -116t37 -46q43 0 43 164q0 156 -43 156q-22 0 -36.5 -41
t-14.5 -117zM27 569q14 92 48.5 129t86.5 37q34 0 106 -19.5t105 -19.5q46 0 82 29q-30 -99 -68.5 -138.5t-87.5 -39.5q-33 0 -101.5 22.5t-101.5 22.5q-40 0 -69 -23z" />
    <glyph glyph-name="guillemotright" unicode="&#xbb;" horiz-adv-x="858" 
d="M444 524q-50 -32 -86.5 -60.5t-79.5 -74t-71 -94.5t-48.5 -119.5t-23.5 -152.5q-108 102 -108 243q0 158 127 279q-57 39 -92 133.5t-35 198.5q0 154 77 217q13 -92 49 -180.5t85 -160.5t100 -128t106 -101zM831 524q-50 -32 -86.5 -60.5t-79.5 -74t-71 -94.5
t-48.5 -119.5t-23.5 -152.5q-108 102 -108 243q0 158 127 279q-57 39 -92 133.5t-35 198.5q0 153 78 217q17 -120 75 -236t123.5 -194t140.5 -140z" />
    <glyph glyph-name="onequarter" unicode="&#xbc;" horiz-adv-x="1423" 
d="M375 1466q-33 -149 -33 -329q0 -292 68 -502q-58 6 -119 6q-80 0 -160 -6q74 226 74 450q0 172 -74 172q-17 0 -45 -8q26 72 114.5 134.5t174.5 82.5zM1120 1530q31 -60 31 -133q0 -145 -110.5 -332t-288.5 -373q-74 -77 -202 -195.5t-212.5 -197.5t-166 -185.5
t-112.5 -201.5q-4 16 -4 49q0 73 37.5 163t91 171.5t137 181.5t151 171t157.5 161q86 87 131 134t115 129t109.5 144.5t78 146t57.5 167.5zM1124 795q-18 -36 -36.5 -125t-18.5 -156q0 -84 35 -84q57 0 57 207q0 44 -8 160q83 -9 115 -9q48 0 100 9q-30 -73 -50 -217.5
t-20 -290.5q0 -161 31 -295q-153 10 -203 10q-30 0 -92 -4q96 135 96 281q-40 12 -92 12q-59 0 -141 -21q21 136 21 230q0 131 -29 289q37 -3 67 -3q33 0 93 3t75 4z" />
    <glyph glyph-name="onehalf" unicode="&#xbd;" horiz-adv-x="1335" 
d="M354 1466q-32 -145 -32 -329q0 -295 67 -502q-58 6 -119 6q-80 0 -159 -6q73 223 73 450q0 172 -73 172q-17 0 -45 -8q26 72 114 134.5t174 82.5zM1120 1530q31 -60 31 -133q0 -145 -110.5 -332t-288.5 -373q-74 -77 -202 -195.5t-212.5 -197.5t-166 -185.5
t-112.5 -201.5q-4 16 -4 49q0 73 37.5 163t91 171.5t137 181.5t151 171t157.5 161q86 87 131 134t115 129t109.5 144.5t78 146t57.5 167.5zM1208 303q37 -10 55.5 -49.5t18.5 -93.5q0 -77 -37 -125.5t-119 -48.5q-32 0 -104 13t-113 13q-49 0 -84 -12q-2 140 117 340
q59 103 83 156t24 90q0 55 -50 55q-53 0 -53 -68q0 -29 12 -65q-60 0 -93.5 36t-33.5 85q0 70 59 127t157 57q90 0 151.5 -53.5t61.5 -147.5q0 -51 -25.5 -106.5t-55.5 -95.5t-55.5 -89t-25.5 -88q0 -49 43 -49q67 0 67 119z" />
    <glyph glyph-name="threequarters" unicode="&#xbe;" horiz-adv-x="1427" 
d="M104 1460q107 -24 244 -24q91 0 160 10q-22 -216 -109 -313q58 -17 91.5 -76.5t33.5 -134.5q0 -72 -29 -136.5t-91 -108.5t-144 -44q-96 0 -146.5 54.5t-50.5 123.5q0 49 26.5 90t76.5 57q2 -54 21.5 -90.5t62.5 -36.5q41 0 74.5 36.5t33.5 93.5q0 43 -21 60.5
t-50.5 17.5h-59t-50.5 18.5t-21 62.5v17q6 0 21.5 -1t21.5 -1q44 0 77 35.5t33 78.5q0 27 -13.5 41.5t-35.5 14.5q-35 0 -72 -37.5t-61 -114.5q-45 62 -45 152q0 47 22 155zM1120 1530q31 -60 31 -133q0 -145 -110.5 -332t-288.5 -373q-74 -77 -202 -195.5t-212.5 -197.5
t-166 -185.5t-112.5 -201.5q-4 16 -4 49q0 73 37.5 163t91 171.5t137 181.5t151 171t157.5 161q86 87 131 134t115 129t109.5 144.5t78 146t57.5 167.5zM1128 795q-18 -36 -36.5 -125t-18.5 -156q0 -84 35 -84q57 0 57 207q0 44 -8 160q83 -9 115 -9q48 0 100 9
q-29 -73 -49 -217t-20 -291q0 -165 30 -295q-153 10 -203 10q-30 0 -92 -4q97 137 97 281q-40 12 -93 12q-59 0 -141 -21q21 136 21 230q0 131 -29 289q38 -3 68 -3q33 0 92 3t75 4z" />
    <glyph glyph-name="questiondown" unicode="&#xbf;" horiz-adv-x="874" 
d="M612 1014q0 -65 -44 -110.5t-109 -45.5q-63 0 -108.5 46t-45.5 110t45.5 108.5t108.5 44.5q66 0 109.5 -44t43.5 -109zM274 623q1 73 50 112t118 39q82 0 143.5 -54t61.5 -151q0 -141 -149 -293q-81 -82 -106 -116.5t-25 -71.5q0 -43 27.5 -63.5t70.5 -20.5q72 0 125 47
t53 109q0 48 -31 84q24 6 54 6q91 0 140.5 -58.5t49.5 -148.5q0 -66 -27 -131.5t-78 -122t-136 -92t-189 -35.5q-58 0 -113.5 10.5t-110.5 36.5t-96 65t-66.5 99.5t-25.5 136.5q0 64 16.5 118t49.5 97.5t58.5 68.5t66.5 60q66 56 97.5 85.5t58 70.5t26.5 78q0 53 -51 53
q-39 0 -62 -18z" />
    <glyph glyph-name="Agrave" unicode="&#xc0;" horiz-adv-x="1013" 
d="M1004 315q2 -14 2 -43q0 -118 -67.5 -201t-156.5 -83q-97 0 -170 96q-121 -107 -252 -107q-136 0 -226.5 108.5t-90.5 262.5q0 239 238 420q36 28 83.5 58.5t76 48.5t56.5 42.5t41 54.5t13 70q0 97 -88 97q-38 0 -71.5 -19.5t-56 -47t-43.5 -72t-33.5 -80.5t-27.5 -86
q-58 18 -90 79.5t-32 145.5q0 71 25.5 140.5t75 131t134.5 99.5t193 38q96 0 166 -30t108.5 -83.5t56 -116.5t17.5 -138q0 -77 -28 -296.5t-28 -307.5q0 -99 25 -155t74 -56q36 0 76 30zM541 639q-168 -141 -168 -256q0 -38 15.5 -58t41.5 -20q30 0 53 28t35.5 71.5
t18.5 87.5t6 83q0 15 -1 37t-1 27zM330 1866q120 0 209 -117q71 -89 118 -131.5t115 -71.5q-61 -61 -164 -61q-76 0 -129.5 36.5t-101.5 102.5q-69 93 -113 129.5t-104 42.5q70 70 170 70z" />
    <glyph glyph-name="Aacute" unicode="&#xc1;" horiz-adv-x="1013" 
d="M1004 315q2 -14 2 -43q0 -118 -67.5 -201t-156.5 -83q-97 0 -170 96q-121 -107 -252 -107q-136 0 -226.5 108.5t-90.5 262.5q0 239 238 420q36 28 83.5 58.5t76 48.5t56.5 42.5t41 54.5t13 70q0 97 -88 97q-38 0 -71.5 -19.5t-56 -47t-43.5 -72t-33.5 -80.5t-27.5 -86
q-58 18 -90 79.5t-32 145.5q0 71 25.5 140.5t75 131t134.5 99.5t193 38q96 0 166 -30t108.5 -83.5t56 -116.5t17.5 -138q0 -77 -28 -296.5t-28 -307.5q0 -99 25 -155t74 -56q36 0 76 30zM541 639q-168 -141 -168 -256q0 -38 15.5 -58t41.5 -20q30 0 53 28t35.5 71.5
t18.5 87.5t6 83q0 15 -1 37t-1 27zM692 1866q100 0 170 -70q-60 -6 -104 -42.5t-113 -129.5q-48 -66 -101.5 -102.5t-131.5 -36.5q-101 0 -162 61q68 29 115 71.5t118 131.5q44 58 93 87.5t116 29.5z" />
    <glyph glyph-name="Acircumflex" unicode="&#xc2;" horiz-adv-x="1013" 
d="M1004 315q2 -14 2 -43q0 -118 -67.5 -201t-156.5 -83q-97 0 -170 96q-121 -107 -252 -107q-136 0 -226.5 108.5t-90.5 262.5q0 239 238 420q36 28 83.5 58.5t76 48.5t56.5 42.5t41 54.5t13 70q0 97 -88 97q-38 0 -71.5 -19.5t-56 -47t-43.5 -72t-33.5 -80.5t-27.5 -86
q-58 18 -90 79.5t-32 145.5q0 71 25.5 140.5t75 131t134.5 99.5t193 38q96 0 166 -30t108.5 -83.5t56 -116.5t17.5 -138q0 -77 -28 -296.5t-28 -307.5q0 -99 25 -155t74 -56q36 0 76 30zM541 639q-168 -141 -168 -256q0 -38 15.5 -58t41.5 -20q30 0 53 28t35.5 71.5
t18.5 87.5t6 83q0 15 -1 37t-1 27zM543 1935q19 -47 35 -81.5t42 -74.5t54 -66t69 -45.5t88 -22.5q-60 -103 -141 -103q-88 0 -160 119q-23 -53 -77.5 -86t-112.5 -33q-90 0 -127 76q101 23 188 114.5t142 202.5z" />
    <glyph glyph-name="Atilde" unicode="&#xc3;" horiz-adv-x="1013" 
d="M1004 315q2 -14 2 -43q0 -118 -67.5 -201t-156.5 -83q-97 0 -170 96q-121 -107 -252 -107q-136 0 -226.5 108.5t-90.5 262.5q0 239 238 420q36 28 83.5 58.5t76 48.5t56.5 42.5t41 54.5t13 70q0 97 -88 97q-38 0 -71.5 -19.5t-56 -47t-43.5 -72t-33.5 -80.5t-27.5 -86
q-58 18 -90 79.5t-32 145.5q0 71 25.5 140.5t75 131t134.5 99.5t193 38q96 0 166 -30t108.5 -83.5t56 -116.5t17.5 -138q0 -77 -28 -296.5t-28 -307.5q0 -99 25 -155t74 -56q36 0 76 30zM541 639q-168 -141 -168 -256q0 -38 15.5 -58t41.5 -20q30 0 53 28t35.5 71.5
t18.5 87.5t6 83q0 15 -1 37t-1 27zM172 1546q25 129 80.5 180.5t138.5 51.5q53 0 171 -27t173 -27q77 0 133 37q-49 -136 -111 -190.5t-141 -54.5q-53 0 -165.5 32.5t-165.5 32.5q-68 0 -113 -35z" />
    <glyph glyph-name="Adieresis" unicode="&#xc4;" horiz-adv-x="1013" 
d="M1004 315q2 -14 2 -43q0 -118 -67.5 -201t-156.5 -83q-97 0 -170 96q-121 -107 -252 -107q-136 0 -226.5 108.5t-90.5 262.5q0 239 238 420q36 28 83.5 58.5t76 48.5t56.5 42.5t41 54.5t13 70q0 97 -88 97q-38 0 -71.5 -19.5t-56 -47t-43.5 -72t-33.5 -80.5t-27.5 -86
q-58 18 -90 79.5t-32 145.5q0 71 25.5 140.5t75 131t134.5 99.5t193 38q96 0 166 -30t108.5 -83.5t56 -116.5t17.5 -138q0 -77 -28 -296.5t-28 -307.5q0 -99 25 -155t74 -56q36 0 76 30zM541 639q-168 -141 -168 -256q0 -38 15.5 -58t41.5 -20q30 0 53 28t35.5 71.5
t18.5 87.5t6 83q0 15 -1 37t-1 27zM180 1700q0 65 41.5 109t102.5 44q60 0 102.5 -44.5t42.5 -108.5q0 -65 -42.5 -109.5t-102.5 -44.5q-62 0 -103 44t-41 110zM559 1700q0 65 41 109t102 44q60 0 102 -44.5t42 -108.5q0 -66 -42 -110t-102 -44q-61 0 -102 44t-41 110z" />
    <glyph glyph-name="Aring" unicode="&#xc5;" horiz-adv-x="1013" 
d="M1004 315q2 -14 2 -43q0 -118 -67.5 -201t-156.5 -83q-97 0 -170 96q-121 -107 -252 -107q-136 0 -226.5 108.5t-90.5 262.5q0 239 238 420q36 28 83.5 58.5t76 48.5t56.5 42.5t41 54.5t13 70q0 97 -88 97q-38 0 -71.5 -19.5t-56 -47t-43.5 -72t-33.5 -80.5t-27.5 -86
q-58 18 -90 79.5t-32 145.5q0 71 25.5 140.5t75 131t134.5 99.5t193 38q96 0 166 -30t108.5 -83.5t56 -116.5t17.5 -138q0 -77 -28 -296.5t-28 -307.5q0 -99 25 -155t74 -56q36 0 76 30zM541 639q-168 -141 -168 -256q0 -38 15.5 -58t41.5 -20q30 0 53 28t35.5 71.5
t18.5 87.5t6 83q0 15 -1 37t-1 27zM317 1675q0 82 56.5 139.5t138.5 57.5t139.5 -57.5t57.5 -139.5q0 -83 -57.5 -138.5t-139.5 -55.5t-138.5 55.5t-56.5 138.5zM453 1683q0 -26 16.5 -42.5t42.5 -16.5t43.5 16.5t17.5 42.5t-17.5 44t-43.5 18t-42.5 -17.5t-16.5 -44.5z" />
    <glyph glyph-name="AE" unicode="&#xc6;" horiz-adv-x="1359" 
d="M973 1487q61 0 112 -26.5t85.5 -69.5t61.5 -102t42.5 -118.5t25.5 -124.5t13.5 -115t3.5 -95q0 -84 -4 -121q-82 -6 -169 -37.5t-153.5 -89.5t-66.5 -125q0 -48 31.5 -76.5t76.5 -28.5q72 0 148.5 67t81.5 124q49 -21 49 -154q0 -75 -16.5 -145.5t-51.5 -135.5t-100 -105
t-152 -40q-187 0 -307 187q-68 -96 -142 -137.5t-163 -41.5q-107 0 -185 54t-114.5 136t-36.5 179q0 240 238 422q36 28 83.5 58.5t76 48.5t56.5 42.5t41 54.5t13 70q0 97 -88 97q-38 0 -71.5 -19.5t-56 -47t-43.5 -72t-33.5 -80.5t-27.5 -86q-58 18 -90 79.5t-32 145.5
q0 56 15 112t49 110t82.5 95t121 66.5t158.5 25.5q145 0 233 -71q87 90 205 90zM541 639q-168 -141 -168 -256q0 -38 15.5 -58t41.5 -20q30 0 53 28t35.5 71.5t18.5 87.5t6 83q0 15 -1 37t-1 27zM899 1073q-16 -47 -16 -149q0 -49 2 -72q73 62 121 88q6 18 6 49
q0 50 -16 94.5t-44 44.5q-18 0 -32 -18.5t-21 -36.5z" />
    <glyph glyph-name="Ccedilla" unicode="&#xc7;" horiz-adv-x="886" 
d="M600 842q43 71 43 153q0 63 -24 95t-60 32q-50 0 -91.5 -62t-64 -157t-22.5 -196q0 -150 47 -239t123 -89q63 0 105 49.5t49 146.5q66 -15 114.5 -76t48.5 -157q0 -66 -25 -130t-69.5 -116t-112.5 -84t-147 -32q-137 0 -242.5 98.5t-161 262.5t-55.5 364q0 119 20.5 231
t64 211t104.5 172.5t148 116.5t190 43q77 0 135.5 -24t92.5 -65.5t50.5 -92.5t16.5 -111q0 -137 -79 -228t-198 -116zM489 -522q0 2 3.5 21.5t3.5 35.5q0 57 -13.5 97.5t-33 62.5t-38.5 39.5t-32.5 41t-13.5 54.5q0 57 59.5 97.5t179.5 43.5q-49 -34 -49 -73q0 -25 17.5 -49
t42.5 -44.5t50 -42t42.5 -50t17.5 -60.5q0 -61 -57 -108t-179 -66z" />
    <glyph glyph-name="Egrave" unicode="&#xc8;" horiz-adv-x="868" 
d="M481 1487q61 0 112 -26.5t85.5 -69.5t61.5 -102t42.5 -118.5t25.5 -124.5t13.5 -115t3.5 -95q0 -84 -4 -121q-82 -6 -169 -37.5t-153.5 -89.5t-66.5 -125q0 -48 32 -76.5t77 -28.5q72 0 148 67t81 124q49 -21 49 -154q0 -59 -9.5 -115.5t-33 -113.5t-58.5 -100t-91.5 -70
t-126.5 -27q-83 0 -153 37t-118 99.5t-84 139.5t-56.5 164t-30 165t-9.5 149q0 95 16.5 197.5t52 204t84.5 182t122 130.5t157 50zM408 1073q-17 -52 -17 -149q0 -49 2 -72q73 62 121 88q6 18 6 49q0 50 -15.5 94.5t-43.5 44.5q-18 0 -32 -18.5t-21 -36.5zM297 1866
q120 0 209 -117q71 -89 118 -131.5t115 -71.5q-61 -61 -164 -61q-76 0 -129.5 36.5t-101.5 102.5q-69 93 -113 129.5t-104 42.5q70 70 170 70z" />
    <glyph glyph-name="Eacute" unicode="&#xc9;" horiz-adv-x="868" 
d="M481 1487q61 0 112 -26.5t85.5 -69.5t61.5 -102t42.5 -118.5t25.5 -124.5t13.5 -115t3.5 -95q0 -84 -4 -121q-82 -6 -169 -37.5t-153.5 -89.5t-66.5 -125q0 -48 32 -76.5t77 -28.5q72 0 148 67t81 124q49 -21 49 -154q0 -59 -9.5 -115.5t-33 -113.5t-58.5 -100t-91.5 -70
t-126.5 -27q-83 0 -153 37t-118 99.5t-84 139.5t-56.5 164t-30 165t-9.5 149q0 95 16.5 197.5t52 204t84.5 182t122 130.5t157 50zM408 1073q-17 -52 -17 -149q0 -49 2 -72q73 62 121 88q6 18 6 49q0 50 -15.5 94.5t-43.5 44.5q-18 0 -32 -18.5t-21 -36.5zM655 1866
q100 0 170 -70q-60 -6 -104 -42.5t-113 -129.5q-48 -66 -101.5 -102.5t-131.5 -36.5q-101 0 -162 61q68 29 115 71.5t118 131.5q44 58 93 87.5t116 29.5z" />
    <glyph glyph-name="Ecircumflex" unicode="&#xca;" horiz-adv-x="868" 
d="M481 1487q61 0 112 -26.5t85.5 -69.5t61.5 -102t42.5 -118.5t25.5 -124.5t13.5 -115t3.5 -95q0 -84 -4 -121q-82 -6 -169 -37.5t-153.5 -89.5t-66.5 -125q0 -48 32 -76.5t77 -28.5q72 0 148 67t81 124q49 -21 49 -154q0 -59 -9.5 -115.5t-33 -113.5t-58.5 -100t-91.5 -70
t-126.5 -27q-83 0 -153 37t-118 99.5t-84 139.5t-56.5 164t-30 165t-9.5 149q0 95 16.5 197.5t52 204t84.5 182t122 130.5t157 50zM408 1073q-17 -52 -17 -149q0 -49 2 -72q73 62 121 88q6 18 6 49q0 50 -15.5 94.5t-43.5 44.5q-18 0 -32 -18.5t-21 -36.5zM465 1935
q18 -47 34.5 -81.5t42.5 -74.5t54.5 -66t69.5 -45.5t88 -22.5q-60 -103 -142 -103q-87 0 -159 119q-23 -53 -77.5 -86t-113.5 -33q-90 0 -127 76q101 23 188 114.5t142 202.5z" />
    <glyph glyph-name="Edieresis" unicode="&#xcb;" horiz-adv-x="868" 
d="M481 1487q61 0 112 -26.5t85.5 -69.5t61.5 -102t42.5 -118.5t25.5 -124.5t13.5 -115t3.5 -95q0 -84 -4 -121q-82 -6 -169 -37.5t-153.5 -89.5t-66.5 -125q0 -48 32 -76.5t77 -28.5q72 0 148 67t81 124q49 -21 49 -154q0 -59 -9.5 -115.5t-33 -113.5t-58.5 -100t-91.5 -70
t-126.5 -27q-83 0 -153 37t-118 99.5t-84 139.5t-56.5 164t-30 165t-9.5 149q0 95 16.5 197.5t52 204t84.5 182t122 130.5t157 50zM408 1073q-17 -52 -17 -149q0 -49 2 -72q73 62 121 88q6 18 6 49q0 50 -15.5 94.5t-43.5 44.5q-18 0 -32 -18.5t-21 -36.5zM100 1700
q0 65 41.5 109t102.5 44q60 0 102.5 -44.5t42.5 -108.5q0 -65 -42.5 -109.5t-102.5 -44.5q-62 0 -103 44t-41 110zM479 1700q0 65 41.5 109t102.5 44q60 0 101.5 -44.5t41.5 -108.5q0 -66 -41.5 -110t-101.5 -44q-62 0 -103 44t-41 110z" />
    <glyph glyph-name="Igrave" unicode="&#xcc;" horiz-adv-x="606" 
d="M90 1446q178 -14 309 -14q97 0 146 4q-88 -254 -88 -637q0 -220 29.5 -431.5t84.5 -365.5q-95 6 -176 6q-120 0 -274 -16q65 349 65 665q0 390 -96 789zM135 1866q120 0 209 -117q70 -89 117.5 -131.5t116.5 -71.5q-61 -61 -164 -61q-77 0 -130.5 36.5t-101.5 102.5
q-69 93 -113 129.5t-104 42.5q70 70 170 70z" />
    <glyph glyph-name="Iacute" unicode="&#xcd;" horiz-adv-x="587" 
d="M39 1446q178 -14 309 -14q97 0 146 4q-88 -254 -88 -637q0 -220 29.5 -431.5t84.5 -365.5q-95 6 -176 6q-120 0 -274 -16q65 349 65 665q0 390 -96 789zM457 1866q100 0 170 -70q-60 -6 -104 -42.5t-113 -129.5q-48 -66 -102 -102.5t-132 -36.5q-101 0 -162 61
q69 29 116.5 71.5t117.5 131.5q44 58 93 87.5t116 29.5z" />
    <glyph glyph-name="Icircumflex" unicode="&#xce;" horiz-adv-x="555" 
d="M39 1446q178 -14 309 -14q97 0 146 4q-88 -254 -88 -637q0 -220 29.5 -431.5t84.5 -365.5q-95 6 -176 6q-120 0 -274 -16q65 349 65 665q0 390 -96 789zM299 1935q18 -47 34.5 -81.5t42.5 -74.5t54.5 -66t69.5 -45.5t88 -22.5q-60 -103 -142 -103q-87 0 -159 119
q-23 -53 -77.5 -86t-113.5 -33q-90 0 -127 76q101 23 188 114.5t142 202.5z" />
    <glyph glyph-name="Idieresis" unicode="&#xcf;" horiz-adv-x="600" 
d="M61 1446q178 -14 310 -14q96 0 145 4q-88 -254 -88 -637q0 -219 30 -430.5t85 -366.5q-95 6 -176 6q-121 0 -275 -16q66 355 66 665q0 386 -97 789zM-31 1700q0 65 41.5 109t102.5 44q60 0 102.5 -44.5t42.5 -108.5q0 -65 -42 -109.5t-103 -44.5q-62 0 -103 44t-41 110z
M348 1700q0 65 41.5 109t102.5 44q60 0 101.5 -44.5t41.5 -108.5q0 -66 -41.5 -110t-101.5 -44q-62 0 -103 44t-41 110z" />
    <glyph glyph-name="Eth" unicode="&#xd0;" horiz-adv-x="1036" 
d="M84 1468q91 -20 199.5 -29t176.5 -12t145.5 -28t139.5 -78q110 -93 173 -254.5t63 -366.5q0 -148 -35 -278t-106 -219q-51 -63 -120 -103t-149.5 -57.5t-153.5 -25.5t-166 -16.5t-153 -20.5q74 264 80 638q-75 0 -95 12.5t-20 61.5q0 63 24.5 96t88.5 33q-16 381 -92 647
zM655 623q0 109 -11.5 220.5t-43.5 205.5t-78 94q-17 0 -29.5 -11.5t-20.5 -34.5t-13 -47.5t-7 -61t-2.5 -62.5t-0.5 -64v-45q42 0 66 -0.5t45.5 -2.5t30.5 -5t15.5 -9.5t8 -14.5t1.5 -21q0 -59 -33 -91t-128 -38q21 -334 104 -334q44 0 70 84t26 238z" />
    <glyph glyph-name="Ntilde" unicode="&#xd1;" horiz-adv-x="1064" 
d="M500 1225q84 120 162 181.5t178 61.5q38 0 68.5 -10t59 -35.5t44.5 -77.5t16 -128q0 -74 -33.5 -346.5t-33.5 -432.5q0 -261 77 -432q-277 0 -493 -16q55 181 88 474t33 515q0 67 -6.5 91t-28.5 24q-27 0 -47 -25.5t-31 -54.5q-33 -83 -51.5 -260.5t-18.5 -339.5
q0 -158 25 -406q-219 -3 -430 -28q100 270 100 663q0 226 -39.5 431t-118.5 351q232 58 359 58q82 0 111.5 -29.5t29.5 -93.5q0 -52 -20 -135zM248 1546q25 129 80.5 180.5t138.5 51.5q53 0 171 -27t173 -27q77 0 133 37q-49 -136 -111 -190.5t-141 -54.5q-53 0 -166 32.5
t-166 32.5q-67 0 -112 -35z" />
    <glyph glyph-name="Ograve" unicode="&#xd2;" horiz-adv-x="976" 
d="M500 1483q89 0 162 -43.5t120.5 -115.5t79.5 -169t46 -199.5t14 -212.5q0 -80 -8 -161t-25 -171t-49.5 -166t-77 -139t-111.5 -99t-149 -36q-75 0 -138.5 31.5t-108.5 82.5t-80.5 121t-57.5 142.5t-36.5 151t-20 143t-5.5 121.5q0 92 14.5 187t48.5 191.5t84 171.5
t127 122t171 47zM389 735q0 -177 29 -285t80 -108q98 0 98 416q0 194 -22 284.5t-68 90.5q-50 0 -83.5 -102.5t-33.5 -295.5zM309 1866q120 0 209 -117q70 -89 117.5 -131.5t116.5 -71.5q-61 -61 -164 -61q-77 0 -130.5 36.5t-101.5 102.5q-69 93 -113 129.5t-104 42.5
q70 70 170 70z" />
    <glyph glyph-name="Oacute" unicode="&#xd3;" horiz-adv-x="976" 
d="M500 1483q89 0 162 -43.5t120.5 -115.5t79.5 -169t46 -199.5t14 -212.5q0 -80 -8 -161t-25 -171t-49.5 -166t-77 -139t-111.5 -99t-149 -36q-75 0 -138.5 31.5t-108.5 82.5t-80.5 121t-57.5 142.5t-36.5 151t-20 143t-5.5 121.5q0 92 14.5 187t48.5 191.5t84 171.5
t127 122t171 47zM389 735q0 -177 29 -285t80 -108q98 0 98 416q0 194 -22 284.5t-68 90.5q-50 0 -83.5 -102.5t-33.5 -295.5zM666 1866q100 0 170 -70q-60 -6 -104.5 -43t-113.5 -129q-48 -66 -101.5 -102.5t-131.5 -36.5q-101 0 -162 61q69 29 116.5 71.5t117.5 131.5
q44 58 93 87.5t116 29.5z" />
    <glyph glyph-name="Ocircumflex" unicode="&#xd4;" horiz-adv-x="976" 
d="M500 1483q89 0 162 -43.5t120.5 -115.5t79.5 -169t46 -199.5t14 -212.5q0 -80 -8 -161t-25 -171t-49.5 -166t-77 -139t-111.5 -99t-149 -36q-75 0 -138.5 31.5t-108.5 82.5t-80.5 121t-57.5 142.5t-36.5 151t-20 143t-5.5 121.5q0 92 14.5 187t48.5 191.5t84 171.5
t127 122t171 47zM389 735q0 -177 29 -285t80 -108q98 0 98 416q0 194 -22 284.5t-68 90.5q-50 0 -83.5 -102.5t-33.5 -295.5zM510 1935q18 -47 34.5 -81.5t42.5 -74.5t54.5 -66t69.5 -45.5t88 -22.5q-60 -103 -142 -103q-87 0 -159 119q-23 -53 -77.5 -86t-113.5 -33
q-90 0 -127 76q101 23 188 114.5t142 202.5z" />
    <glyph glyph-name="Otilde" unicode="&#xd5;" horiz-adv-x="976" 
d="M500 1483q89 0 162 -43.5t120.5 -115.5t79.5 -169t46 -199.5t14 -212.5q0 -80 -8 -161t-25 -171t-49.5 -166t-77 -139t-111.5 -99t-149 -36q-75 0 -138.5 31.5t-108.5 82.5t-80.5 121t-57.5 142.5t-36.5 151t-20 143t-5.5 121.5q0 92 14.5 187t48.5 191.5t84 171.5
t127 122t171 47zM389 735q0 -177 29 -285t80 -108q98 0 98 416q0 194 -22 284.5t-68 90.5q-50 0 -83.5 -102.5t-33.5 -295.5zM139 1546q25 129 80.5 180.5t138.5 51.5q53 0 171 -27t173 -27q78 0 134 37q-49 -136 -111 -190.5t-141 -54.5q-53 0 -166 32.5t-166 32.5
q-68 0 -113 -35z" />
    <glyph glyph-name="Odieresis" unicode="&#xd6;" horiz-adv-x="976" 
d="M500 1483q89 0 162 -43.5t120.5 -115.5t79.5 -169t46 -199.5t14 -212.5q0 -80 -8 -161t-25 -171t-49.5 -166t-77 -139t-111.5 -99t-149 -36q-75 0 -138.5 31.5t-108.5 82.5t-80.5 121t-57.5 142.5t-36.5 151t-20 143t-5.5 121.5q0 92 14.5 187t48.5 191.5t84 171.5
t127 122t171 47zM389 735q0 -177 29 -285t80 -108q98 0 98 416q0 194 -22 284.5t-68 90.5q-50 0 -83.5 -102.5t-33.5 -295.5zM154 1700q0 65 41 109t102 44q60 0 102.5 -44.5t42.5 -108.5q0 -65 -42 -109.5t-103 -44.5t-102 44t-41 110zM532 1700q0 65 41.5 109t102.5 44
q60 0 101.5 -44.5t41.5 -108.5q0 -66 -41.5 -110t-101.5 -44q-62 0 -103 44t-41 110z" />
    <glyph glyph-name="multiply" unicode="&#xd7;" 
d="M451 748q-136 136 -200.5 203.5t-76.5 83.5t-12 26q0 37 49.5 67.5t95.5 30.5q9 0 22.5 -9.5t78 -71t188.5 -185.5q20 20 71 71.5t75.5 74.5t62.5 55t66 45.5t53 13.5q43 0 65.5 -37.5t22.5 -66.5q0 -18 -16.5 -44t-48 -58.5t-62.5 -62t-74.5 -70t-69.5 -66.5
q135 -135 200.5 -203.5t77 -84t11.5 -24.5q0 -39 -51.5 -70.5t-83.5 -31.5q-28 0 -83 49t-125.5 125t-90.5 94q-138 -137 -204 -200t-82.5 -76t-24.5 -13q-38 0 -69.5 48.5t-31.5 93.5q0 10 10.5 25t71 79t185.5 189z" />
    <glyph glyph-name="Oslash" unicode="&#xd8;" horiz-adv-x="976" 
d="M813 1522q59 -130 59 -260q0 -39 -8 -109q58 -186 58 -410q0 -80 -8 -161t-25 -171t-49.5 -166t-77 -139t-111.5 -99t-149 -36q-176 0 -293 172q-55 -93 -94 -202q-11 75 -11 125q0 119 33 225q-42 112 -62 240.5t-20 232.5q0 92 14.5 187t48.5 191.5t84 171.5t127 122
t171 47q156 0 260 -129q27 69 53 168zM371 735v-4l221 305q-26 105 -84 105q-59 0 -98 -103.5t-39 -302.5zM500 334q99 0 112 321l-198 -245q36 -76 86 -76z" />
    <glyph glyph-name="Ugrave" unicode="&#xd9;" horiz-adv-x="1028" 
d="M20 1473q174 -29 259 -29q75 0 141 14q0 -4 -9 -110.5t-16 -199t-13.5 -230.5t-6.5 -246q0 -181 20 -259.5t66 -78.5q44 0 61 71.5t17 256.5q0 211 -18 441.5t-44 364.5q156 -24 314 -24q65 0 102 2q-53 -207 -53 -647q0 -70 1.5 -123.5t5.5 -113.5t12.5 -102.5
t21.5 -78.5t33.5 -54t46.5 -18q25 0 55 27q12 -52 12 -96q0 -107 -61.5 -171.5t-143.5 -64.5q-55 0 -101.5 29.5t-76.5 87.5q-50 -73 -112.5 -104t-143.5 -31q-172 0 -258 122.5t-86 356.5q0 78 15.5 247t15.5 273q0 243 -56 488zM289 1866q120 0 209 -117
q71 -89 118 -131.5t115 -71.5q-61 -61 -164 -61q-76 0 -129.5 36.5t-101.5 102.5q-69 93 -113 129.5t-104 42.5q70 70 170 70z" />
    <glyph glyph-name="Uacute" unicode="&#xda;" horiz-adv-x="1028" 
d="M20 1473q174 -29 259 -29q75 0 141 14q0 -4 -9 -110.5t-16 -199t-13.5 -230.5t-6.5 -246q0 -181 20 -259.5t66 -78.5q44 0 61 71.5t17 256.5q0 211 -18 441.5t-44 364.5q156 -24 314 -24q65 0 102 2q-53 -207 -53 -647q0 -70 1.5 -123.5t5.5 -113.5t12.5 -102.5
t21.5 -78.5t33.5 -54t46.5 -18q25 0 55 27q12 -52 12 -96q0 -107 -61.5 -171.5t-143.5 -64.5q-55 0 -101.5 29.5t-76.5 87.5q-50 -73 -112.5 -104t-143.5 -31q-172 0 -258 122.5t-86 356.5q0 78 15.5 247t15.5 273q0 243 -56 488zM692 1866q100 0 170 -70q-60 -6 -104 -42.5
t-113 -129.5q-48 -66 -101.5 -102.5t-131.5 -36.5q-101 0 -162 61q68 29 115 71.5t118 131.5q44 58 93 87.5t116 29.5z" />
    <glyph glyph-name="Ucircumflex" unicode="&#xdb;" horiz-adv-x="1028" 
d="M20 1473q174 -29 259 -29q75 0 141 14q0 -4 -9 -110.5t-16 -199t-13.5 -230.5t-6.5 -246q0 -181 20 -259.5t66 -78.5q44 0 61 71.5t17 256.5q0 211 -18 441.5t-44 364.5q156 -24 314 -24q65 0 102 2q-53 -207 -53 -647q0 -70 1.5 -123.5t5.5 -113.5t12.5 -102.5
t21.5 -78.5t33.5 -54t46.5 -18q25 0 55 27q12 -52 12 -96q0 -107 -61.5 -171.5t-143.5 -64.5q-55 0 -101.5 29.5t-76.5 87.5q-50 -73 -112.5 -104t-143.5 -31q-172 0 -258 122.5t-86 356.5q0 78 15.5 247t15.5 273q0 243 -56 488zM496 1935q19 -47 35 -81.5t42 -74.5t54 -66
t69 -45.5t88 -22.5q-60 -103 -141 -103q-88 0 -160 119q-23 -53 -77.5 -86t-112.5 -33q-90 0 -127 76q101 23 188 114.5t142 202.5z" />
    <glyph glyph-name="Udieresis" unicode="&#xdc;" horiz-adv-x="1028" 
d="M20 1473q174 -29 259 -29q75 0 141 14q0 -4 -9 -110.5t-16 -199t-13.5 -230.5t-6.5 -246q0 -181 20 -259.5t66 -78.5q44 0 61 71.5t17 256.5q0 211 -18 441.5t-44 364.5q156 -24 314 -24q65 0 102 2q-53 -207 -53 -647q0 -70 1.5 -123.5t5.5 -113.5t12.5 -102.5
t21.5 -78.5t33.5 -54t46.5 -18q25 0 55 27q12 -52 12 -96q0 -107 -61.5 -171.5t-143.5 -64.5q-55 0 -101.5 29.5t-76.5 87.5q-50 -73 -112.5 -104t-143.5 -31q-172 0 -258 122.5t-86 356.5q0 78 15.5 247t15.5 273q0 243 -56 488zM125 1700q0 65 41 109t102 44
q60 0 103 -44.5t43 -108.5q0 -65 -42.5 -109.5t-103.5 -44.5t-102 44t-41 110zM504 1700q0 65 41 109t102 44q60 0 102 -44.5t42 -108.5q0 -66 -42 -110t-102 -44q-61 0 -102 44t-41 110z" />
    <glyph glyph-name="Yacute" unicode="&#xdd;" horiz-adv-x="987" 
d="M166 1501q34 21 74 21q59 0 103 -37.5t63.5 -88t19.5 -102.5t-33 -179t-33 -171q0 -67 42 -111.5t94 -44.5q41 0 68.5 31.5t37.5 69.5t10 76q0 36 -19.5 136.5t-19.5 149.5q0 36 8 69.5t25 64t49.5 49t75.5 18.5q73 0 103 -49q-32 0 -46 -22t-14 -52q0 -75 78 -180
q54 -71 77 -124.5t23 -143.5q0 -112 -39.5 -177.5t-115.5 -105.5q-41 -22 -60 -32.5t-50 -30.5t-45.5 -35.5t-30.5 -38t-22.5 -49t-6.5 -58.5q0 -136 147 -372q-147 18 -303 18q-125 0 -248 -12q172 233 172 383q0 37 -8.5 65.5t-33 58.5t-48.5 52t-74 63
q-82 68 -116.5 138.5t-34.5 187.5q0 74 18 133.5t72 147.5q31 51 44.5 75t28.5 62.5t15 66.5q0 64 -47 80zM797 1866q100 0 170 -70q-60 -6 -104 -42.5t-113 -129.5q-48 -66 -102 -102.5t-132 -36.5q-101 0 -162 61q69 29 116.5 71.5t117.5 131.5q44 58 93 87.5t116 29.5z
" />
    <glyph glyph-name="Thorn" unicode="&#xde;" horiz-adv-x="942" 
d="M39 1446q178 -14 309 -14q97 0 146 4q-34 -96 -50 -191q75 -2 135.5 -12t124 -37.5t106 -71.5t70 -120t27.5 -177t-27 -181.5t-69.5 -133.5t-105.5 -92t-125.5 -60t-137.5 -34q27 -182 78 -324q-95 6 -176 6q-120 0 -274 -16q65 349 65 665q0 390 -96 789zM428 561
q75 22 113.5 85.5t38.5 144.5q0 64 -21.5 108.5t-52.5 44.5q-39 0 -61.5 -66.5t-22.5 -136.5q0 -121 6 -180z" />
    <glyph glyph-name="germandbls" unicode="&#xdf;" horiz-adv-x="1024" 
d="M680 827q101 -35 171 -112.5t100 -171.5t30 -201q0 -101 -27 -184.5t-87 -138t-144 -54.5q-79 0 -140 44.5t-90.5 107.5t-29.5 129q0 69 41 110q23 -92 90 -92q41 0 63.5 39.5t22.5 102.5q0 53 -15.5 99.5t-47 85t-85.5 61t-124 22.5q38 71 65 162t27 174q0 108 -43 108
q-31 0 -51.5 -58t-27.5 -131.5t-7 -156.5q0 -215 47 -465.5t114 -322.5q-153 14 -329 14q-109 0 -164 -2q32 107 47.5 290.5t15.5 311.5q0 68 -9 208t-9 208q0 99 18.5 180t59.5 149.5t115.5 107t177.5 38.5q141 0 229 -109.5t88 -269.5q0 -149 -92 -283z" />
    <glyph glyph-name="agrave" unicode="&#xe0;" horiz-adv-x="808" 
d="M772 440q33 -73 33 -164q0 -116 -50.5 -199t-133.5 -83q-89 0 -136 86q-70 -96 -188 -96q-112 0 -187 91.5t-75 213.5q0 62 22.5 111.5t58 81.5t78.5 57.5t86.5 44.5t79 37.5t58 42.5t22.5 53q0 63 -88 63q-77 0 -145 -53t-119 -129q-18 70 -18 123q0 180 91.5 279.5
t231.5 99.5q135 0 214 -92.5t79 -223.5q0 -42 -14.5 -139t-14.5 -145q0 -66 17 -102t41 -36q18 0 33 20.5t24 57.5zM301 311q0 -45 39 -45q33 0 59.5 38t39 90.5t12.5 103.5q-150 -101 -150 -187zM229 1503q120 0 209 -117q70 -88 117.5 -130.5t116.5 -71.5
q-62 -62 -164 -62q-76 0 -130 37t-102 103q-69 93 -113 129.5t-104 42.5q69 69 170 69z" />
    <glyph glyph-name="aacute" unicode="&#xe1;" horiz-adv-x="808" 
d="M772 440q33 -73 33 -164q0 -116 -50.5 -199t-133.5 -83q-89 0 -136 86q-70 -96 -188 -96q-112 0 -187 91.5t-75 213.5q0 62 22.5 111.5t58 81.5t78.5 57.5t86.5 44.5t79 37.5t58 42.5t22.5 53q0 63 -88 63q-77 0 -145 -53t-119 -129q-18 70 -18 123q0 180 91.5 279.5
t231.5 99.5q135 0 214 -92.5t79 -223.5q0 -42 -14.5 -139t-14.5 -145q0 -66 17 -102t41 -36q18 0 33 20.5t24 57.5zM301 311q0 -45 39 -45q33 0 59.5 38t39 90.5t12.5 103.5q-150 -101 -150 -187zM578 1503q101 0 170 -69q-60 -6 -104.5 -43t-113.5 -129
q-48 -67 -101.5 -103.5t-131.5 -36.5q-100 0 -162 62q69 29 116.5 71.5t117.5 130.5q44 58 93 87.5t116 29.5z" />
    <glyph glyph-name="acircumflex" unicode="&#xe2;" horiz-adv-x="808" 
d="M772 440q33 -73 33 -164q0 -116 -50.5 -199t-133.5 -83q-89 0 -136 86q-70 -96 -188 -96q-112 0 -187 91.5t-75 213.5q0 62 22.5 111.5t58 81.5t78.5 57.5t86.5 44.5t79 37.5t58 42.5t22.5 53q0 63 -88 63q-77 0 -145 -53t-119 -129q-18 70 -18 123q0 180 91.5 279.5
t231.5 99.5q135 0 214 -92.5t79 -223.5q0 -42 -14.5 -139t-14.5 -145q0 -66 17 -102t41 -36q18 0 33 20.5t24 57.5zM301 311q0 -45 39 -45q33 0 59.5 38t39 90.5t12.5 103.5q-150 -101 -150 -187zM412 1573q19 -47 35 -81.5t42 -75t54 -66.5t69 -45.5t88 -22.5
q-60 -102 -141 -102q-89 0 -160 118q-23 -53 -77 -85.5t-113 -32.5q-90 0 -127 75q101 23 188 114.5t142 203.5z" />
    <glyph glyph-name="atilde" unicode="&#xe3;" horiz-adv-x="808" 
d="M772 440q33 -73 33 -164q0 -116 -50.5 -199t-133.5 -83q-89 0 -136 86q-70 -96 -188 -96q-112 0 -187 91.5t-75 213.5q0 62 22.5 111.5t58 81.5t78.5 57.5t86.5 44.5t79 37.5t58 42.5t22.5 53q0 63 -88 63q-77 0 -145 -53t-119 -129q-18 70 -18 123q0 180 91.5 279.5
t231.5 99.5q135 0 214 -92.5t79 -223.5q0 -42 -14.5 -139t-14.5 -145q0 -66 17 -102t41 -36q18 0 33 20.5t24 57.5zM301 311q0 -45 39 -45q33 0 59.5 38t39 90.5t12.5 103.5q-150 -101 -150 -187zM57 1184q25 129 80.5 180t138.5 51q53 0 171.5 -26.5t173.5 -26.5
q77 0 133 37q-49 -136 -111 -191t-141 -55q-53 0 -166 33t-166 33q-68 0 -113 -35z" />
    <glyph glyph-name="adieresis" unicode="&#xe4;" horiz-adv-x="808" 
d="M772 440q33 -73 33 -164q0 -116 -50.5 -199t-133.5 -83q-89 0 -136 86q-70 -96 -188 -96q-112 0 -187 91.5t-75 213.5q0 62 22.5 111.5t58 81.5t78.5 57.5t86.5 44.5t79 37.5t58 42.5t22.5 53q0 63 -88 63q-77 0 -145 -53t-119 -129q-18 70 -18 123q0 180 91.5 279.5
t231.5 99.5q135 0 214 -92.5t79 -223.5q0 -42 -14.5 -139t-14.5 -145q0 -66 17 -102t41 -36q18 0 33 20.5t24 57.5zM301 311q0 -45 39 -45q33 0 59.5 38t39 90.5t12.5 103.5q-150 -101 -150 -187zM61 1337q0 65 41.5 109.5t102.5 44.5q60 0 102.5 -45t42.5 -109
q0 -65 -42 -109t-103 -44q-62 0 -103 43.5t-41 109.5zM440 1337q0 65 41.5 109.5t102.5 44.5q60 0 101.5 -44.5t41.5 -109.5q0 -66 -41.5 -109.5t-101.5 -43.5q-62 0 -103 43.5t-41 109.5z" />
    <glyph glyph-name="aring" unicode="&#xe5;" horiz-adv-x="808" 
d="M772 440q33 -73 33 -164q0 -116 -50.5 -199t-133.5 -83q-89 0 -136 86q-70 -96 -188 -96q-112 0 -187 91.5t-75 213.5q0 62 22.5 111.5t58 81.5t78.5 57.5t86.5 44.5t79 37.5t58 42.5t22.5 53q0 63 -88 63q-77 0 -145 -53t-119 -129q-18 70 -18 123q0 180 91.5 279.5
t231.5 99.5q135 0 214 -92.5t79 -223.5q0 -42 -14.5 -139t-14.5 -145q0 -66 17 -102t41 -36q18 0 33 20.5t24 57.5zM301 311q0 -45 39 -45q33 0 59.5 38t39 90.5t12.5 103.5q-150 -101 -150 -187zM193 1313q0 82 56 139t138 57t139.5 -57t57.5 -139q0 -83 -57.5 -139
t-139.5 -56t-138 56t-56 139zM328 1321q0 -26 16.5 -42.5t42.5 -16.5q27 0 44.5 16.5t17.5 42.5t-18 43.5t-44 17.5t-42.5 -17.5t-16.5 -43.5z" />
    <glyph glyph-name="ae" unicode="&#xe6;" horiz-adv-x="1097" 
d="M780 1110q60 0 108 -26t78 -70.5t51 -95t31.5 -108t14.5 -101t4 -82.5q0 -63 -4 -90q-66 -4 -138 -27.5t-127 -66.5t-55 -93q0 -35 27.5 -55.5t63.5 -20.5q60 0 122.5 52.5t67.5 97.5q41 -44 41 -137q0 -134 -72 -217.5t-198 -83.5q-163 0 -256 145q-97 -147 -242 -147
q-112 0 -187 91.5t-75 213.5q0 62 22.5 111.5t58 81.5t78.5 57.5t86.5 44.5t79 37.5t58 42.5t22.5 53q0 63 -88 63q-77 0 -145 -53t-119 -129q-18 70 -18 123q0 180 91.5 279.5t231.5 99.5q120 0 199 -76q80 86 188 86zM721 700q0 -39 2 -53q56 46 100 68q7 137 -45 137
q-57 0 -57 -152zM301 311q0 -45 39 -45q33 0 59.5 38t39 90.5t12.5 103.5q-150 -101 -150 -187z" />
    <glyph glyph-name="ccedilla" unicode="&#xe7;" horiz-adv-x="765" 
d="M502 666q6 27 6 61q0 61 -21 100t-57 39q-52 0 -84.5 -74t-32.5 -194q0 -149 49 -226t119 -77q57 0 92.5 54.5t38.5 162.5q57 -19 87 -78.5t30 -136.5q0 -141 -93 -226t-222 -85q-118 0 -206 80.5t-131.5 209t-43.5 283.5q0 104 21.5 199.5t64 176t117 129t170.5 48.5
q124 0 197 -73.5t73 -186.5q0 -95 -51 -140.5t-123 -45.5zM336 -522q6 54 6 57q0 57 -13.5 97.5t-33 62.5t-38.5 39.5t-32.5 41t-13.5 54.5q0 57 60 97.5t180 43.5q-50 -35 -50 -73q0 -25 17.5 -49t42.5 -44.5t50 -42t42.5 -50t17.5 -60.5q0 -61 -56.5 -108t-178.5 -66z" />
    <glyph glyph-name="egrave" unicode="&#xe8;" horiz-adv-x="704" 
d="M387 1110q60 0 108 -26t78 -70.5t51 -95t31.5 -108t14.5 -101t4 -82.5q0 -63 -4 -90q-66 -4 -138 -27.5t-127 -66.5t-55 -93q0 -35 27 -55.5t63 -20.5q60 0 123 52.5t68 97.5q41 -44 41 -137q0 -134 -72.5 -217.5t-198.5 -83.5q-77 0 -139.5 35t-102.5 91t-67 130
t-38 148.5t-11 150.5q0 103 22 202.5t63 182t108.5 133.5t150.5 51zM328 700q0 -39 2 -53q56 46 100 68q7 137 -45 137q-57 0 -57 -152zM203 1503q120 0 209 -117q70 -89 117 -131t116 -71q-62 -62 -164 -62q-76 0 -129.5 36.5t-101.5 103.5q-69 93 -113 129.5t-104 42.5
q69 69 170 69z" />
    <glyph glyph-name="eacute" unicode="&#xe9;" horiz-adv-x="704" 
d="M387 1110q60 0 108 -26t78 -70.5t51 -95t31.5 -108t14.5 -101t4 -82.5q0 -63 -4 -90q-66 -4 -138 -27.5t-127 -66.5t-55 -93q0 -35 27 -55.5t63 -20.5q60 0 123 52.5t68 97.5q41 -44 41 -137q0 -134 -72.5 -217.5t-198.5 -83.5q-77 0 -139.5 35t-102.5 91t-67 130
t-38 148.5t-11 150.5q0 103 22 202.5t63 182t108.5 133.5t150.5 51zM328 700q0 -39 2 -53q56 46 100 68q7 137 -45 137q-57 0 -57 -152zM514 1503q101 0 170 -69q-60 -6 -104 -42.5t-113 -129.5q-48 -66 -102 -103t-132 -37q-99 0 -161 62q69 29 116 71t117 131
q44 58 93 87.5t116 29.5z" />
    <glyph glyph-name="ecircumflex" unicode="&#xea;" horiz-adv-x="704" 
d="M387 1110q60 0 108 -26t78 -70.5t51 -95t31.5 -108t14.5 -101t4 -82.5q0 -63 -4 -90q-66 -4 -138 -27.5t-127 -66.5t-55 -93q0 -35 27 -55.5t63 -20.5q60 0 123 52.5t68 97.5q41 -44 41 -137q0 -134 -72.5 -217.5t-198.5 -83.5q-77 0 -139.5 35t-102.5 91t-67 130
t-38 148.5t-11 150.5q0 103 22 202.5t63 182t108.5 133.5t150.5 51zM328 700q0 -39 2 -53q56 46 100 68q7 137 -45 137q-57 0 -57 -152zM389 1573q24 -60 46 -102.5t56 -87.5t81 -71t106 -30q-60 -102 -141 -102q-89 0 -160 118q-23 -53 -77.5 -85.5t-113.5 -32.5
q-90 0 -127 75q101 23 188 114.5t142 203.5z" />
    <glyph glyph-name="edieresis" unicode="&#xeb;" horiz-adv-x="704" 
d="M387 1110q60 0 108 -26t78 -70.5t51 -95t31.5 -108t14.5 -101t4 -82.5q0 -63 -4 -90q-66 -4 -138 -27.5t-127 -66.5t-55 -93q0 -35 27 -55.5t63 -20.5q60 0 123 52.5t68 97.5q41 -44 41 -137q0 -134 -72.5 -217.5t-198.5 -83.5q-77 0 -139.5 35t-102.5 91t-67 130
t-38 148.5t-11 150.5q0 103 22 202.5t63 182t108.5 133.5t150.5 51zM328 700q0 -39 2 -53q56 46 100 68q7 137 -45 137q-57 0 -57 -152zM41 1337q0 65 41 109.5t102 44.5q60 0 103 -45t43 -109q0 -65 -42.5 -109t-103.5 -44q-62 0 -102.5 43.5t-40.5 109.5zM420 1337
q0 65 41 109.5t102 44.5q60 0 102 -45t42 -109q0 -65 -42 -109t-102 -44q-62 0 -102.5 43.5t-40.5 109.5z" />
    <glyph glyph-name="igrave" unicode="&#xec;" horiz-adv-x="632" 
d="M127 1014q85 63 217 63t185 -66t53 -186q0 -74 -26 -248t-26 -253q0 -127 17 -193.5t61 -140.5q-86 8 -217 8q-117 0 -219 -10q47 92 74.5 249t27.5 318q0 180 -36.5 305.5t-110.5 153.5zM170 1503q120 0 209 -117q70 -89 117 -131t116 -71q-62 -62 -163 -62
q-76 0 -130 37t-102 103q-69 93 -113 129.5t-104 42.5q69 69 170 69z" />
    <glyph glyph-name="iacute" unicode="&#xed;" horiz-adv-x="632" 
d="M20 1014q85 63 218 63q132 0 184.5 -66t52.5 -186q0 -74 -25.5 -248t-25.5 -253q0 -127 17 -193.5t61 -140.5q-86 8 -217 8q-117 0 -219 -10q47 92 74.5 249t27.5 318q0 180 -37 305.5t-111 153.5zM463 1503q101 0 170 -69q-60 -6 -104 -42.5t-113 -129.5
q-48 -66 -102 -103t-132 -37q-100 0 -162 62q69 29 116.5 71.5t117.5 130.5q44 58 93 87.5t116 29.5z" />
    <glyph glyph-name="icircumflex" unicode="&#xee;" horiz-adv-x="618" 
d="M66 1014q85 63 217 63t184.5 -66t52.5 -186q0 -74 -25.5 -248t-25.5 -253q0 -127 17 -193.5t61 -140.5q-86 8 -217 8q-117 0 -219 -10q47 92 74.5 249t27.5 318q0 180 -36.5 305.5t-110.5 153.5zM330 1573q19 -47 35 -81.5t42 -75t54 -66.5t69 -45.5t88 -22.5
q-60 -102 -141 -102q-89 0 -160 118q-23 -53 -77 -85.5t-113 -32.5q-90 0 -127 75q101 23 188 114.5t142 203.5z" />
    <glyph glyph-name="idieresis" unicode="&#xef;" horiz-adv-x="679" 
d="M98 1014q85 63 217 63t185 -66t53 -186q0 -74 -25.5 -248t-25.5 -253q0 -127 17 -193.5t61 -140.5q-86 8 -218 8q-117 0 -219 -10q47 93 75 250t28 317q0 180 -37 305.5t-111 153.5zM6 1337q0 65 41.5 109.5t102.5 44.5q60 0 102.5 -45t42.5 -109q0 -65 -42 -109
t-103 -44q-62 0 -103 43.5t-41 109.5zM385 1337q0 65 41 109.5t102 44.5q60 0 102 -45t42 -109q0 -65 -42 -109t-102 -44q-62 0 -102.5 43.5t-40.5 109.5z" />
    <glyph glyph-name="eth" unicode="&#xf0;" horiz-adv-x="851" 
d="M741 1599q31 -81 31 -145q0 -72 -31.5 -134.5t-93.5 -100.5q63 -141 106.5 -331t43.5 -356q0 -161 -41 -276q-17 -52 -43 -98t-63.5 -88.5t-91.5 -67.5t-116 -25q-89 0 -167 49t-128 126q-92 139 -92 354q0 129 33 237.5t97.5 176t148.5 67.5q124 0 198 -139
q-3 287 -120 287q-66 0 -181 -97q11 129 117 254q-129 80 -293 80q34 49 89.5 72.5t109.5 23.5q60 0 153.5 -36.5t124.5 -36.5q62 0 118 62t91 142zM510 502q0 103 -27 191.5t-71 88.5q-37 0 -56.5 -69t-19.5 -178q0 -118 22 -200.5t68 -82.5q23 0 40.5 25.5t26.5 66
t13 80.5t4 78z" />
    <glyph glyph-name="ntilde" unicode="&#xf1;" horiz-adv-x="870" 
d="M27 1014q44 33 116.5 59.5t130.5 26.5q62 0 97 -32.5t35 -96.5q0 -6 -11 -86q51 103 107.5 161t136.5 58q63 0 101 -40t51.5 -100.5t13.5 -148.5q0 -70 -13.5 -261t-13.5 -263q0 -161 47 -279q-235 -7 -360 -18q21 145 35 332t14 301q0 65 -8.5 99t-32.5 34
q-43 0 -64.5 -94t-21.5 -238q0 -96 8.5 -231t14.5 -185q-230 0 -342 -22q14 98 27.5 269.5t13.5 332.5q0 361 -82 422zM84 1184q25 129 80.5 180t138.5 51q53 0 171 -26.5t173 -26.5q77 0 133 37q-49 -136 -111 -191t-141 -55q-53 0 -165.5 33t-165.5 33q-68 0 -113 -35z
" />
    <glyph glyph-name="ograve" unicode="&#xf2;" horiz-adv-x="786" 
d="M403 1112q73 0 131.5 -31t96.5 -83t64 -124t37 -150.5t11 -166.5q0 -63 -6 -123.5t-20 -127t-40 -122t-62 -100.5t-91 -70.5t-123 -25.5q-84 0 -149.5 40.5t-103.5 102t-63 142t-33.5 150.5t-8.5 138q0 98 20 191t60.5 176t113 133.5t166.5 50.5zM315 555
q0 -129 24.5 -210t66.5 -81q40 0 60.5 78.5t20.5 216.5q0 285 -79 285q-39 0 -66 -75t-27 -214zM215 1503q120 0 209 -117q70 -89 117 -131t116 -71q-62 -62 -163 -62q-76 0 -130 37t-102 103q-69 93 -113 129.5t-104 42.5q69 69 170 69z" />
    <glyph glyph-name="oacute" unicode="&#xf3;" horiz-adv-x="786" 
d="M403 1112q73 0 131.5 -31t96.5 -83t64 -124t37 -150.5t11 -166.5q0 -63 -6 -123.5t-20 -127t-40 -122t-62 -100.5t-91 -70.5t-123 -25.5q-84 0 -149.5 40.5t-103.5 102t-63 142t-33.5 150.5t-8.5 138q0 98 20 191t60.5 176t113 133.5t166.5 50.5zM315 555
q0 -129 24.5 -210t66.5 -81q40 0 60.5 78.5t20.5 216.5q0 285 -79 285q-39 0 -66 -75t-27 -214zM573 1503q101 0 170 -69q-60 -6 -104 -42.5t-113 -129.5q-48 -67 -101.5 -103.5t-131.5 -36.5q-100 0 -162 62q69 29 116.5 71.5t117.5 130.5q45 58 93 87.5t115 29.5z" />
    <glyph glyph-name="ocircumflex" unicode="&#xf4;" horiz-adv-x="786" 
d="M403 1112q73 0 131.5 -31t96.5 -83t64 -124t37 -150.5t11 -166.5q0 -63 -6 -123.5t-20 -127t-40 -122t-62 -100.5t-91 -70.5t-123 -25.5q-84 0 -149.5 40.5t-103.5 102t-63 142t-33.5 150.5t-8.5 138q0 98 20 191t60.5 176t113 133.5t166.5 50.5zM315 555
q0 -129 24.5 -210t66.5 -81q40 0 60.5 78.5t20.5 216.5q0 285 -79 285q-39 0 -66 -75t-27 -214zM414 1573q19 -47 35 -81.5t42 -75t54 -66.5t69 -45.5t88 -22.5q-60 -102 -141 -102q-89 0 -160 118q-23 -53 -77 -85.5t-113 -32.5q-90 0 -127 75q101 23 188 114.5t142 203.5z
" />
    <glyph glyph-name="otilde" unicode="&#xf5;" horiz-adv-x="786" 
d="M403 1112q73 0 131.5 -31t96.5 -83t64 -124t37 -150.5t11 -166.5q0 -63 -6 -123.5t-20 -127t-40 -122t-62 -100.5t-91 -70.5t-123 -25.5q-84 0 -149.5 40.5t-103.5 102t-63 142t-33.5 150.5t-8.5 138q0 98 20 191t60.5 176t113 133.5t166.5 50.5zM315 555
q0 -129 24.5 -210t66.5 -81q40 0 60.5 78.5t20.5 216.5q0 285 -79 285q-39 0 -66 -75t-27 -214zM45 1184q25 129 80.5 180t138.5 51q53 0 171 -26.5t173 -26.5q77 0 133 37q-49 -136 -111 -191t-141 -55q-53 0 -165.5 33t-165.5 33q-68 0 -113 -35z" />
    <glyph glyph-name="odieresis" unicode="&#xf6;" horiz-adv-x="786" 
d="M403 1112q73 0 131.5 -31t96.5 -83t64 -124t37 -150.5t11 -166.5q0 -63 -6 -123.5t-20 -127t-40 -122t-62 -100.5t-91 -70.5t-123 -25.5q-84 0 -149.5 40.5t-103.5 102t-63 142t-33.5 150.5t-8.5 138q0 98 20 191t60.5 176t113 133.5t166.5 50.5zM315 555
q0 -129 24.5 -210t66.5 -81q40 0 60.5 78.5t20.5 216.5q0 285 -79 285q-39 0 -66 -75t-27 -214zM59 1337q0 65 41.5 109.5t102.5 44.5q60 0 102.5 -45t42.5 -109q0 -65 -42 -109t-103 -44q-62 0 -103 43.5t-41 109.5zM438 1337q0 65 41.5 109.5t102.5 44.5q60 0 101.5 -44.5
t41.5 -109.5q0 -66 -41.5 -109.5t-101.5 -43.5q-62 0 -103 43.5t-41 109.5z" />
    <glyph glyph-name="divide" unicode="&#xf7;" 
d="M1059 645h-944q-39 3 -49.5 13t-10.5 40q0 61 20.5 106.5t59.5 45.5h942q39 -3 49.5 -13t10.5 -40q0 -61 -20 -106.5t-58 -45.5zM442 1178q0 65 44 109t110 44q65 0 109.5 -44.5t44.5 -108.5q0 -66 -44.5 -110t-109.5 -44q-66 0 -110 44t-44 110zM442 322q0 65 44 109
t110 44q65 0 109.5 -44.5t44.5 -108.5q0 -66 -44.5 -110t-109.5 -44q-66 0 -110 44t-44 110z" />
    <glyph glyph-name="oslash" unicode="&#xf8;" horiz-adv-x="786" 
d="M670 1223q55 -110 55 -219q0 -73 -25 -150q43 -119 43 -297q0 -63 -6 -123.5t-20 -127t-40 -122t-62 -100.5t-91 -70.5t-123 -25.5q-156 0 -245 131q-78 -100 -119 -217q-10 55 -10 104q0 137 57 266q-41 132 -41 289q0 98 20 191t60.5 176t113 133.5t166.5 50.5
q118 0 197 -82q38 75 70 193zM406 248q44 0 68.5 69.5t27.5 194.5q-8 -8 -10 -12l-158 -178q12 -35 31 -54.5t41 -19.5zM410 862q-43 0 -73 -66t-36 -190l168 209q-27 47 -59 47z" />
    <glyph glyph-name="ugrave" unicode="&#xf9;" horiz-adv-x="901" 
d="M37 1059q77 41 176 41q233 0 233 -201q0 -77 -46 -279t-46 -253q0 -35 12.5 -58.5t26.5 -23.5q43 0 85 164t42 337q0 209 -76 295q59 19 117 19q111 0 181.5 -58t70.5 -176q0 -68 -36 -225t-36 -219q0 -53 16.5 -82t43.5 -29q40 0 71 51q19 -55 19 -112
q0 -105 -57 -187.5t-132 -82.5q-93 0 -161 147q-47 -69 -100.5 -105t-131.5 -36q-56 0 -99 19.5t-69.5 50.5t-43 74t-23 86.5t-6.5 92.5q0 74 24.5 250t24.5 256q0 167 -80 244zM252 1503q120 0 209 -117q70 -89 117 -131t116 -71q-62 -62 -164 -62q-76 0 -129.5 36.5
t-101.5 103.5q-69 93 -113 129.5t-104 42.5q69 69 170 69z" />
    <glyph glyph-name="uacute" unicode="&#xfa;" horiz-adv-x="901" 
d="M37 1059q77 41 176 41q233 0 233 -201q0 -77 -46 -279t-46 -253q0 -35 12.5 -58.5t26.5 -23.5q43 0 85 164t42 337q0 209 -76 295q59 19 117 19q111 0 181.5 -58t70.5 -176q0 -68 -36 -225t-36 -219q0 -53 16.5 -82t43.5 -29q40 0 71 51q19 -55 19 -112
q0 -105 -57 -187.5t-132 -82.5q-93 0 -161 147q-47 -69 -100.5 -105t-131.5 -36q-56 0 -99 19.5t-69.5 50.5t-43 74t-23 86.5t-6.5 92.5q0 74 24.5 250t24.5 256q0 167 -80 244zM651 1503q101 0 170 -69q-60 -6 -104 -42.5t-113 -129.5q-48 -67 -101.5 -103.5t-131.5 -36.5
q-100 0 -162 62q69 29 116 71t117 131q44 58 93 87.5t116 29.5z" />
    <glyph glyph-name="ucircumflex" unicode="&#xfb;" horiz-adv-x="901" 
d="M37 1059q77 41 176 41q233 0 233 -201q0 -77 -46 -279t-46 -253q0 -35 12.5 -58.5t26.5 -23.5q43 0 85 164t42 337q0 209 -76 295q59 19 117 19q111 0 181.5 -58t70.5 -176q0 -68 -36 -225t-36 -219q0 -53 16.5 -82t43.5 -29q40 0 71 51q19 -55 19 -112
q0 -105 -57 -187.5t-132 -82.5q-93 0 -161 147q-47 -69 -100.5 -105t-131.5 -36q-56 0 -99 19.5t-69.5 50.5t-43 74t-23 86.5t-6.5 92.5q0 74 24.5 250t24.5 256q0 167 -80 244zM471 1573q24 -60 46 -102.5t56 -87.5t81 -71t106 -30q-60 -102 -142 -102q-88 0 -159 118
q-23 -53 -77.5 -85.5t-113.5 -32.5q-90 0 -127 75q101 23 188 114.5t142 203.5z" />
    <glyph glyph-name="udieresis" unicode="&#xfc;" horiz-adv-x="901" 
d="M37 1059q77 41 176 41q233 0 233 -201q0 -77 -46 -279t-46 -253q0 -35 12.5 -58.5t26.5 -23.5q43 0 85 164t42 337q0 209 -76 295q59 19 117 19q111 0 181.5 -58t70.5 -176q0 -68 -36 -225t-36 -219q0 -53 16.5 -82t43.5 -29q40 0 71 51q19 -55 19 -112
q0 -105 -57 -187.5t-132 -82.5q-93 0 -161 147q-47 -69 -100.5 -105t-131.5 -36q-56 0 -99 19.5t-69.5 50.5t-43 74t-23 86.5t-6.5 92.5q0 74 24.5 250t24.5 256q0 167 -80 244zM121 1337q0 65 41 109.5t102 44.5q60 0 103 -45t43 -109q0 -65 -42.5 -109t-103.5 -44
q-62 0 -102.5 43.5t-40.5 109.5zM500 1337q0 65 41 109.5t102 44.5q60 0 101.5 -44.5t41.5 -109.5q0 -66 -41.5 -109.5t-101.5 -43.5q-62 0 -102.5 43.5t-40.5 109.5z" />
    <glyph glyph-name="yacute" unicode="&#xfd;" horiz-adv-x="876" 
d="M846 1067q-90 -22 -90 -149q0 -67 42 -238t42 -264q0 -198 -124 -335.5t-294 -137.5q-141 0 -247.5 91t-106.5 238q0 20 4 56q43 -50 119.5 -82.5t154.5 -32.5q117 0 117 84q0 33 -19 45t-65 12q-126 0 -201 32.5t-112 111.5q-25 56 -25 118q0 64 22 142.5t44 144.5
t22 101q0 63 -63 77q51 39 129 39q98 0 143 -57.5t45 -136.5q0 -44 -19.5 -143t-19.5 -136q0 -92 80 -92q57 0 85 41.5t28 99.5q0 46 -25 133.5t-25 122.5q0 70 48 130.5t141 60.5q110 0 170 -76zM682 1503q101 0 170 -69q-60 -6 -104 -42.5t-113 -129.5q-48 -66 -102 -103
t-132 -37q-99 0 -161 62q69 29 116 71t117 131q44 58 93 87.5t116 29.5z" />
    <glyph glyph-name="thorn" unicode="&#xfe;" horiz-adv-x="851" 
d="M61 1444q63 31 109 45t102 14q108 0 161.5 -61t53.5 -197q0 -59 -8 -129q59 -2 108 -14t92 -38.5t72.5 -67.5t46.5 -102.5t17 -141.5q0 -85 -19 -157t-58 -129.5t-105 -89.5t-152 -32q-33 0 -73 6q0 -214 24 -336q-74 4 -108 4q-89 0 -273 -16q41 156 68.5 408t27.5 491
q0 431 -86 543zM430 532q73 33 106 89.5t33 121.5q0 54 -19 90.5t-48 36.5q-37 0 -56.5 -66t-19.5 -165q0 -78 4 -107z" />
    <glyph glyph-name="ydieresis" unicode="&#xff;" horiz-adv-x="876" 
d="M846 1067q-90 -22 -90 -149q0 -67 42 -238t42 -264q0 -198 -124 -335.5t-294 -137.5q-141 0 -247.5 91t-106.5 238q0 20 4 56q43 -50 119.5 -82.5t154.5 -32.5q117 0 117 84q0 33 -19 45t-65 12q-126 0 -201 32.5t-112 111.5q-25 56 -25 118q0 64 22 142.5t44 144.5
t22 101q0 63 -63 77q51 39 129 39q98 0 143 -57.5t45 -136.5q0 -44 -19.5 -143t-19.5 -136q0 -92 80 -92q57 0 85 41.5t28 99.5q0 46 -25 133.5t-25 122.5q0 70 48 130.5t141 60.5q110 0 170 -76zM111 1337q0 65 41 109.5t102 44.5q60 0 102.5 -45t42.5 -109q0 -65 -42 -109
t-103 -44q-62 0 -102.5 43.5t-40.5 109.5zM489 1337q0 65 41.5 109.5t102.5 44.5q60 0 101.5 -44.5t41.5 -109.5q0 -66 -41.5 -109.5t-101.5 -43.5q-62 0 -103 43.5t-41 109.5z" />
    <glyph glyph-name="Amacron" unicode="&#x100;" horiz-adv-x="1013" 
d="M1004 315q2 -14 2 -43q0 -118 -67.5 -201t-156.5 -83q-97 0 -170 96q-121 -107 -252 -107q-136 0 -226.5 108.5t-90.5 262.5q0 239 238 420q36 28 83.5 58.5t76 48.5t56.5 42.5t41 54.5t13 70q0 97 -88 97q-38 0 -71.5 -19.5t-56 -47t-43.5 -72t-33.5 -80.5t-27.5 -86
q-58 18 -90 79.5t-32 145.5q0 71 25.5 140.5t75 131t134.5 99.5t193 38q96 0 166 -30t108.5 -83.5t56 -116.5t17.5 -138q0 -77 -28 -296.5t-28 -307.5q0 -99 25 -155t74 -56q36 0 76 30zM541 639q-168 -141 -168 -256q0 -38 15.5 -58t41.5 -20q30 0 53 28t35.5 71.5
t18.5 87.5t6 83q0 15 -1 37t-1 27zM291 1737l510 -4q30 0 42.5 -7.5t12.5 -29.5q0 -64 -25 -94.5t-92 -36.5l-491 -19q-32 -2 -48 12.5t-16 53.5q0 35 19 84q15 25 30 33t58 8z" />
    <glyph glyph-name="amacron" unicode="&#x101;" horiz-adv-x="808" 
d="M772 440q33 -73 33 -164q0 -116 -50.5 -199t-133.5 -83q-89 0 -136 86q-70 -96 -188 -96q-112 0 -187 91.5t-75 213.5q0 62 22.5 111.5t58 81.5t78.5 57.5t86.5 44.5t79 37.5t58 42.5t22.5 53q0 63 -88 63q-77 0 -145 -53t-119 -129q-18 70 -18 123q0 180 91.5 279.5
t231.5 99.5q135 0 214 -92.5t79 -223.5q0 -42 -14.5 -139t-14.5 -145q0 -66 17 -102t41 -36q18 0 33 20.5t24 57.5zM301 311q0 -45 39 -45q33 0 59.5 38t39 90.5t12.5 103.5q-150 -101 -150 -187zM174 1374l510 -4q30 0 42.5 -7.5t12.5 -29.5q0 -64 -25 -94.5t-91 -36.5
l-492 -18q-32 -2 -47.5 12t-15.5 53q0 38 18 84q15 25 30 33t58 8z" />
    <glyph glyph-name="Abreve" unicode="&#x102;" horiz-adv-x="1013" 
d="M1004 315q2 -14 2 -43q0 -118 -67.5 -201t-156.5 -83q-97 0 -170 96q-121 -107 -252 -107q-136 0 -226.5 108.5t-90.5 262.5q0 239 238 420q36 28 83.5 58.5t76 48.5t56.5 42.5t41 54.5t13 70q0 97 -88 97q-38 0 -71.5 -19.5t-56 -47t-43.5 -72t-33.5 -80.5t-27.5 -86
q-58 18 -90 79.5t-32 145.5q0 71 25.5 140.5t75 131t134.5 99.5t193 38q96 0 166 -30t108.5 -83.5t56 -116.5t17.5 -138q0 -77 -28 -296.5t-28 -307.5q0 -99 25 -155t74 -56q36 0 76 30zM541 639q-168 -141 -168 -256q0 -38 15.5 -58t41.5 -20q30 0 53 28t35.5 71.5
t18.5 87.5t6 83q0 15 -1 37t-1 27zM430 1829q-24 -61 -24 -100q0 -87 112 -87q67 0 104 31t37 94q0 34 -10 68q88 -14 134 -60t46 -102q0 -79 -86 -133.5t-231 -54.5q-140 0 -216.5 48.5t-76.5 125.5q0 67 55.5 117t155.5 53z" />
    <glyph glyph-name="abreve" unicode="&#x103;" horiz-adv-x="808" 
d="M772 440q33 -73 33 -164q0 -116 -50.5 -199t-133.5 -83q-89 0 -136 86q-70 -96 -188 -96q-112 0 -187 91.5t-75 213.5q0 62 22.5 111.5t58 81.5t78.5 57.5t86.5 44.5t79 37.5t58 42.5t22.5 53q0 63 -88 63q-77 0 -145 -53t-119 -129q-18 70 -18 123q0 180 91.5 279.5
t231.5 99.5q135 0 214 -92.5t79 -223.5q0 -42 -14.5 -139t-14.5 -145q0 -66 17 -102t41 -36q18 0 33 20.5t24 57.5zM301 311q0 -45 39 -45q33 0 59.5 38t39 90.5t12.5 103.5q-150 -101 -150 -187zM309 1466q-24 -62 -24 -100q0 -86 112 -86q67 0 104.5 31t37.5 94
q0 31 -11 68q88 -14 134.5 -60t46.5 -102q0 -79 -86.5 -134t-231.5 -55q-140 0 -216.5 48.5t-76.5 125.5q0 67 55.5 117t155.5 53z" />
    <glyph glyph-name="Aogonek" unicode="&#x104;" horiz-adv-x="1013" 
d="M1004 315q2 -14 2 -43q0 -118 -67.5 -201t-156.5 -83q-97 0 -170 96q-121 -107 -252 -107q-136 0 -226.5 108.5t-90.5 262.5q0 239 238 420q36 28 83.5 58.5t76 48.5t56.5 42.5t41 54.5t13 70q0 97 -88 97q-38 0 -71.5 -19.5t-56 -47t-43.5 -72t-33.5 -80.5t-27.5 -86
q-58 18 -90 79.5t-32 145.5q0 71 25.5 140.5t75 131t134.5 99.5t193 38q96 0 166 -30t108.5 -83.5t56 -116.5t17.5 -138q0 -77 -28 -296.5t-28 -307.5q0 -99 25 -155t74 -56q36 0 76 30zM541 639q-168 -141 -168 -256q0 -38 15.5 -58t41.5 -20q30 0 53 28t35.5 71.5
t18.5 87.5t6 83q0 15 -1 37t-1 27zM797 -29q-44 -36 -72.5 -84t-28.5 -88q0 -47 34 -72.5t75 -25.5q53 0 119 44.5t106 96.5q-26 -180 -117 -268t-206 -88q-99 0 -169.5 57.5t-70.5 151.5q0 77 53 141t127.5 98t149.5 37z" />
    <glyph glyph-name="aogonek" unicode="&#x105;" horiz-adv-x="808" 
d="M772 440q33 -73 33 -164q0 -116 -50.5 -199t-133.5 -83q-89 0 -136 86q-70 -96 -188 -96q-112 0 -187 91.5t-75 213.5q0 62 22.5 111.5t58 81.5t78.5 57.5t86.5 44.5t79 37.5t58 42.5t22.5 53q0 63 -88 63q-77 0 -145 -53t-119 -129q-18 70 -18 123q0 180 91.5 279.5
t231.5 99.5q135 0 214 -92.5t79 -223.5q0 -42 -14.5 -139t-14.5 -145q0 -66 17 -102t41 -36q18 0 33 20.5t24 57.5zM301 311q0 -45 39 -45q33 0 59.5 38t39 90.5t12.5 103.5q-150 -101 -150 -187zM631 -29q-44 -36 -72.5 -84t-28.5 -88q0 -47 34 -72.5t75 -25.5
q53 0 119 44.5t106 96.5q-26 -180 -117 -268t-206 -88q-99 0 -169.5 57.5t-70.5 151.5q0 77 53 141t127.5 98t149.5 37z" />
    <glyph glyph-name="Cacute" unicode="&#x106;" horiz-adv-x="886" 
d="M600 842q43 71 43 153q0 63 -24 95t-60 32q-50 0 -91.5 -62t-64 -157t-22.5 -196q0 -150 47 -239t123 -89q63 0 105 49.5t49 146.5q66 -15 114.5 -76t48.5 -157q0 -66 -25 -130t-69.5 -116t-112.5 -84t-147 -32q-137 0 -242.5 98.5t-161 262.5t-55.5 364q0 119 20.5 231
t64 211t104.5 172.5t148 116.5t190 43q77 0 135.5 -24t92.5 -65.5t50.5 -92.5t16.5 -111q0 -137 -79 -228t-198 -116zM750 1866q100 0 170 -70q-60 -6 -104.5 -43t-113.5 -129q-48 -66 -101.5 -102.5t-131.5 -36.5q-101 0 -162 61q69 29 116.5 71.5t117.5 131.5
q44 58 93 87.5t116 29.5z" />
    <glyph glyph-name="cacute" unicode="&#x107;" horiz-adv-x="765" 
d="M502 666q6 27 6 61q0 61 -21 100t-57 39q-52 0 -84.5 -74t-32.5 -194q0 -149 49 -226t119 -77q57 0 92.5 54.5t38.5 162.5q57 -19 87 -78.5t30 -136.5q0 -141 -93 -226t-222 -85q-118 0 -206 80.5t-131.5 209t-43.5 283.5q0 104 21.5 199.5t64 176t117 129t170.5 48.5
q124 0 197 -73.5t73 -186.5q0 -95 -51 -140.5t-123 -45.5zM600 1503q101 0 170 -69q-60 -6 -104 -42.5t-113 -129.5q-48 -66 -102 -103t-132 -37q-99 0 -161 62q69 29 116 71t117 131q44 58 93 87.5t116 29.5z" />
    <glyph glyph-name="Cdotaccent" unicode="&#x10a;" horiz-adv-x="886" 
d="M600 842q43 71 43 153q0 63 -24 95t-60 32q-50 0 -91.5 -62t-64 -157t-22.5 -196q0 -150 47 -239t123 -89q63 0 105 49.5t49 146.5q66 -15 114.5 -76t48.5 -157q0 -66 -25 -130t-69.5 -116t-112.5 -84t-147 -32q-137 0 -242.5 98.5t-161 262.5t-55.5 364q0 119 20.5 231
t64 211t104.5 172.5t148 116.5t190 43q77 0 135.5 -24t92.5 -65.5t50.5 -92.5t16.5 -111q0 -137 -79 -228t-198 -116zM424 1700q0 64 41.5 108.5t101.5 44.5q62 0 104 -44.5t42 -108.5q0 -66 -42 -110t-104 -44q-60 0 -101.5 44t-41.5 110z" />
    <glyph glyph-name="cdotaccent" unicode="&#x10b;" horiz-adv-x="765" 
d="M502 666q6 27 6 61q0 61 -21 100t-57 39q-52 0 -84.5 -74t-32.5 -194q0 -149 49 -226t119 -77q57 0 92.5 54.5t38.5 162.5q57 -19 87 -78.5t30 -136.5q0 -141 -93 -226t-222 -85q-118 0 -206 80.5t-131.5 209t-43.5 283.5q0 104 21.5 199.5t64 176t117 129t170.5 48.5
q124 0 197 -73.5t73 -186.5q0 -95 -51 -140.5t-123 -45.5zM274 1337q0 64 42 109t102 45q61 0 103 -44.5t42 -109.5q0 -66 -41.5 -109.5t-103.5 -43.5q-60 0 -102 44t-42 109z" />
    <glyph glyph-name="Ccaron" unicode="&#x10c;" horiz-adv-x="886" 
d="M600 842q43 71 43 153q0 63 -24 95t-60 32q-50 0 -91.5 -62t-64 -157t-22.5 -196q0 -150 47 -239t123 -89q63 0 105 49.5t49 146.5q66 -15 114.5 -76t48.5 -157q0 -66 -25 -130t-69.5 -116t-112.5 -84t-147 -32q-137 0 -242.5 98.5t-161 262.5t-55.5 364q0 119 20.5 231
t64 211t104.5 172.5t148 116.5t190 43q77 0 135.5 -24t92.5 -65.5t50.5 -92.5t16.5 -111q0 -137 -79 -228t-198 -116zM547 1507q-23 59 -45.5 102t-57 88t-81.5 71t-105 30q59 103 141 103q88 0 160 -119q23 53 77.5 86t113.5 33q89 0 127 -74q-101 -24 -188 -116.5
t-142 -203.5z" />
    <glyph glyph-name="ccaron" unicode="&#x10d;" horiz-adv-x="765" 
d="M502 666q6 27 6 61q0 61 -21 100t-57 39q-52 0 -84.5 -74t-32.5 -194q0 -149 49 -226t119 -77q57 0 92.5 54.5t38.5 162.5q57 -19 87 -78.5t30 -136.5q0 -141 -93 -226t-222 -85q-118 0 -206 80.5t-131.5 209t-43.5 283.5q0 104 21.5 199.5t64 176t117 129t170.5 48.5
q124 0 197 -73.5t73 -186.5q0 -95 -51 -140.5t-123 -45.5zM403 1145q-23 60 -45.5 102.5t-56.5 87.5t-81 71t-105 30q58 102 141 102q88 0 160 -119q23 53 77.5 86t112.5 33q89 0 127 -74q-101 -24 -188 -116t-142 -203z" />
    <glyph glyph-name="Dcaron" unicode="&#x10e;" horiz-adv-x="991" 
d="M39 1468q90 -20 198.5 -29t176.5 -12t146 -28t140 -78q110 -93 173 -254.5t63 -366.5q0 -148 -35 -278t-106 -219q-52 -63 -121 -103t-149 -57.5t-152.5 -25.5t-165.5 -16.5t-154 -20.5q80 294 80 706q0 460 -94 782zM598 625q0 108 -10 219t-38 205t-69 94
q-65 0 -65 -281q0 -72 2.5 -145.5t11 -178.5t30 -171t52.5 -66q39 0 62.5 86.5t23.5 237.5zM432 1507q-23 59 -45.5 102t-57 88t-81.5 71t-105 30q59 103 142 103q87 0 159 -119q23 53 77.5 86t113.5 33q89 0 127 -74q-101 -24 -188 -116.5t-142 -203.5z" />
    <glyph glyph-name="dcaron" unicode="&#x10f;" horiz-adv-x="1175" 
d="M915 309q23 -47 23 -100q0 -97 -77 -171.5t-163 -74.5q-105 0 -143 121q-73 -102 -199 -102q-105 0 -177.5 79t-104 202.5t-31.5 281.5q0 99 16.5 193t48.5 174t85.5 129t121.5 49q63 0 120 -40t95 -112q17 117 17 182q0 237 -174 310q84 51 221 51q124 0 185 -57.5
t61 -190.5q0 -79 -42 -305.5t-42 -366.5q0 -124 25 -205.5t77 -81.5q29 0 57 35zM338 500q0 -123 19.5 -189.5t52.5 -66.5q43 0 65.5 102t22.5 225q0 101 -17 174.5t-53 73.5q-43 0 -66.5 -92t-23.5 -227zM1001 881q-127 47 -127 166q0 51 37 161t37 168q0 67 -37 107
q18 2 50 2q103 0 161 -57.5t58 -139.5q0 -45 -19 -85t-46 -70.5t-53.5 -61t-45.5 -69.5t-19 -82q0 -19 4 -39z" />
    <glyph glyph-name="Dcroat" unicode="&#x110;" horiz-adv-x="1036" 
d="M84 1468q91 -20 199.5 -29t176.5 -12t145.5 -28t139.5 -78q110 -93 173 -254.5t63 -366.5q0 -148 -35 -278t-106 -219q-51 -63 -120 -103t-149.5 -57.5t-153.5 -25.5t-166 -16.5t-153 -20.5q74 264 80 638q-75 0 -95 12.5t-20 61.5q0 63 24.5 96t88.5 33q-16 381 -92 647
zM655 623q0 109 -11.5 220.5t-43.5 205.5t-78 94q-17 0 -29.5 -11.5t-20.5 -34.5t-13 -47.5t-7 -61t-2.5 -62.5t-0.5 -64v-45q42 0 66 -0.5t45.5 -2.5t30.5 -5t15.5 -9.5t8 -14.5t1.5 -21q0 -59 -33 -91t-128 -38q21 -334 104 -334q44 0 70 84t26 238z" />
    <glyph glyph-name="dmacron" unicode="&#x111;" horiz-adv-x="940" 
d="M375 1331l121 -2q-42 67 -123 101q84 51 221 51q99 0 157 -36.5t78 -117.5h54q36 0 45.5 -9t9.5 -34q0 -56 -23.5 -86.5t-78.5 -36.5q-4 -53 -42 -262t-38 -338q0 -124 25 -205.5t77 -81.5q29 0 57 35q23 -47 23 -100q0 -97 -77 -171.5t-163 -74.5q-105 0 -143 121
q-73 -102 -203 -102q-78 0 -138.5 45.5t-97 124t-55 175.5t-18.5 208q0 104 16.5 200.5t48.5 177t85.5 129t121.5 48.5q63 0 120 -40t95 -112q17 117 17 182v29l-215 -8q-33 -2 -49.5 12.5t-16.5 54.5q0 2 1 12t2.5 18.5t6 23t11.5 28.5q11 24 27.5 32.5t60.5 8.5zM338 498
q0 -122 19.5 -188t52.5 -66q43 0 65.5 102.5t22.5 226.5q0 101 -17 173.5t-53 72.5q-43 0 -66.5 -93t-23.5 -228z" />
    <glyph glyph-name="Emacron" unicode="&#x112;" horiz-adv-x="868" 
d="M481 1487q61 0 112 -26.5t85.5 -69.5t61.5 -102t42.5 -118.5t25.5 -124.5t13.5 -115t3.5 -95q0 -84 -4 -121q-82 -6 -169 -37.5t-153.5 -89.5t-66.5 -125q0 -48 32 -76.5t77 -28.5q72 0 148 67t81 124q49 -21 49 -154q0 -59 -9.5 -115.5t-33 -113.5t-58.5 -100t-91.5 -70
t-126.5 -27q-83 0 -153 37t-118 99.5t-84 139.5t-56.5 164t-30 165t-9.5 149q0 95 16.5 197.5t52 204t84.5 182t122 130.5t157 50zM408 1073q-17 -52 -17 -149q0 -49 2 -72q73 62 121 88q6 18 6 49q0 50 -15.5 94.5t-43.5 44.5q-18 0 -32 -18.5t-21 -36.5zM248 1737l510 -4
q30 0 42.5 -7.5t12.5 -29.5q0 -64 -25 -94.5t-92 -36.5l-491 -19q-32 -2 -48 12.5t-16 53.5q0 35 19 84q15 25 30 33t58 8z" />
    <glyph glyph-name="emacron" unicode="&#x113;" horiz-adv-x="704" 
d="M387 1110q60 0 108 -26t78 -70.5t51 -95t31.5 -108t14.5 -101t4 -82.5q0 -63 -4 -90q-66 -4 -138 -27.5t-127 -66.5t-55 -93q0 -35 27 -55.5t63 -20.5q60 0 123 52.5t68 97.5q41 -44 41 -137q0 -134 -72.5 -217.5t-198.5 -83.5q-77 0 -139.5 35t-102.5 91t-67 130
t-38 148.5t-11 150.5q0 103 22 202.5t63 182t108.5 133.5t150.5 51zM328 700q0 -39 2 -53q56 46 100 68q7 137 -45 137q-57 0 -57 -152zM145 1374l510 -4q30 0 43 -7.5t13 -29.5q0 -64 -25 -94.5t-92 -36.5l-492 -18q-32 -2 -47.5 12t-15.5 53q0 38 18 84q15 25 30 33t58 8z
" />
    <glyph glyph-name="Edotaccent" unicode="&#x116;" horiz-adv-x="868" 
d="M481 1487q61 0 112 -26.5t85.5 -69.5t61.5 -102t42.5 -118.5t25.5 -124.5t13.5 -115t3.5 -95q0 -84 -4 -121q-82 -6 -169 -37.5t-153.5 -89.5t-66.5 -125q0 -48 32 -76.5t77 -28.5q72 0 148 67t81 124q49 -21 49 -154q0 -59 -9.5 -115.5t-33 -113.5t-58.5 -100t-91.5 -70
t-126.5 -27q-83 0 -153 37t-118 99.5t-84 139.5t-56.5 164t-30 165t-9.5 149q0 95 16.5 197.5t52 204t84.5 182t122 130.5t157 50zM408 1073q-17 -52 -17 -149q0 -49 2 -72q73 62 121 88q6 18 6 49q0 50 -15.5 94.5t-43.5 44.5q-18 0 -32 -18.5t-21 -36.5zM330 1700
q0 64 41.5 108.5t101.5 44.5q61 0 103 -44t42 -109q0 -66 -41.5 -110t-103.5 -44q-60 0 -101.5 44t-41.5 110z" />
    <glyph glyph-name="edotaccent" unicode="&#x117;" horiz-adv-x="704" 
d="M387 1110q60 0 108 -26t78 -70.5t51 -95t31.5 -108t14.5 -101t4 -82.5q0 -63 -4 -90q-66 -4 -138 -27.5t-127 -66.5t-55 -93q0 -35 27 -55.5t63 -20.5q60 0 123 52.5t68 97.5q41 -44 41 -137q0 -134 -72.5 -217.5t-198.5 -83.5q-77 0 -139.5 35t-102.5 91t-67 130
t-38 148.5t-11 150.5q0 103 22 202.5t63 182t108.5 133.5t150.5 51zM328 700q0 -39 2 -53q56 46 100 68q7 137 -45 137q-57 0 -57 -152zM231 1337q0 64 42 109t102 45q61 0 103 -44.5t42 -109.5q0 -66 -41.5 -109.5t-103.5 -43.5q-60 0 -102 44t-42 109z" />
    <glyph glyph-name="Eogonek" unicode="&#x118;" horiz-adv-x="868" 
d="M481 1487q61 0 112 -26.5t85.5 -69.5t61.5 -102t42.5 -118.5t25.5 -124.5t13.5 -115t3.5 -95q0 -84 -4 -121q-82 -6 -169 -37.5t-153.5 -89.5t-66.5 -125q0 -48 32 -76.5t77 -28.5q72 0 148 67t81 124q49 -21 49 -154q0 -59 -9.5 -115.5t-33 -113.5t-58.5 -100t-91.5 -70
t-126.5 -27q-83 0 -153 37t-118 99.5t-84 139.5t-56.5 164t-30 165t-9.5 149q0 95 16.5 197.5t52 204t84.5 182t122 130.5t157 50zM408 1073q-17 -52 -17 -149q0 -49 2 -72q73 62 121 88q6 18 6 49q0 50 -15.5 94.5t-43.5 44.5q-18 0 -32 -18.5t-21 -36.5zM561 -29
q-44 -36 -72 -83.5t-28 -88.5q0 -47 33.5 -72.5t74.5 -25.5q53 0 119.5 45t106.5 96q-26 -180 -117.5 -268t-206.5 -88q-99 0 -169.5 57.5t-70.5 151.5q0 77 53 141t127.5 98t149.5 37z" />
    <glyph glyph-name="eogonek" unicode="&#x119;" horiz-adv-x="704" 
d="M387 1110q60 0 108 -26t78 -70.5t51 -95t31.5 -108t14.5 -101t4 -82.5q0 -63 -4 -90q-66 -4 -138 -27.5t-127 -66.5t-55 -93q0 -35 27 -55.5t63 -20.5q60 0 123 52.5t68 97.5q41 -44 41 -137q0 -134 -72.5 -217.5t-198.5 -83.5q-77 0 -139.5 35t-102.5 91t-67 130
t-38 148.5t-11 150.5q0 103 22 202.5t63 182t108.5 133.5t150.5 51zM328 700q0 -39 2 -53q56 46 100 68q7 137 -45 137q-57 0 -57 -152zM440 -29q-44 -36 -72 -83.5t-28 -88.5q0 -47 34 -72.5t75 -25.5q53 0 119 44.5t106 96.5q-26 -180 -117.5 -268t-206.5 -88
q-99 0 -169 57.5t-70 151.5q0 77 52.5 141t127 98t149.5 37z" />
    <glyph glyph-name="Ecaron" unicode="&#x11a;" horiz-adv-x="868" 
d="M481 1487q61 0 112 -26.5t85.5 -69.5t61.5 -102t42.5 -118.5t25.5 -124.5t13.5 -115t3.5 -95q0 -84 -4 -121q-82 -6 -169 -37.5t-153.5 -89.5t-66.5 -125q0 -48 32 -76.5t77 -28.5q72 0 148 67t81 124q49 -21 49 -154q0 -59 -9.5 -115.5t-33 -113.5t-58.5 -100t-91.5 -70
t-126.5 -27q-83 0 -153 37t-118 99.5t-84 139.5t-56.5 164t-30 165t-9.5 149q0 95 16.5 197.5t52 204t84.5 182t122 130.5t157 50zM408 1073q-17 -52 -17 -149q0 -49 2 -72q73 62 121 88q6 18 6 49q0 50 -15.5 94.5t-43.5 44.5q-18 0 -32 -18.5t-21 -36.5zM473 1507
q-23 59 -45.5 102t-57 88t-81.5 71t-105 30q59 103 142 103q87 0 159 -119q23 53 77.5 86t113.5 33q89 0 127 -74q-101 -24 -188 -116.5t-142 -203.5z" />
    <glyph glyph-name="ecaron" unicode="&#x11b;" horiz-adv-x="704" 
d="M387 1110q60 0 108 -26t78 -70.5t51 -95t31.5 -108t14.5 -101t4 -82.5q0 -63 -4 -90q-66 -4 -138 -27.5t-127 -66.5t-55 -93q0 -35 27 -55.5t63 -20.5q60 0 123 52.5t68 97.5q41 -44 41 -137q0 -134 -72.5 -217.5t-198.5 -83.5q-77 0 -139.5 35t-102.5 91t-67 130
t-38 148.5t-11 150.5q0 103 22 202.5t63 182t108.5 133.5t150.5 51zM328 700q0 -39 2 -53q56 46 100 68q7 137 -45 137q-57 0 -57 -152zM377 1145q-23 59 -45.5 102t-57 88t-81.5 71t-105 30q58 102 141 102q88 0 160 -119q23 53 77.5 86t113.5 33q89 0 127 -74
q-101 -24 -188 -116t-142 -203z" />
    <glyph glyph-name="Gbreve" unicode="&#x11e;" horiz-adv-x="991" 
d="M582 834q49 57 49 145q0 125 -84 125q-48 0 -87.5 -41t-62.5 -105t-35 -133.5t-12 -134.5q0 -97 27.5 -185.5t72 -141t91.5 -52.5q85 0 108 183q-44 -17 -82 -17q-59 0 -98 35t-53.5 85t-14.5 114q0 75 21 137q61 -41 102.5 -57.5t106.5 -16.5q10 0 53.5 1t67.5 1
q77 0 115 -13t57 -54q26 -62 26 -177q0 -102 -25 -202t-73.5 -186t-130.5 -139.5t-186 -53.5q-112 0 -206.5 64.5t-155 169t-93.5 233t-33 260.5q0 141 36.5 278.5t104.5 252.5t177 186t241 71q143 0 231.5 -77.5t88.5 -212.5q0 -137 -92.5 -233.5t-251.5 -108.5zM504 1829
q-25 -64 -25 -100q0 -87 113 -87q67 0 104 31t37 94q0 34 -10 68q88 -14 134 -60t46 -102q0 -79 -86 -133.5t-231 -54.5q-140 0 -216.5 48.5t-76.5 125.5q0 67 55.5 117t155.5 53z" />
    <glyph glyph-name="gbreve" unicode="&#x11f;" horiz-adv-x="751" 
d="M434 672q29 54 29 112q0 70 -49 70q-46 0 -76.5 -70t-30.5 -215q0 -150 33.5 -232.5t91.5 -82.5q75 0 80 176q-24 -4 -39 -4q-65 0 -103 46t-38 112q0 43 14 78q70 -37 111 -37q29 0 78 17t75 17q113 0 113 -196q0 -211 -92 -343t-228 -132q-146 0 -253 156.5t-107 410.5
q0 255 110.5 404t280.5 149q62 0 110 -21.5t75.5 -57.5t41 -78t13.5 -87q0 -78 -38 -127t-91 -63t-111 -2zM317 1466q-24 -62 -24 -100q0 -86 113 -86q67 0 104 31t37 94q0 34 -10 68q88 -14 134 -60t46 -102q0 -79 -86.5 -134t-231.5 -55q-140 0 -216.5 48.5t-76.5 125.5
q0 67 55.5 117t155.5 53z" />
    <glyph glyph-name="Gdotaccent" unicode="&#x120;" horiz-adv-x="991" 
d="M582 854q49 57 49 145q0 125 -84 125q-48 0 -87.5 -41t-62.5 -104.5t-35 -133t-12 -134.5q0 -97 27.5 -185.5t72 -141t91.5 -52.5q85 0 108 182q-41 -16 -82 -16q-59 0 -98 34.5t-53.5 84.5t-14.5 114q0 76 21 137q60 -40 102 -56.5t107 -16.5q10 0 53.5 1t67.5 1
q77 0 115 -13.5t57 -54.5q26 -62 26 -176q0 -102 -25 -202t-73.5 -186.5t-130.5 -140t-186 -53.5q-112 0 -206.5 64.5t-155 169t-93.5 233t-33 260.5q0 112 22.5 223t69 213t111.5 180.5t157.5 125.5t198.5 47q142 0 231 -78t89 -213q0 -137 -92.5 -233.5t-251.5 -108.5z
M414 1700q0 64 41.5 108.5t101.5 44.5q61 0 103 -44t42 -109q0 -66 -41.5 -110t-103.5 -44q-60 0 -101.5 44t-41.5 110z" />
    <glyph glyph-name="gdotaccent" unicode="&#x121;" horiz-adv-x="751" 
d="M434 672q29 54 29 112q0 70 -49 70q-46 0 -76.5 -70t-30.5 -215q0 -150 33.5 -232.5t91.5 -82.5q75 0 80 176q-24 -4 -39 -4q-65 0 -103 46t-38 112q0 43 14 78q70 -37 111 -37q29 0 78 17t75 17q113 0 113 -196q0 -211 -92 -343t-228 -132q-146 0 -253 156.5t-107 410.5
q0 255 110.5 404t280.5 149q62 0 110 -21.5t75.5 -57.5t41 -78t13.5 -87q0 -78 -38 -127t-91 -63t-111 -2zM258 1337q0 65 41.5 109.5t101.5 44.5q61 0 103.5 -44.5t42.5 -109.5q0 -66 -42 -109.5t-104 -43.5q-60 0 -101.5 43.5t-41.5 109.5z" />
    <glyph glyph-name="Gcommaaccent" unicode="&#x122;" horiz-adv-x="991" 
d="M582 854q49 57 49 145q0 125 -84 125q-48 0 -87.5 -41t-62.5 -104.5t-35 -133t-12 -134.5q0 -97 27.5 -185.5t72 -141t91.5 -52.5q85 0 108 182q-41 -16 -82 -16q-59 0 -98 34.5t-53.5 84.5t-14.5 114q0 76 21 137q60 -40 102 -56.5t107 -16.5q10 0 53.5 1t67.5 1
q77 0 115 -13.5t57 -54.5q26 -62 26 -176q0 -102 -25 -202t-73.5 -186.5t-130.5 -140t-186 -53.5q-112 0 -206.5 64.5t-155 169t-93.5 233t-33 260.5q0 112 22.5 223t69 213t111.5 180.5t157.5 125.5t198.5 47q142 0 231 -78t89 -213q0 -137 -92.5 -233.5t-251.5 -108.5z
M483 -522q6 54 6 57q0 57 -13.5 97.5t-32.5 62.5t-38.5 39.5t-33 41t-13.5 54.5q0 57 60 97.5t180 43.5q-49 -34 -49 -73q0 -25 17.5 -49t42.5 -44.5t50 -42t42.5 -50t17.5 -60.5q0 -61 -57 -108t-179 -66z" />
    <glyph glyph-name="gcommaaccent" unicode="&#x123;" horiz-adv-x="751" 
d="M434 672q29 54 29 112q0 70 -49 70q-46 0 -76.5 -70t-30.5 -215q0 -150 33.5 -232.5t91.5 -82.5q75 0 80 176q-24 -4 -39 -4q-65 0 -103 46t-38 112q0 43 14 78q70 -37 111 -37q29 0 78 17t75 17q113 0 113 -196q0 -211 -92 -343t-228 -132q-146 0 -253 156.5t-107 410.5
q0 255 110.5 404t280.5 149q62 0 110 -21.5t75.5 -57.5t41 -78t13.5 -87q0 -78 -38 -127t-91 -63t-111 -2zM428 1145q-127 47 -127 166q0 51 37 161t37 168q0 67 -37 107q18 2 49 2q103 0 161 -57.5t58 -139.5q0 -45 -18.5 -85t-45.5 -70.5l-54 -61t-45.5 -69.5t-18.5 -82
q0 -19 4 -39z" />
    <glyph glyph-name="Hbar" unicode="&#x126;" horiz-adv-x="950" 
d="M512 1454q117 -12 219 -12q90 0 156 10l-39 -207h18q50 0 64 -6.5t14 -30.5q0 -43 -27 -67t-88 -31q-20 -195 -20 -379q0 -473 104 -731q-85 6 -168 6q-107 0 -217 -10q3 60 18 215t15 229q0 166 -72 166q-79 0 -79 -180q0 -99 16.5 -186.5t65.5 -262.5q-129 27 -256 27
q-82 0 -170 -10q39 176 55 345.5t16 401.5q0 213 -16 349h-43q-47 0 -69.5 10t-22.5 43q0 8 1 17t7 25t17 28.5t33.5 22.5t53.5 11q-16 98 -59 195q16 0 120 -6t171 -6q95 0 159 10q-40 -73 -61 -193l115 -2q-9 111 -31 209zM477 864q35 0 53.5 65.5t18.5 170.5l-143 -4v-41
q0 -75 19.5 -133t51.5 -58z" />
    <glyph glyph-name="hbar" unicode="&#x127;" horiz-adv-x="894" 
d="M33 1423q119 56 227 56q88 0 133 -39t58 -113h176q36 0 45.5 -9t9.5 -34q0 -57 -25.5 -88t-89.5 -35l-110 -4q-6 -81 -30.5 -212t-25.5 -136q88 291 240 291q90 0 142.5 -92t52.5 -226q0 -58 -17.5 -273t-17.5 -286q0 -132 49 -233q-83 14 -211 14q-85 0 -170 -12
q74 378 74 598q0 174 -37 174q-22 0 -46.5 -52t-43.5 -168t-19 -265q0 -144 25 -261q-20 2 -62 2q-45 0 -96.5 -4t-114.5 -10.5t-98 -9.5q41 146 65.5 402.5t24.5 488.5q0 154 -12 256l-53 -2q-33 -2 -49.5 12.5t-16.5 54.5q0 34 21 82q10 21 20.5 29.5t36.5 9.5
q-20 45 -55 94z" />
    <glyph glyph-name="Imacron" unicode="&#x12a;" horiz-adv-x="626" 
d="M76 1446q179 -14 309 -14q96 0 145 4q-88 -254 -88 -637q0 -219 30 -430.5t85 -366.5q-95 6 -176 6q-121 0 -275 -16q66 355 66 665q0 390 -96 789zM86 1737l510 -4q30 0 42.5 -7.5t12.5 -29.5q0 -64 -25 -94.5t-91 -36.5l-492 -19q-32 -2 -47.5 12.5t-15.5 53.5
q0 38 18 84q15 25 30 33t58 8z" />
    <glyph glyph-name="imacron" unicode="&#x12b;" horiz-adv-x="655" 
d="M86 1014q85 63 217 63t185 -66t53 -186q0 -74 -26 -248t-26 -253q0 -127 17 -193.5t61 -140.5q-86 8 -217 8q-117 0 -219 -10q47 92 74.5 249t27.5 318q0 180 -36.5 305.5t-110.5 153.5zM100 1374l510 -4q30 0 43 -7.5t13 -29.5q0 -64 -25 -94.5t-92 -36.5l-492 -18
q-32 -2 -47.5 12t-15.5 53q0 38 18 84q15 25 30 33t58 8z" />
    <glyph glyph-name="Ibreve" unicode="&#x12c;" horiz-adv-x="593" 
d="M57 1446q179 -14 310 -14q96 0 145 4q-88 -254 -88 -637q0 -219 30 -430.5t85 -366.5q-95 6 -177 6q-120 0 -274 -16q66 355 66 665q0 386 -97 789zM203 1829q-25 -64 -25 -100q0 -87 113 -87q67 0 104 31t37 94q0 34 -10 68q88 -14 134 -60t46 -102q0 -79 -86 -133.5
t-231 -54.5q-140 0 -216.5 48.5t-76.5 125.5q0 67 55.5 117t155.5 53z" />
    <glyph glyph-name="ibreve" unicode="&#x12d;" horiz-adv-x="598" 
d="M57 1014q85 63 217 63t185 -66t53 -186q0 -74 -25.5 -248t-25.5 -253q0 -127 17 -193.5t61 -140.5q-86 8 -217 8q-118 0 -220 -10q47 93 75 250t28 317q0 180 -37 305.5t-111 153.5zM205 1466q-25 -64 -25 -100q0 -86 113 -86q67 0 104 31t37 94q0 34 -10 68
q88 -14 134 -60t46 -102q0 -80 -86.5 -134.5t-230.5 -54.5q-140 0 -216.5 48.5t-76.5 125.5q0 67 55.5 117t155.5 53z" />
    <glyph glyph-name="Iogonek" unicode="&#x12e;" horiz-adv-x="555" 
d="M39 1446q178 -14 309 -14q97 0 146 4q-88 -254 -88 -637q0 -220 29.5 -431.5t84.5 -365.5q-95 6 -176 6q-120 0 -274 -16q65 349 65 665q0 390 -96 789zM328 -29q-44 -36 -72.5 -84t-28.5 -88q0 -47 34 -72.5t75 -25.5q53 0 119 44.5t106 96.5q-26 -180 -117 -268
t-206 -88q-99 0 -169.5 57.5t-70.5 151.5q0 77 53 141t127.5 98t149.5 37z" />
    <glyph glyph-name="iogonek" unicode="&#x12f;" horiz-adv-x="526" 
d="M20 1014q85 63 218 63q132 0 184.5 -66t52.5 -186q0 -74 -25.5 -248t-25.5 -253q0 -127 17 -193.5t61 -140.5q-86 8 -217 8q-117 0 -219 -10q47 92 74.5 249t27.5 318q0 180 -37 305.5t-111 153.5zM113 1337q0 65 44.5 109.5t108.5 44.5q65 0 110.5 -45t45.5 -109
q0 -65 -45.5 -109t-110.5 -44t-109 43.5t-44 109.5zM313 -29q-44 -36 -72 -83.5t-28 -88.5q0 -47 34 -72.5t75 -25.5q53 0 119 44.5t106 96.5q-26 -180 -117.5 -268t-206.5 -88q-99 0 -169 57.5t-70 151.5q0 77 52.5 141t127 98t149.5 37z" />
    <glyph glyph-name="Idotaccent" unicode="&#x130;" horiz-adv-x="555" 
d="M39 1446q178 -14 309 -14q97 0 146 4q-88 -254 -88 -637q0 -220 29.5 -431.5t84.5 -365.5q-95 6 -176 6q-120 0 -274 -16q65 349 65 665q0 390 -96 789zM131 1700q0 64 41.5 108.5t101.5 44.5q62 0 104 -44.5t42 -108.5q0 -66 -42 -110t-104 -44q-60 0 -101.5 44
t-41.5 110z" />
    <glyph glyph-name="dotlessi" unicode="&#x131;" horiz-adv-x="526" 
d="M20 1014q85 63 218 63q132 0 184.5 -66t52.5 -186q0 -74 -25.5 -248t-25.5 -253q0 -127 17 -193.5t61 -140.5q-86 8 -217 8q-117 0 -219 -10q47 92 74.5 249t27.5 318q0 180 -37 305.5t-111 153.5z" />
    <glyph glyph-name="IJ" unicode="&#x132;" horiz-adv-x="1376" 
d="M39 1446q178 -14 309 -14q97 0 146 4q-88 -254 -88 -637q0 -220 29.5 -431.5t84.5 -365.5q-95 6 -176 6q-120 0 -274 -16q65 349 65 665q0 390 -96 789zM750 1468q234 -24 368 -24q129 0 230 14q-74 -204 -74 -362q0 -67 24.5 -281.5t24.5 -337.5q0 -156 -43 -264
q-52 -120 -155 -180t-218 -60q-87 0 -158.5 33.5t-116 88.5t-68 122.5t-23.5 138.5q0 134 77 223.5t193 77.5q-55 -44 -55 -127q0 -85 38 -134.5t99 -49.5q66 0 99.5 59.5t33.5 155.5q0 97 -32.5 235t-82 274.5t-89 231.5t-72.5 166z" />
    <glyph glyph-name="ij" unicode="&#x133;" horiz-adv-x="987" 
d="M463 37q-43 -68 -43 -133q0 -44 22.5 -70.5t69.5 -26.5q29 0 51.5 9.5t39.5 31t29.5 47.5t20.5 67.5t13 82t7.5 100t3.5 112.5t1 128q0 67 -1 112t-5 109t-11.5 108t-22 93.5t-35 80.5t-51.5 54t-71 29q94 108 213 108q76 0 126.5 -40t78 -123t38.5 -188t11 -257
q0 -985 -395 -985q-127 0 -210 92.5t-83 216.5q0 93 52 162t151 80zM20 1014q85 63 218 63q134 0 185.5 -66.5t51.5 -193.5q0 -81 -24.5 -235.5t-24.5 -225.5q0 -147 76 -280q-86 8 -217 8q-128 0 -219 -12q43 79 72.5 225.5t29.5 294.5q0 338 -148 422zM113 1337
q0 65 44.5 109.5t108.5 44.5q65 0 110.5 -45t45.5 -109q0 -65 -45.5 -109t-110.5 -44t-109 43.5t-44 109.5zM567 1317q0 72 45.5 112.5t108.5 40.5q61 0 107 -41t46 -112q0 -72 -45.5 -113t-107.5 -41q-63 0 -108.5 41t-45.5 113z" />
    <glyph glyph-name="Kcommaaccent" unicode="&#x136;" horiz-adv-x="1124" 
d="M717 1640q-23 -102 63 -200q87 -100 123.5 -160.5t36.5 -126.5q0 -83 -63 -169.5t-218 -217.5q64 -201 137.5 -331t139.5 -130q68 0 68 135q57 -23 88.5 -85.5t31.5 -143.5q0 -34 -6 -68t-21.5 -69.5t-39 -62t-62.5 -43.5t-88 -17q-52 0 -101.5 20t-88.5 50.5t-77 78
t-65 92t-54 104t-43.5 102t-34 98t-24.5 80t-16 59.5q0 -135 44 -338.5t88 -312.5q-141 10 -465 10q51 342 51 698q0 443 -82 772q195 -20 352 -20q61 0 92 2q-63 -300 -63 -569q91 77 133.5 164.5t42.5 170.5q0 38 -12.5 119t-12.5 115q0 62 31.5 108.5t114.5 85.5z
M571 -522q0 2 3.5 21.5t3.5 35.5q0 57 -13.5 97.5t-33 62.5t-39 39.5t-33 41t-13.5 54.5q0 57 60 97.5t180 43.5q-49 -34 -49 -73q0 -25 17.5 -49t42.5 -44.5t50 -42t42.5 -50t17.5 -60.5q0 -61 -57 -108t-179 -66z" />
    <glyph glyph-name="kcommaaccent" unicode="&#x137;" horiz-adv-x="880" 
d="M51 1442q99 41 195 41q227 0 227 -193q0 -47 -41 -221q-36 -150 -48.5 -239t-18.5 -267q68 33 103.5 76.5t35.5 110.5q0 53 -31 108.5t-31 102.5q0 132 140 217q-9 -30 -9 -60q0 -58 29.5 -91t93.5 -71q35 -21 55.5 -37.5t39 -51t18.5 -79.5q0 -163 -223 -268
q10 -64 70 -147.5t108 -83.5q47 0 55 94q58 -61 58 -174q0 -102 -49.5 -178t-129.5 -76q-32 0 -64.5 15t-58.5 36t-54.5 57.5t-47.5 65t-43.5 74.5t-36 70t-31.5 67q-4 -18 -4 -61q0 -137 64 -289q-37 2 -124 8t-147 9t-116 3q86 391 86 787q0 190 -18.5 377t-51.5 268z
M428 -522q6 54 6 57q0 57 -13.5 97.5t-33 62.5t-38.5 39.5t-32.5 41t-13.5 54.5q0 57 60 97.5t180 43.5q-49 -34 -49 -73q0 -25 17.5 -49t42.5 -44.5t50 -42t42.5 -50t17.5 -60.5q0 -61 -57 -108t-179 -66z" />
    <glyph glyph-name="Lacute" unicode="&#x139;" horiz-adv-x="798" 
d="M39 1442q104 -8 229 -8q203 0 336 24q-72 -187 -142.5 -447t-70.5 -433q0 -115 33.5 -188t79.5 -73q38 0 62 49.5t24 114.5q0 80 -33 142q48 0 86 -15.5t63 -44.5t42.5 -64.5t26.5 -82t12.5 -90t3.5 -95.5t-4.5 -132.5t-4.5 -100.5q-12 0 -158.5 5t-232.5 5
q-187 0 -340 -12q74 372 74 721q0 383 -86 725zM532 1866q100 0 170 -70q-60 -6 -104 -42.5t-113 -129.5q-48 -66 -101.5 -102.5t-131.5 -36.5q-101 0 -162 61q69 29 116.5 71.5t117.5 131.5q45 58 93 87.5t115 29.5z" />
    <glyph glyph-name="lacute" unicode="&#x13a;" horiz-adv-x="536" 
d="M61 1423q64 31 109.5 45.5t101.5 14.5q108 0 161.5 -60.5t53.5 -197.5q0 -76 -19.5 -213.5t-39.5 -315t-20 -350.5q0 -219 24 -352q-74 4 -108 4q-89 0 -273 -16q41 156 68.5 408t27.5 491q0 430 -86 542zM463 1866q100 0 170 -70q-60 -6 -104 -42.5t-113 -129.5
q-48 -66 -102 -102.5t-132 -36.5q-101 0 -162 61q69 29 116.5 71.5t117.5 131.5q44 58 93 87.5t116 29.5z" />
    <glyph glyph-name="Lcommaaccent" unicode="&#x13b;" horiz-adv-x="798" 
d="M39 1442q104 -8 229 -8q203 0 336 24q-72 -187 -142.5 -447t-70.5 -433q0 -115 33.5 -188t79.5 -73q38 0 62 49.5t24 114.5q0 80 -33 142q48 0 86 -15.5t63 -44.5t42.5 -64.5t26.5 -82t12.5 -90t3.5 -95.5t-4.5 -132.5t-4.5 -100.5q-12 0 -158.5 5t-232.5 5
q-187 0 -340 -12q74 372 74 721q0 383 -86 725zM344 -522q6 54 6 57q0 57 -13.5 97.5t-33 62.5t-38.5 39.5t-32.5 41t-13.5 54.5q0 57 60 97.5t180 43.5q-49 -34 -49 -73q0 -25 17.5 -49t42.5 -44.5t50 -42t42.5 -50t17.5 -60.5q0 -61 -57 -108t-179 -66z" />
    <glyph glyph-name="lcommaaccent" unicode="&#x13c;" horiz-adv-x="536" 
d="M61 1444q63 31 109 45t102 14q108 0 161.5 -60.5t53.5 -197.5q0 -76 -19.5 -213t-39.5 -314.5t-20 -350.5q0 -220 24 -353q-74 4 -108 4q-89 0 -273 -16q41 156 68.5 408t27.5 491q0 431 -86 543zM211 -522q6 54 6 57q0 57 -13.5 97.5t-32.5 62.5t-38.5 39.5t-33 41
t-13.5 54.5q0 57 60 97.5t180 43.5q-50 -35 -50 -73q0 -25 17.5 -49t42.5 -44.5t50 -42t42.5 -50t17.5 -60.5q0 -61 -56.5 -108t-178.5 -66z" />
    <glyph glyph-name="Lcaron" unicode="&#x13d;" horiz-adv-x="890" 
d="M39 1442q104 -8 229 -8q203 0 336 24q-72 -187 -142.5 -447t-70.5 -433q0 -115 33.5 -188t79.5 -73q38 0 62 49.5t24 114.5q0 80 -33 142q48 0 86 -15.5t63 -44.5t42.5 -64.5t26.5 -82t12.5 -90t3.5 -95.5t-4.5 -132.5t-4.5 -100.5q-12 0 -158.5 5t-232.5 5
q-187 0 -340 -12q74 372 74 721q0 383 -86 725zM723 881q-127 47 -127 166q0 51 37 161t37 168q0 67 -37 107q18 2 49 2q103 0 161 -57.5t58 -139.5q0 -45 -18.5 -85t-45.5 -70.5l-54 -61t-45.5 -69.5t-18.5 -82q0 -19 4 -39z" />
    <glyph glyph-name="lcaron" unicode="&#x13e;" horiz-adv-x="833" 
d="M61 1444q63 31 109 45t102 14q108 0 161.5 -60.5t53.5 -197.5q0 -76 -19.5 -213t-39.5 -314.5t-20 -350.5q0 -220 24 -353q-74 4 -108 4q-89 0 -273 -16q41 156 68.5 408t27.5 491q0 431 -86 543zM657 881q-127 47 -127 166q0 51 37 161t37 168q0 67 -37 107q18 2 49 2
q104 0 162 -57.5t58 -139.5q0 -45 -19 -85t-45.5 -70.5t-53.5 -61t-46 -69.5t-19 -82q0 -19 4 -39z" />
    <glyph glyph-name="Lslash" unicode="&#x141;" horiz-adv-x="798" 
d="M117 895q-16 299 -78 547q104 -8 229 -8q203 0 336 24q-81 -210 -145 -461q215 68 231 68q28 0 41.5 -32.5t13.5 -61.5q0 -22 -17 -39t-93 -51.5t-223 -85.5q-21 -137 -21 -217q0 -115 33.5 -188t79.5 -73q38 0 62 49.5t24 114.5q0 80 -33 142q48 0 86 -15.5t63 -44.5
t42.5 -64.5t26.5 -82t12.5 -90t3.5 -95.5t-4.5 -132.5t-4.5 -100.5q-14 0 -159.5 5t-237.5 5q-181 0 -334 -12q68 346 74 698q-57 -16 -68 -16q-29 0 -51 27.5t-22 91.5q0 38 23 57t110 41z" />
    <glyph glyph-name="lslash" unicode="&#x142;" horiz-adv-x="786" 
d="M158 1444q63 31 108.5 45t100.5 14q109 0 163 -60.5t54 -199.5q0 -85 -23 -223l119 35q22 10 43 10q28 0 41.5 -32.5t13.5 -61.5q0 -60 -94 -92l-147 -52q-33 -274 -33 -460q0 -220 24 -353q-74 4 -108 4q-89 0 -273 -16q33 127 58.5 323.5t34.5 399.5l-111 -39
q-28 -8 -41 -8q-26 0 -50 28.5t-24 88.5q0 36 16 52t68 34l146 43q-3 408 -86 520z" />
    <glyph glyph-name="Nacute" unicode="&#x143;" horiz-adv-x="1064" 
d="M500 1225q84 120 162 181.5t178 61.5q38 0 68.5 -10t59 -35.5t44.5 -77.5t16 -128q0 -74 -33.5 -346.5t-33.5 -432.5q0 -261 77 -432q-277 0 -493 -16q55 181 88 474t33 515q0 67 -6.5 91t-28.5 24q-27 0 -47 -25.5t-31 -54.5q-33 -83 -51.5 -260.5t-18.5 -339.5
q0 -158 25 -406q-219 -3 -430 -28q100 270 100 663q0 226 -39.5 431t-118.5 351q232 58 359 58q82 0 111.5 -29.5t29.5 -93.5q0 -52 -20 -135zM754 1866q100 0 170 -70q-60 -6 -104 -42.5t-113 -129.5q-48 -66 -102 -102.5t-132 -36.5q-101 0 -162 61q69 29 116.5 71.5
t117.5 131.5q44 58 93 87.5t116 29.5z" />
    <glyph glyph-name="nacute" unicode="&#x144;" horiz-adv-x="870" 
d="M27 1014q44 33 116.5 59.5t130.5 26.5q62 0 97 -32.5t35 -96.5q0 -6 -11 -86q51 103 107.5 161t136.5 58q63 0 101 -40t51.5 -100.5t13.5 -148.5q0 -70 -13.5 -261t-13.5 -263q0 -161 47 -279q-235 -7 -360 -18q21 145 35 332t14 301q0 65 -8.5 99t-32.5 34
q-43 0 -64.5 -94t-21.5 -238q0 -96 8.5 -231t14.5 -185q-230 0 -342 -22q14 98 27.5 269.5t13.5 332.5q0 361 -82 422zM635 1503q101 0 170 -69q-60 -6 -104 -42.5t-113 -129.5q-48 -66 -102 -103t-132 -37q-99 0 -161 62q69 29 116 71t117 131q44 58 93 87.5t116 29.5z" />
    <glyph glyph-name="Ncommaaccent" unicode="&#x145;" horiz-adv-x="1064" 
d="M500 1225q84 120 162 181.5t178 61.5q38 0 68.5 -10t59 -35.5t44.5 -77.5t16 -128q0 -74 -33.5 -346.5t-33.5 -432.5q0 -261 77 -432q-277 0 -493 -16q55 181 88 474t33 515q0 67 -6.5 91t-28.5 24q-27 0 -47 -25.5t-31 -54.5q-33 -83 -51.5 -260.5t-18.5 -339.5
q0 -158 25 -406q-219 -3 -430 -28q100 270 100 663q0 226 -39.5 431t-118.5 351q232 58 359 58q82 0 111.5 -29.5t29.5 -93.5q0 -52 -20 -135zM434 -522q6 54 6 57q0 57 -13.5 97.5t-33 62.5t-38.5 39.5t-32.5 41t-13.5 54.5q0 57 60 97.5t180 43.5q-49 -34 -49 -73
q0 -25 17.5 -49t42.5 -44.5t50 -42t42.5 -50t17.5 -60.5q0 -61 -57 -108t-179 -66z" />
    <glyph glyph-name="ncommaaccent" unicode="&#x146;" horiz-adv-x="870" 
d="M27 1014q44 33 116.5 59.5t130.5 26.5q62 0 97 -32.5t35 -96.5q0 -6 -11 -86q51 103 107.5 161t136.5 58q63 0 101 -40t51.5 -100.5t13.5 -148.5q0 -70 -13.5 -261t-13.5 -263q0 -161 47 -279q-235 -7 -360 -18q21 145 35 332t14 301q0 65 -8.5 99t-32.5 34
q-43 0 -64.5 -94t-21.5 -238q0 -96 8.5 -231t14.5 -185q-230 0 -342 -22q14 98 27.5 269.5t13.5 332.5q0 361 -82 422zM350 -522q6 54 6 57q0 57 -13.5 97.5t-33 62.5t-38.5 39.5t-32.5 41t-13.5 54.5q0 57 60 97.5t180 43.5q-49 -34 -49 -73q0 -25 17.5 -49t42.5 -44.5
t50 -42t42.5 -50t17.5 -60.5q0 -61 -57 -108t-179 -66z" />
    <glyph glyph-name="Ncaron" unicode="&#x147;" horiz-adv-x="1064" 
d="M500 1225q84 120 162 181.5t178 61.5q38 0 68.5 -10t59 -35.5t44.5 -77.5t16 -128q0 -74 -33.5 -346.5t-33.5 -432.5q0 -261 77 -432q-277 0 -493 -16q55 181 88 474t33 515q0 67 -6.5 91t-28.5 24q-27 0 -47 -25.5t-31 -54.5q-33 -83 -51.5 -260.5t-18.5 -339.5
q0 -158 25 -406q-219 -3 -430 -28q100 270 100 663q0 226 -39.5 431t-118.5 351q232 58 359 58q82 0 111.5 -29.5t29.5 -93.5q0 -52 -20 -135zM575 1507q-23 60 -45.5 102.5t-56.5 87.5t-81 71t-105 30q59 103 141 103q88 0 160 -119q23 53 77.5 86t112.5 33q89 0 127 -74
q-101 -24 -188 -116.5t-142 -203.5z" />
    <glyph glyph-name="ncaron" unicode="&#x148;" horiz-adv-x="870" 
d="M27 1014q44 33 116.5 59.5t130.5 26.5q62 0 97 -32.5t35 -96.5q0 -6 -11 -86q51 103 107.5 161t136.5 58q63 0 101 -40t51.5 -100.5t13.5 -148.5q0 -70 -13.5 -261t-13.5 -263q0 -161 47 -279q-235 -7 -360 -18q21 145 35 332t14 301q0 65 -8.5 99t-32.5 34
q-43 0 -64.5 -94t-21.5 -238q0 -96 8.5 -231t14.5 -185q-230 0 -342 -22q14 98 27.5 269.5t13.5 332.5q0 361 -82 422zM422 1145q-23 59 -45.5 102t-57 88t-81.5 71t-105 30q58 102 141 102q88 0 160 -119q23 53 77.5 86t113.5 33q89 0 127 -74q-101 -24 -188 -116
t-142 -203z" />
    <glyph glyph-name="Eng" unicode="&#x14a;" horiz-adv-x="1064" 
d="M428 37q-24 -34 -42.5 -82.5t-18.5 -85.5q0 -44 26.5 -78.5t65.5 -34.5q33 0 60.5 27.5t48 81.5t36 124t26.5 165t18 193t11 219.5t5.5 234t1.5 246.5q0 47 -25 47q-67 0 -113 -213q-47 -211 -47 -484q0 -183 27 -282q-210 -3 -430 -29q102 282 102 610q0 408 -160 729
q232 58 359 58q82 0 111.5 -29.5t29.5 -93.5q0 -52 -20 -135q99 139 173 191t189 52q41 0 65 -7.5t46 -31t32.5 -71t16.5 -123t6 -191.5q0 -69 -1.5 -148.5t-13.5 -253.5t-32 -324t-63 -320t-101 -281q-61 -115 -142.5 -173t-197.5 -58q-146 0 -234.5 83.5t-88.5 199.5
q0 113 80.5 190.5t193.5 77.5z" />
    <glyph glyph-name="eng" unicode="&#x14b;" horiz-adv-x="870" 
d="M252 37q-22 -36 -39.5 -84t-17.5 -84q0 -44 25.5 -78.5t62.5 -34.5q51 0 92.5 70t66 172.5t42 227.5t24 227t6.5 178q0 65 -8.5 97t-34.5 32q-84 0 -84 -289q0 -162 23 -352q-225 0 -342 -23q41 344 41 529q0 298 -82 389q44 33 116.5 59.5t130.5 26.5q62 0 97 -32
t35 -95q0 -8 -11 -88q51 104 107.5 161.5t138.5 57.5q94 0 129 -80.5t35 -249.5q0 -132 -15 -315t-47 -338q-16 -76 -31 -137.5t-37.5 -129.5t-47 -119.5t-59 -100t-73.5 -80t-90 -50t-110 -18.5q-135 0 -218 84t-83 201q0 112 75.5 189t182.5 77z" />
    <glyph glyph-name="Omacron" unicode="&#x14c;" horiz-adv-x="976" 
d="M500 1483q89 0 162 -43.5t120.5 -115.5t79.5 -169t46 -199.5t14 -212.5q0 -80 -8 -161t-25 -171t-49.5 -166t-77 -139t-111.5 -99t-149 -36q-75 0 -138.5 31.5t-108.5 82.5t-80.5 121t-57.5 142.5t-36.5 151t-20 143t-5.5 121.5q0 92 14.5 187t48.5 191.5t84 171.5
t127 122t171 47zM389 735q0 -177 29 -285t80 -108q98 0 98 416q0 194 -22 284.5t-68 90.5q-50 0 -83.5 -102.5t-33.5 -295.5zM258 1737l510 -4q30 0 42.5 -7.5t12.5 -29.5q0 -64 -25 -94.5t-91 -36.5l-492 -19q-32 -2 -47.5 12.5t-15.5 53.5q0 38 18 84q15 25 30 33t58 8z
" />
    <glyph glyph-name="omacron" unicode="&#x14d;" horiz-adv-x="786" 
d="M403 1112q73 0 131.5 -31t96.5 -83t64 -124t37 -150.5t11 -166.5q0 -63 -6 -123.5t-20 -127t-40 -122t-62 -100.5t-91 -70.5t-123 -25.5q-84 0 -149.5 40.5t-103.5 102t-63 142t-33.5 150.5t-8.5 138q0 98 20 191t60.5 176t113 133.5t166.5 50.5zM315 555
q0 -129 24.5 -210t66.5 -81q40 0 60.5 78.5t20.5 216.5q0 285 -79 285q-39 0 -66 -75t-27 -214zM168 1374l510 -4q30 0 42.5 -7.5t12.5 -29.5q0 -64 -25 -94.5t-92 -36.5l-491 -18q-32 -2 -48 12t-16 53q0 35 19 84q15 25 30 33t58 8z" />
    <glyph glyph-name="Ohungarumlaut" unicode="&#x150;" horiz-adv-x="993" 
d="M500 1483q89 0 162 -43.5t120.5 -115.5t79.5 -169t46 -199.5t14 -212.5q0 -80 -8 -161t-25 -171t-49.5 -166t-77 -139t-111.5 -99t-149 -36q-75 0 -138.5 31.5t-108.5 82.5t-80.5 121t-57.5 142.5t-36.5 151t-20 143t-5.5 121.5q0 92 14.5 187t48.5 191.5t84 171.5
t127 122t171 47zM389 735q0 -177 29 -285t80 -108q98 0 98 416q0 194 -22 284.5t-68 90.5q-50 0 -83.5 -102.5t-33.5 -295.5zM885 1866q86 0 149 -70q-53 -6 -92 -43t-98 -129q-42 -66 -90.5 -102.5t-116.5 -36.5q-91 0 -143 61q59 29 100 70.5t106 132.5q76 117 185 117z
M545 1866q86 0 149 -70q-54 -6 -92 -42.5t-98 -129.5q-42 -66 -90.5 -102.5t-116.5 -36.5q-88 0 -143 61q60 29 99.5 70t104.5 133q39 58 83 87.5t104 29.5z" />
    <glyph glyph-name="ohungarumlaut" unicode="&#x151;" horiz-adv-x="894" 
d="M403 1112q73 0 131.5 -31t96.5 -83t64 -124t37 -150.5t11 -166.5q0 -63 -6 -123.5t-20 -127t-40 -122t-62 -100.5t-91 -70.5t-123 -25.5q-84 0 -149.5 40.5t-103.5 102t-63 142t-33.5 150.5t-8.5 138q0 98 20 191t60.5 176t113 133.5t166.5 50.5zM315 555
q0 -129 24.5 -210t66.5 -81q40 0 60.5 78.5t20.5 216.5q0 285 -79 285q-39 0 -66 -75t-27 -214zM743 1503q87 0 150 -69q-53 -6 -92.5 -43t-98.5 -129q-43 -66 -91 -103t-115 -37q-91 0 -144 62q60 29 101.5 71t105.5 131q38 58 81 87.5t103 29.5zM403 1503q87 0 150 -69
q-54 -6 -92.5 -42.5t-98.5 -129.5q-43 -66 -91 -103t-115 -37q-88 0 -144 62q61 29 101 70.5t104 131.5q40 58 83 87.5t103 29.5z" />
    <glyph glyph-name="OE" unicode="&#x152;" horiz-adv-x="1392" 
d="M1006 1487q61 0 112 -26.5t85.5 -69.5t61.5 -102t42.5 -118.5t25.5 -124.5t13.5 -115t3.5 -95q0 -84 -4 -121q-60 -5 -126.5 -25t-126 -51.5t-98.5 -78t-39 -97.5q0 -47 33 -76t78 -29q72 0 147 67t80 124q49 -21 49 -154q0 -59 -9 -115.5t-32.5 -114t-58.5 -100
t-91 -69.5t-126 -27q-163 0 -266 137q-103 -135 -258 -135q-75 0 -138.5 31.5t-108.5 82.5t-80.5 121t-57.5 142.5t-36.5 151t-20 143t-5.5 121.5q0 92 14.5 187t48.5 191.5t84 171.5t127 122t171 47q161 0 264 -137q100 141 242 141zM389 735q0 -177 29 -285t80 -108
q98 0 98 416q0 194 -22 284.5t-68 90.5q-50 0 -83.5 -102.5t-33.5 -295.5zM934 1073q-16 -49 -16 -149q0 -49 2 -72q70 62 120 88q4 24 4 49q0 51 -14.5 95t-42.5 44q-18 0 -32 -18.5t-21 -36.5z" />
    <glyph glyph-name="oe" unicode="&#x153;" horiz-adv-x="1136" 
d="M819 1110q60 0 108 -26t77.5 -70.5t50.5 -94.5t31 -108t14 -101.5t4 -82.5q0 -63 -4 -90q-65 -4 -136.5 -27.5t-126.5 -66.5t-55 -93q0 -35 27 -55.5t63 -20.5q59 0 122 52.5t69 97.5q39 -42 39 -137q0 -134 -71.5 -217.5t-196.5 -83.5q-135 0 -222 96q-78 -94 -211 -94
q-84 0 -149.5 40.5t-103.5 102t-63 142t-33.5 150.5t-8.5 138q0 98 20 191t60.5 176t113 133.5t166.5 50.5q130 0 215 -98q89 96 201 96zM758 700q0 -39 2 -53q64 48 102 68q7 137 -45 137q-59 0 -59 -152zM315 555q0 -129 24.5 -210t66.5 -81q40 0 60.5 78.5t20.5 216.5
q0 285 -79 285q-39 0 -66 -75t-27 -214z" />
    <glyph glyph-name="Racute" unicode="&#x154;" horiz-adv-x="1032" 
d="M39 1446q14 -2 45 -2q56 0 201 17.5t207 17.5q165 0 259.5 -80.5t94.5 -231.5q0 -115 -55 -211t-150 -161q18 -103 57.5 -228.5t94.5 -206.5q49 -75 102 -75q38 0 61 33.5t23 70.5q0 7 -1 14t-1 9q55 -47 55 -152q0 -121 -74.5 -211t-185.5 -90q-47 0 -92 18.5t-90.5 62
t-83.5 109.5t-71 168.5t-54 231.5q0 -17 -1 -55t-1 -60q0 -119 22 -220t76 -218q-125 16 -284 16q-89 0 -148 -6q61 385 61 787q0 405 -67 653zM434 1171q-33 -42 -33 -159q0 -70 15 -129q47 56 78.5 120t31.5 119q0 68 -51 68q-28 0 -41 -19zM608 1866q100 0 170 -70
q-60 -6 -104 -42.5t-113 -129.5q-48 -66 -101.5 -102.5t-131.5 -36.5q-101 0 -162 61q68 29 115 71.5t118 131.5q44 58 93 87.5t116 29.5z" />
    <glyph glyph-name="racute" unicode="&#x155;" horiz-adv-x="858" 
d="M403 862q69 132 133 184t140 52q71 0 115.5 -68.5t44.5 -165.5q0 -68 -22 -130t-75.5 -117t-132.5 -82q41 83 41 143q0 78 -43 78q-67 0 -131.5 -104t-64.5 -267q0 -184 100 -395q-71 12 -174 12q-55 0 -275 -10q1 4 19.5 51t23 62.5t18 67.5t18 95t9.5 115t5 156
q0 162 -11.5 253.5t-33.5 132t-62 54.5q33 50 100 84.5t138 34.5q58 0 94.5 -36t36.5 -99q0 -20 -5 -55.5t-6 -45.5zM588 1503q101 0 170 -69q-60 -6 -104 -42.5t-113 -129.5q-48 -66 -102 -103t-132 -37q-100 0 -162 62q69 29 116.5 71.5t117.5 130.5q44 58 93 87.5
t116 29.5z" />
    <glyph glyph-name="Rcommaaccent" unicode="&#x156;" horiz-adv-x="1032" 
d="M39 1446q14 -2 45 -2q56 0 201 17.5t207 17.5q165 0 259.5 -80.5t94.5 -231.5q0 -115 -55 -211t-150 -161q18 -103 57.5 -228.5t94.5 -206.5q49 -75 102 -75q38 0 61 33.5t23 70.5q0 7 -1 14t-1 9q55 -47 55 -152q0 -121 -74.5 -211t-185.5 -90q-47 0 -92 18.5t-90.5 62
t-83.5 109.5t-71 168.5t-54 231.5q0 -17 -1 -55t-1 -60q0 -119 22 -220t76 -218q-125 16 -284 16q-89 0 -148 -6q61 385 61 787q0 405 -67 653zM434 1171q-33 -42 -33 -159q0 -70 15 -129q47 56 78.5 120t31.5 119q0 68 -51 68q-28 0 -41 -19zM459 -522q6 54 6 57
q0 57 -13.5 97.5t-32.5 62.5t-38.5 39.5t-33 41t-13.5 54.5q0 57 59.5 97.5t179.5 43.5q-49 -34 -49 -73q0 -25 17.5 -49t42.5 -44.5t50 -42t42.5 -50t17.5 -60.5q0 -61 -56.5 -108t-178.5 -66z" />
    <glyph glyph-name="rcommaaccent" unicode="&#x157;" horiz-adv-x="858" 
d="M403 862q69 132 133 184t140 52q71 0 115.5 -68.5t44.5 -165.5q0 -68 -22 -130t-75.5 -117t-132.5 -82q41 83 41 143q0 78 -43 78q-67 0 -131.5 -104t-64.5 -267q0 -184 100 -395q-71 12 -174 12q-55 0 -275 -10q1 4 19.5 51t23 62.5t18 67.5t18 95t9.5 115t5 156
q0 162 -11.5 253.5t-33.5 132t-62 54.5q33 50 100 84.5t138 34.5q58 0 94.5 -36t36.5 -99q0 -20 -5 -55.5t-6 -45.5zM246 -522q6 54 6 57q0 57 -13.5 97.5t-32.5 62.5t-38.5 39.5t-33 41t-13.5 54.5q0 57 59.5 97.5t179.5 43.5q-49 -34 -49 -73q0 -25 17.5 -49t42.5 -44.5
t50 -42t42.5 -50t17.5 -60.5q0 -61 -56.5 -108t-178.5 -66z" />
    <glyph glyph-name="Rcaron" unicode="&#x158;" horiz-adv-x="1032" 
d="M39 1446q14 -2 45 -2q56 0 201 17.5t207 17.5q165 0 259.5 -80.5t94.5 -231.5q0 -115 -55 -211t-150 -161q18 -103 57.5 -228.5t94.5 -206.5q49 -75 102 -75q38 0 61 33.5t23 70.5q0 7 -1 14t-1 9q55 -47 55 -152q0 -121 -74.5 -211t-185.5 -90q-47 0 -92 18.5t-90.5 62
t-83.5 109.5t-71 168.5t-54 231.5q0 -17 -1 -55t-1 -60q0 -119 22 -220t76 -218q-125 16 -284 16q-89 0 -148 -6q61 385 61 787q0 405 -67 653zM434 1171q-33 -42 -33 -159q0 -70 15 -129q47 56 78.5 120t31.5 119q0 68 -51 68q-28 0 -41 -19zM453 1507q-23 59 -45.5 102
t-57 88t-81.5 71t-105 30q59 103 141 103q88 0 160 -119q23 53 77.5 86t112.5 33q89 0 127 -74q-69 -16 -136 -70.5t-112.5 -117t-80.5 -132.5z" />
    <glyph glyph-name="rcaron" unicode="&#x159;" horiz-adv-x="858" 
d="M403 862q69 132 133 184t140 52q71 0 115.5 -68.5t44.5 -165.5q0 -68 -22 -130t-75.5 -117t-132.5 -82q41 83 41 143q0 78 -43 78q-67 0 -131.5 -104t-64.5 -267q0 -184 100 -395q-71 12 -174 12q-55 0 -275 -10q1 4 19.5 51t23 62.5t18 67.5t18 95t9.5 115t5 156
q0 162 -11.5 253.5t-33.5 132t-62 54.5q33 50 100 84.5t138 34.5q58 0 94.5 -36t36.5 -99q0 -20 -5 -55.5t-6 -45.5zM430 1145q-23 59 -45.5 102t-57 88t-81.5 71t-105 30q58 102 142 102q87 0 159 -119q23 53 77.5 86t113.5 33q89 0 127 -74q-101 -24 -188 -116t-142 -203z
" />
    <glyph glyph-name="Sacute" unicode="&#x15a;" horiz-adv-x="774" 
d="M657 981q-5 46 -16.5 83t-40 67t-68.5 30q-37 0 -56 -23.5t-19 -60.5q0 -38 23.5 -81t55 -78.5t74 -94t70.5 -114.5q74 -145 74 -314q0 -106 -31.5 -189t-86 -132.5t-123 -75t-146.5 -25.5q-162 0 -258.5 102t-96.5 271q0 162 97 225q39 -221 149 -221q44 0 67 30.5
t23 72.5q0 52 -37.5 113t-96.5 136.5t-85 124.5q-78 135 -78 289q0 90 31 161.5t84.5 115.5t120 67t141.5 23q78 0 140 -25.5t98.5 -67t55.5 -91.5t19 -103q0 -118 -84 -215zM565 1866q100 0 170 -70q-60 -6 -104 -42.5t-113 -129.5q-48 -66 -101.5 -102.5t-131.5 -36.5
q-101 0 -162 61q68 29 115 71.5t118 131.5q44 58 93 87.5t116 29.5z" />
    <glyph glyph-name="sacute" unicode="&#x15b;" horiz-adv-x="645" 
d="M551 735q-7 48 -41.5 96t-77.5 48q-23 0 -37 -13.5t-14 -40.5q0 -36 28.5 -76t78 -100.5t81.5 -118.5q62 -124 62 -235q0 -145 -89 -231.5t-229 -86.5q-131 0 -212 76.5t-81 202.5q0 119 80 172q13 -83 49.5 -125.5t81.5 -42.5q33 0 51.5 20.5t18.5 51.5q0 39 -30.5 85.5
t-81.5 106.5t-74 97q-62 105 -62 215q0 131 82.5 204.5t204.5 73.5q115 0 196.5 -63t81.5 -158q0 -82 -67 -158zM481 1503q101 0 170 -69q-60 -6 -104 -42.5t-113 -129.5q-48 -67 -101.5 -103.5t-131.5 -36.5q-100 0 -162 62q69 29 116 71t117 131q44 58 93 87.5t116 29.5z
" />
    <glyph glyph-name="Scedilla" unicode="&#x15e;" horiz-adv-x="774" 
d="M657 981q-5 46 -16.5 83t-40 67t-68.5 30q-37 0 -56 -23.5t-19 -60.5q0 -38 23.5 -81t55 -78.5t74 -94t70.5 -114.5q74 -145 74 -314q0 -106 -31.5 -189t-86 -132.5t-123 -75t-146.5 -25.5q-162 0 -258.5 102t-96.5 271q0 162 97 225q39 -221 149 -221q44 0 67 30.5
t23 72.5q0 52 -37.5 113t-96.5 136.5t-85 124.5q-78 135 -78 289q0 90 31 161.5t84.5 115.5t120 67t141.5 23q78 0 140 -25.5t98.5 -67t55.5 -91.5t19 -103q0 -118 -84 -215zM332 -522q6 54 6 57q0 57 -13.5 97.5t-33 62.5t-38.5 39.5t-32.5 41t-13.5 54.5q0 57 59.5 97.5
t179.5 43.5q-49 -34 -49 -73q0 -25 17.5 -49t42.5 -44.5t50 -42t42.5 -50t17.5 -60.5q0 -61 -56.5 -108t-178.5 -66z" />
    <glyph glyph-name="scedilla" unicode="&#x15f;" horiz-adv-x="645" 
d="M551 735q-7 48 -41.5 96t-77.5 48q-23 0 -37 -13.5t-14 -40.5q0 -36 28.5 -76t78 -100.5t81.5 -118.5q62 -124 62 -235q0 -145 -89 -231.5t-229 -86.5q-131 0 -212 76.5t-81 202.5q0 119 80 172q13 -83 49.5 -125.5t81.5 -42.5q33 0 51.5 20.5t18.5 51.5q0 39 -30.5 85.5
t-81.5 106.5t-74 97q-62 105 -62 215q0 131 82.5 204.5t204.5 73.5q115 0 196.5 -63t81.5 -158q0 -82 -67 -158zM279 -522q6 54 6 57q0 57 -13.5 97.5t-32.5 62.5t-38.5 39.5t-33 41t-13.5 54.5q0 57 59.5 97.5t179.5 43.5q-49 -34 -49 -73q0 -25 17.5 -49t42.5 -44.5
t50 -42t42.5 -50t17.5 -60.5q0 -61 -56.5 -108t-178.5 -66z" />
    <glyph glyph-name="Scaron" unicode="&#x160;" horiz-adv-x="774" 
d="M657 981q-5 46 -16.5 83t-40 67t-68.5 30q-37 0 -56 -23.5t-19 -60.5q0 -38 23.5 -81t55 -78.5t74 -94t70.5 -114.5q74 -145 74 -314q0 -106 -31.5 -189t-86 -132.5t-123 -75t-146.5 -25.5q-162 0 -258.5 102t-96.5 271q0 162 97 225q39 -221 149 -221q44 0 67 30.5
t23 72.5q0 52 -37.5 113t-96.5 136.5t-85 124.5q-78 135 -78 289q0 90 31 161.5t84.5 115.5t120 67t141.5 23q78 0 140 -25.5t98.5 -67t55.5 -91.5t19 -103q0 -118 -84 -215zM408 1507q-23 59 -45.5 102t-57 88t-81.5 71t-105 30q59 103 141 103q88 0 160 -119
q23 53 77.5 86t112.5 33q89 0 127 -74q-69 -16 -136 -70.5t-112.5 -117t-80.5 -132.5z" />
    <glyph glyph-name="scaron" unicode="&#x161;" horiz-adv-x="645" 
d="M551 735q-7 48 -41.5 96t-77.5 48q-23 0 -37 -13.5t-14 -40.5q0 -36 28.5 -76t78 -100.5t81.5 -118.5q62 -124 62 -235q0 -145 -89 -231.5t-229 -86.5q-131 0 -212 76.5t-81 202.5q0 119 80 172q13 -83 49.5 -125.5t81.5 -42.5q33 0 51.5 20.5t18.5 51.5q0 39 -30.5 85.5
t-81.5 106.5t-74 97q-62 105 -62 215q0 131 82.5 204.5t204.5 73.5q115 0 196.5 -63t81.5 -158q0 -82 -67 -158zM342 1145q-23 59 -45.5 102t-57 88t-81.5 71t-105 30q58 102 142 102q87 0 159 -119q23 53 77.5 86t113.5 33q89 0 127 -74q-101 -24 -188 -116t-142 -203z" />
    <glyph glyph-name="Tcaron" unicode="&#x164;" horiz-adv-x="870" 
d="M831 1477q19 -157 19 -260q0 -309 -125 -383q2 10 2 47q0 39 -4.5 80t-14.5 83t-29.5 68.5t-45.5 26.5q-84 0 -84 -254q0 -153 26 -322t56 -287q16 -70 35.5 -111.5t87.5 -162.5q-136 4 -242 4q-214 0 -395 -12q82 146 145.5 394t63.5 466q0 49 -4 92.5t-12.5 85.5
t-26 67t-41.5 25q-41 0 -64.5 -64.5t-23.5 -152.5q0 -64 10 -106q-82 44 -121 149.5t-39 233.5q0 167 41 254q490 4 786 39zM414 1507q-23 59 -45.5 102t-57 88t-81.5 71t-105 30q59 103 141 103q88 0 160 -119q23 53 77.5 86t112.5 33q89 0 127 -74q-69 -16 -136 -70.5
t-112.5 -117t-80.5 -132.5z" />
    <glyph glyph-name="tcaron" unicode="&#x165;" horiz-adv-x="856" 
d="M504 942q0 -28 -15 -145q25 4 94.5 17.5t102.5 16.5q0 -95 -55.5 -135.5t-188.5 -46.5q-36 -71 -36 -213q0 -119 51 -119q16 0 31.5 11.5t29 34.5t21.5 39.5t20 45.5t14 33q60 -57 60 -180q0 -86 -27 -160.5t-84.5 -124t-134.5 -49.5q-110 0 -177 95t-67 245
q0 37 8.5 169t8.5 200q0 306 -160 426q75 72 246 72q128 0 193 -53.5t65 -178.5zM682 881q-127 47 -127 166q0 51 37 161t37 168q0 67 -37 107q18 2 49 2q103 0 161 -57.5t58 -139.5q0 -45 -18.5 -85t-45.5 -70.5l-54 -61t-45.5 -69.5t-18.5 -82q0 -19 4 -39z" />
    <glyph glyph-name="Tbar" unicode="&#x166;" horiz-adv-x="870" 
d="M188 735l134 -2q4 82 4 121q0 49 -4 92.5t-12.5 85.5t-26 67t-41.5 25q-41 0 -64.5 -64.5t-23.5 -152.5q0 -64 10 -106q-82 44 -121 149.5t-39 233.5q0 167 41 254q490 4 786 39q19 -157 19 -260q0 -309 -125 -383q2 10 2 47q0 39 -4.5 80t-14.5 83t-29.5 68.5
t-45.5 26.5q-84 0 -84 -254q0 -77 6 -154h180q34 0 47 -8t13 -33q0 -69 -26 -102t-97 -37l-94 -4q17 -118 53 -271q16 -70 35.5 -111.5t87.5 -162.5q-136 4 -242 4q-214 0 -395 -12q52 89 99.5 235t76.5 308l-152 -7q-34 -2 -51.5 13.5t-17.5 56.5q0 37 22 92q13 26 29 34.5
t65 8.5z" />
    <glyph glyph-name="tbar" unicode="&#x167;" horiz-adv-x="686" 
d="M145 612h13q2 23 2 64q0 306 -160 426q75 72 246 72q128 0 193 -53.5t65 -178.5q0 -28 -15 -145q25 4 94.5 17.5t102.5 16.5q0 -95 -55.5 -135.5t-188.5 -46.5q-8 -15 -14 -41h152q33 0 41 -5t8 -19q0 -40 -22.5 -62.5t-78.5 -23.5l-120 -4q-2 -20 -2 -58q0 -119 51 -119
q16 0 31.5 11.5t29 34.5t21.5 39.5t20 45.5t14 33q60 -57 60 -180q0 -86 -27 -160.5t-84.5 -124t-134.5 -49.5q-110 0 -177 95t-67 245q0 20 9 178h-46q-33 0 -43 12.5t-10 37.5q0 77 92 77z" />
    <glyph glyph-name="Utilde" unicode="&#x168;" horiz-adv-x="1028" 
d="M20 1473q174 -29 259 -29q75 0 141 14q0 -4 -9 -110.5t-16 -199t-13.5 -230.5t-6.5 -246q0 -181 20 -259.5t66 -78.5q44 0 61 71.5t17 256.5q0 211 -18 441.5t-44 364.5q156 -24 314 -24q65 0 102 2q-53 -207 -53 -647q0 -70 1.5 -123.5t5.5 -113.5t12.5 -102.5
t21.5 -78.5t33.5 -54t46.5 -18q25 0 55 27q12 -52 12 -96q0 -107 -61.5 -171.5t-143.5 -64.5q-55 0 -101.5 29.5t-76.5 87.5q-50 -73 -112.5 -104t-143.5 -31q-172 0 -258 122.5t-86 356.5q0 78 15.5 247t15.5 273q0 243 -56 488zM139 1546q25 129 80.5 180.5t138.5 51.5
q53 0 171 -27t173 -27q78 0 134 37q-49 -136 -111 -190.5t-141 -54.5q-53 0 -166 32.5t-166 32.5q-68 0 -113 -35z" />
    <glyph glyph-name="utilde" unicode="&#x169;" horiz-adv-x="901" 
d="M37 1059q77 41 176 41q233 0 233 -201q0 -77 -46 -279t-46 -253q0 -35 12.5 -58.5t26.5 -23.5q43 0 85 164t42 337q0 209 -76 295q59 19 117 19q111 0 181.5 -58t70.5 -176q0 -68 -36 -225t-36 -219q0 -53 16.5 -82t43.5 -29q40 0 71 51q19 -55 19 -112
q0 -105 -57 -187.5t-132 -82.5q-93 0 -161 147q-47 -69 -100.5 -105t-131.5 -36q-56 0 -99 19.5t-69.5 50.5t-43 74t-23 86.5t-6.5 92.5q0 74 24.5 250t24.5 256q0 167 -80 244zM98 1184q25 129 80.5 180t138.5 51q53 0 171.5 -26.5t173.5 -26.5q77 0 133 37
q-49 -136 -111 -191t-141 -55q-53 0 -166 33t-166 33q-68 0 -113 -35z" />
    <glyph glyph-name="Umacron" unicode="&#x16a;" horiz-adv-x="1028" 
d="M20 1473q174 -29 259 -29q75 0 141 14q0 -4 -9 -110.5t-16 -199t-13.5 -230.5t-6.5 -246q0 -181 20 -259.5t66 -78.5q44 0 61 71.5t17 256.5q0 211 -18 441.5t-44 364.5q156 -24 314 -24q65 0 102 2q-53 -207 -53 -647q0 -70 1.5 -123.5t5.5 -113.5t12.5 -102.5
t21.5 -78.5t33.5 -54t46.5 -18q25 0 55 27q12 -52 12 -96q0 -107 -61.5 -171.5t-143.5 -64.5q-55 0 -101.5 29.5t-76.5 87.5q-50 -73 -112.5 -104t-143.5 -31q-172 0 -258 122.5t-86 356.5q0 78 15.5 247t15.5 273q0 243 -56 488zM240 1737l510 -4q30 0 42.5 -7.5
t12.5 -29.5q0 -64 -25 -94.5t-92 -36.5l-491 -19q-32 -2 -48 12.5t-16 53.5q0 35 19 84q15 25 30 33t58 8z" />
    <glyph glyph-name="umacron" unicode="&#x16b;" horiz-adv-x="901" 
d="M37 1059q77 41 176 41q233 0 233 -201q0 -77 -46 -279t-46 -253q0 -35 12.5 -58.5t26.5 -23.5q43 0 85 164t42 337q0 209 -76 295q59 19 117 19q111 0 181.5 -58t70.5 -176q0 -68 -36 -225t-36 -219q0 -53 16.5 -82t43.5 -29q40 0 71 51q19 -55 19 -112
q0 -105 -57 -187.5t-132 -82.5q-93 0 -161 147q-47 -69 -100.5 -105t-131.5 -36q-56 0 -99 19.5t-69.5 50.5t-43 74t-23 86.5t-6.5 92.5q0 74 24.5 250t24.5 256q0 167 -80 244zM209 1374l510 -4q30 0 42.5 -7.5t12.5 -29.5q0 -64 -25 -94.5t-92 -36.5l-491 -18
q-32 -2 -48 12t-16 53q0 35 19 84q15 25 30 33t58 8z" />
    <glyph glyph-name="Ubreve" unicode="&#x16c;" horiz-adv-x="1028" 
d="M20 1473q174 -29 259 -29q75 0 141 14q0 -4 -9 -110.5t-16 -199t-13.5 -230.5t-6.5 -246q0 -181 20 -259.5t66 -78.5q44 0 61 71.5t17 256.5q0 211 -18 441.5t-44 364.5q156 -24 314 -24q65 0 102 2q-53 -207 -53 -647q0 -70 1.5 -123.5t5.5 -113.5t12.5 -102.5
t21.5 -78.5t33.5 -54t46.5 -18q25 0 55 27q12 -52 12 -96q0 -107 -61.5 -171.5t-143.5 -64.5q-55 0 -101.5 29.5t-76.5 87.5q-50 -73 -112.5 -104t-143.5 -31q-172 0 -258 122.5t-86 356.5q0 78 15.5 247t15.5 273q0 243 -56 488zM371 1829q-25 -64 -25 -100q0 -87 113 -87
q67 0 104 31t37 94q0 34 -10 68q88 -14 134 -60t46 -102q0 -79 -86 -133.5t-231 -54.5q-140 0 -216.5 48.5t-76.5 125.5q0 67 55.5 117t155.5 53z" />
    <glyph glyph-name="ubreve" unicode="&#x16d;" horiz-adv-x="901" 
d="M37 1059q77 41 176 41q233 0 233 -201q0 -77 -46 -279t-46 -253q0 -35 12.5 -58.5t26.5 -23.5q43 0 85 164t42 337q0 209 -76 295q59 19 117 19q111 0 181.5 -58t70.5 -176q0 -68 -36 -225t-36 -219q0 -53 16.5 -82t43.5 -29q40 0 71 51q19 -55 19 -112
q0 -105 -57 -187.5t-132 -82.5q-93 0 -161 147q-47 -69 -100.5 -105t-131.5 -36q-56 0 -99 19.5t-69.5 50.5t-43 74t-23 86.5t-6.5 92.5q0 74 24.5 250t24.5 256q0 167 -80 244zM340 1466q-25 -64 -25 -100q0 -86 113 -86q67 0 104 31t37 94q0 34 -10 68q88 -14 134 -60
t46 -102q0 -80 -86.5 -134.5t-230.5 -54.5q-140 0 -216.5 48.5t-76.5 125.5q0 67 55.5 117t155.5 53z" />
    <glyph glyph-name="Uring" unicode="&#x16e;" horiz-adv-x="1028" 
d="M20 1473q174 -29 259 -29q75 0 141 14q0 -4 -9 -110.5t-16 -199t-13.5 -230.5t-6.5 -246q0 -181 20 -259.5t66 -78.5q44 0 61 71.5t17 256.5q0 211 -18 441.5t-44 364.5q156 -24 314 -24q65 0 102 2q-53 -207 -53 -647q0 -70 1.5 -123.5t5.5 -113.5t12.5 -102.5
t21.5 -78.5t33.5 -54t46.5 -18q25 0 55 27q12 -52 12 -96q0 -107 -61.5 -171.5t-143.5 -64.5q-55 0 -101.5 29.5t-76.5 87.5q-50 -73 -112.5 -104t-143.5 -31q-172 0 -258 122.5t-86 356.5q0 78 15.5 247t15.5 273q0 243 -56 488zM254 1675q0 82 56.5 139.5t138.5 57.5
t139 -57.5t57 -139.5q0 -83 -57 -138.5t-139 -55.5t-138.5 55.5t-56.5 138.5zM389 1683q0 -26 17 -42.5t43 -16.5t43.5 16.5t17.5 42.5t-17.5 44t-43.5 18t-43 -18t-17 -44z" />
    <glyph glyph-name="uring" unicode="&#x16f;" horiz-adv-x="901" 
d="M37 1059q77 41 176 41q233 0 233 -201q0 -77 -46 -279t-46 -253q0 -35 12.5 -58.5t26.5 -23.5q43 0 85 164t42 337q0 209 -76 295q59 19 117 19q111 0 181.5 -58t70.5 -176q0 -68 -36 -225t-36 -219q0 -53 16.5 -82t43.5 -29q40 0 71 51q19 -55 19 -112
q0 -105 -57 -187.5t-132 -82.5q-93 0 -161 147q-47 -69 -100.5 -105t-131.5 -36q-56 0 -99 19.5t-69.5 50.5t-43 74t-23 86.5t-6.5 92.5q0 74 24.5 250t24.5 256q0 167 -80 244zM236 1313q0 82 56 139t138 57t139.5 -57t57.5 -139q0 -83 -57.5 -139t-139.5 -56t-138 56
t-56 139zM371 1321q0 -26 16.5 -42.5t42.5 -16.5q27 0 44.5 16.5t17.5 42.5t-18 43.5t-44 17.5t-42.5 -17.5t-16.5 -43.5z" />
    <glyph glyph-name="Uhungarumlaut" unicode="&#x170;" horiz-adv-x="1028" 
d="M20 1473q174 -29 259 -29q75 0 141 14q0 -4 -9 -110.5t-16 -199t-13.5 -230.5t-6.5 -246q0 -181 20 -259.5t66 -78.5q44 0 61 71.5t17 256.5q0 211 -18 441.5t-44 364.5q156 -24 314 -24q65 0 102 2q-53 -207 -53 -647q0 -70 1.5 -123.5t5.5 -113.5t12.5 -102.5
t21.5 -78.5t33.5 -54t46.5 -18q25 0 55 27q12 -52 12 -96q0 -107 -61.5 -171.5t-143.5 -64.5q-55 0 -101.5 29.5t-76.5 87.5q-50 -73 -112.5 -104t-143.5 -31q-172 0 -258 122.5t-86 356.5q0 78 15.5 247t15.5 273q0 243 -56 488zM848 1866q86 0 149 -70q-53 -6 -92 -43
t-98 -129q-42 -66 -90.5 -102.5t-116.5 -36.5q-91 0 -143 61q60 29 101 71t106 132q38 58 81 87.5t103 29.5zM508 1866q86 0 149 -70q-54 -6 -92 -42.5t-98 -129.5q-42 -66 -90.5 -102.5t-116.5 -36.5q-88 0 -143 61q61 29 101 70.5t104 132.5q40 58 83 87.5t103 29.5z" />
    <glyph glyph-name="uhungarumlaut" unicode="&#x171;" horiz-adv-x="901" 
d="M37 1059q77 41 176 41q233 0 233 -201q0 -77 -46 -279t-46 -253q0 -35 12.5 -58.5t26.5 -23.5q43 0 85 164t42 337q0 209 -76 295q59 19 117 19q111 0 181.5 -58t70.5 -176q0 -68 -36 -225t-36 -219q0 -53 16.5 -82t43.5 -29q40 0 71 51q19 -55 19 -112
q0 -105 -57 -187.5t-132 -82.5q-93 0 -161 147q-47 -69 -100.5 -105t-131.5 -36q-56 0 -99 19.5t-69.5 50.5t-43 74t-23 86.5t-6.5 92.5q0 74 24.5 250t24.5 256q0 167 -80 244zM764 1503q86 0 149 -69q-53 -6 -92 -43t-98 -129q-43 -66 -91 -103t-116 -37q-90 0 -143 62
q60 29 101.5 71t105.5 131q38 58 81 87.5t103 29.5zM424 1503q86 0 149 -69q-54 -6 -92 -42.5t-98 -129.5q-43 -66 -91 -103t-116 -37q-87 0 -143 62q61 29 101 70.5t104 131.5q40 58 83 87.5t103 29.5z" />
    <glyph glyph-name="Uogonek" unicode="&#x172;" horiz-adv-x="1028" 
d="M20 1473q174 -29 259 -29q75 0 141 14q0 -4 -9 -110.5t-16 -199t-13.5 -230.5t-6.5 -246q0 -181 20 -259.5t66 -78.5q44 0 61 71.5t17 256.5q0 211 -18 441.5t-44 364.5q156 -24 314 -24q65 0 102 2q-53 -207 -53 -647q0 -70 1.5 -123.5t5.5 -113.5t12.5 -102.5
t21.5 -78.5t33.5 -54t46.5 -18q25 0 55 27q12 -52 12 -96q0 -107 -61.5 -171.5t-143.5 -64.5q-55 0 -101.5 29.5t-76.5 87.5q-50 -73 -112.5 -104t-143.5 -31q-172 0 -258 122.5t-86 356.5q0 78 15.5 247t15.5 273q0 243 -56 488zM627 -29q-44 -36 -72.5 -84t-28.5 -88
q0 -47 34 -72.5t75 -25.5q53 0 119 44.5t106 96.5q-26 -180 -117 -268t-206 -88q-99 0 -169.5 57.5t-70.5 151.5q0 77 53 141t127.5 98t149.5 37z" />
    <glyph glyph-name="uogonek" unicode="&#x173;" horiz-adv-x="901" 
d="M37 1059q77 41 176 41q233 0 233 -201q0 -77 -46 -279t-46 -253q0 -35 12.5 -58.5t26.5 -23.5q43 0 85 164t42 337q0 209 -76 295q59 19 117 19q111 0 181.5 -58t70.5 -176q0 -68 -36 -225t-36 -219q0 -53 16.5 -82t43.5 -29q40 0 71 51q19 -55 19 -112
q0 -105 -57 -187.5t-132 -82.5q-93 0 -161 147q-47 -69 -100.5 -105t-131.5 -36q-56 0 -99 19.5t-69.5 50.5t-43 74t-23 86.5t-6.5 92.5q0 74 24.5 250t24.5 256q0 167 -80 244zM616 -29q-44 -36 -72 -83.5t-28 -88.5q0 -47 34 -72.5t75 -25.5q53 0 119 44.5t106 96.5
q-26 -180 -117.5 -268t-206.5 -88q-99 0 -169 57.5t-70 151.5q0 77 52.5 141t127 98t149.5 37z" />
    <glyph glyph-name="Wcircumflex" unicode="&#x174;" horiz-adv-x="1222" 
d="M850 1511q2 -36 4 -59t10.5 -42.5t15 -29.5t26.5 -22.5t34 -18.5t49 -20q219 -90 219 -352q0 -86 -22.5 -171t-55 -154t-64.5 -134.5t-54.5 -137.5t-22.5 -139q0 -79 28 -119.5t83 -64.5q-38 -100 -164 -100q-61 0 -111.5 27t-81.5 67t-52 89.5t-29.5 91.5t-8.5 75
q0 57 21 145q-70 -119 -70 -235q0 -139 68 -221q-131 16 -275 16q-94 0 -141 -2q98 95 98 295q0 77 -21.5 141t-48 102.5t-83.5 106.5q-191 232 -191 471q0 135 52.5 245.5t138.5 131.5q-15 -24 -15 -61q0 -29 11 -54t34 -49.5t44 -41.5t57.5 -44.5t56.5 -44.5
q205 -166 205 -383q0 -83 -38 -212t-42 -193q14 34 55 107t63.5 135.5t22.5 131.5q0 72 -23 140t-63 114q5 0 15 1t20 1q114 0 199.5 -90t85.5 -217q0 -67 -37 -162.5t-37 -148.5q0 -29 2 -43q13 68 42 127t49 108t20 109t-19.5 112t-47 92t-55.5 82.5t-47.5 102
t-19.5 131.5q0 86 26.5 157.5t84.5 110.5zM590 1935q18 -47 34.5 -81.5t42.5 -74.5t54.5 -66t69.5 -45.5t88 -22.5q-60 -103 -142 -103q-87 0 -159 119q-23 -53 -77.5 -86t-113.5 -33q-90 0 -127 76q101 23 188 114.5t142 202.5z" />
    <glyph glyph-name="wcircumflex" unicode="&#x175;" horiz-adv-x="1103" 
d="M201 1135q-6 -27 -6 -72q0 -51 16.5 -89.5t43 -62.5t59 -45t64.5 -45t58.5 -54t43 -80t16.5 -116q0 -65 -25.5 -144t-30.5 -103q52 49 84.5 127t32.5 165q0 111 -70 175q27 12 62 12q76 0 133 -66t57 -168q0 -37 -10 -114t-12 -107q5 14 28.5 63t36.5 93.5t13 93.5
q0 37 -7.5 69t-25 60.5t-28 43t-36.5 42t-30 31.5q-52 58 -52 129q0 98 95 157q2 -24 5 -42.5t11 -35.5t12.5 -28t20 -26t22 -22t30.5 -23t34 -22t43 -26q176 -102 176 -299q0 -82 -29 -156.5t-82 -160.5q-6 -11 -29 -50t-32 -56.5t-19 -48.5t-10 -58q0 -35 25 -74
q-44 -20 -86 -20q-97 0 -156 100t-59 233q-51 -104 -51 -213q0 -52 14 -98q-98 4 -152 4q-124 0 -223 -16q66 112 66 223q0 63 -22 127t-53.5 119t-63.5 109.5t-54 118.5t-22 126q0 61 17.5 123.5t58.5 119t98 77.5zM530 1573q24 -60 46 -102.5t56 -87.5t81 -71t106 -30
q-60 -102 -141 -102q-89 0 -160 118q-23 -53 -77 -85.5t-113 -32.5q-90 0 -127 75q101 23 187 114.5t142 203.5z" />
    <glyph glyph-name="Ycircumflex" unicode="&#x176;" horiz-adv-x="987" 
d="M166 1501q34 21 74 21q59 0 103 -37.5t63.5 -88t19.5 -102.5t-33 -179t-33 -171q0 -67 42 -111.5t94 -44.5q41 0 68.5 31.5t37.5 69.5t10 76q0 36 -19.5 136.5t-19.5 149.5q0 36 8 69.5t25 64t49.5 49t75.5 18.5q73 0 103 -49q-32 0 -46 -22t-14 -52q0 -75 78 -180
q54 -71 77 -124.5t23 -143.5q0 -112 -39.5 -177.5t-115.5 -105.5q-41 -22 -60 -32.5t-50 -30.5t-45.5 -35.5t-30.5 -38t-22.5 -49t-6.5 -58.5q0 -136 147 -372q-147 18 -303 18q-125 0 -248 -12q172 233 172 383q0 37 -8.5 65.5t-33 58.5t-48.5 52t-74 63
q-82 68 -116.5 138.5t-34.5 187.5q0 74 18 133.5t72 147.5q31 51 44.5 75t28.5 62.5t15 66.5q0 64 -47 80zM535 1935q19 -47 35 -81.5t42 -74.5t54 -66t69 -45.5t88 -22.5q-60 -103 -141 -103q-88 0 -160 119q-23 -53 -77.5 -86t-112.5 -33q-90 0 -127 76q101 23 188 114.5
t142 202.5z" />
    <glyph glyph-name="ycircumflex" unicode="&#x177;" horiz-adv-x="876" 
d="M846 1067q-90 -22 -90 -149q0 -67 42 -238t42 -264q0 -198 -124 -335.5t-294 -137.5q-141 0 -247.5 91t-106.5 238q0 20 4 56q43 -50 119.5 -82.5t154.5 -32.5q117 0 117 84q0 33 -19 45t-65 12q-126 0 -201 32.5t-112 111.5q-25 56 -25 118q0 64 22 142.5t44 144.5
t22 101q0 63 -63 77q51 39 129 39q98 0 143 -57.5t45 -136.5q0 -44 -19.5 -143t-19.5 -136q0 -92 80 -92q57 0 85 41.5t28 99.5q0 46 -25 133.5t-25 122.5q0 70 48 130.5t141 60.5q110 0 170 -76zM457 1573q19 -47 35 -81.5t42 -75t54 -66.5t69 -45.5t88 -22.5
q-60 -102 -141 -102q-89 0 -160 118q-23 -53 -77 -85.5t-113 -32.5q-90 0 -127 75q101 23 188 114.5t142 203.5z" />
    <glyph glyph-name="Ydieresis" unicode="&#x178;" horiz-adv-x="987" 
d="M166 1501q34 21 74 21q59 0 103 -37.5t63.5 -88t19.5 -102.5t-33 -179t-33 -171q0 -67 42 -111.5t94 -44.5q41 0 68.5 31.5t37.5 69.5t10 76q0 36 -19.5 136.5t-19.5 149.5q0 36 8 69.5t25 64t49.5 49t75.5 18.5q73 0 103 -49q-32 0 -46 -22t-14 -52q0 -75 78 -180
q54 -71 77 -124.5t23 -143.5q0 -112 -39.5 -177.5t-115.5 -105.5q-41 -22 -60 -32.5t-50 -30.5t-45.5 -35.5t-30.5 -38t-22.5 -49t-6.5 -58.5q0 -136 147 -372q-147 18 -303 18q-125 0 -248 -12q172 233 172 383q0 37 -8.5 65.5t-33 58.5t-48.5 52t-74 63
q-82 68 -116.5 138.5t-34.5 187.5q0 74 18 133.5t72 147.5q31 51 44.5 75t28.5 62.5t15 66.5q0 64 -47 80zM182 1700q0 64 42 108.5t102 44.5q61 0 103 -44t42 -109q0 -66 -41.5 -110t-103.5 -44q-60 0 -102 44t-42 110zM559 1642q0 65 41.5 109.5t101.5 44.5
q61 0 103.5 -44.5t42.5 -109.5q0 -66 -42 -109.5t-104 -43.5q-60 0 -101.5 43.5t-41.5 109.5z" />
    <glyph glyph-name="Zacute" unicode="&#x179;" horiz-adv-x="890" 
d="M113 1477q286 -43 432 -43q171 0 295 41q-2 -85 -52 -239.5t-108.5 -295.5t-107 -288.5t-48.5 -221.5q0 -56 22 -81t56 -25q42 0 71 40t29 97q0 23 -6.5 55.5t-7.5 38.5q78 -32 129 -121.5t51 -191.5q0 -118 -77 -193.5t-236 -75.5q-59 0 -192.5 18.5t-200.5 18.5
q-66 0 -127 -12q0 96 68 283t161.5 406t122.5 312q21 71 21 117q0 70 -33 70q-41 0 -84.5 -90.5t-50.5 -239.5q-50 21 -86 94t-51 161t-15 179q0 120 25 187zM645 1866q100 0 170 -70q-60 -6 -104 -42.5t-113 -129.5q-48 -66 -101.5 -102.5t-131.5 -36.5q-101 0 -162 61
q68 29 115 71.5t118 131.5q44 58 93 87.5t116 29.5z" />
    <glyph glyph-name="zacute" unicode="&#x17a;" horiz-adv-x="796" 
d="M715 1100q0 -84 -26 -175.5t-63.5 -168.5t-75 -149.5t-63.5 -143t-26 -125.5q0 -45 16 -68.5t43 -23.5q28 0 50.5 26.5t35 66.5t19 81t6.5 76q135 -66 135 -258q0 -74 -18 -125.5t-51.5 -78t-72 -37.5t-87.5 -11q-47 0 -153.5 14t-164.5 14q-87 0 -182 -18
q8 105 30.5 188t48 132t74.5 128q14 22 34.5 55t30.5 49t25.5 41t22.5 37.5t16.5 30.5t14 28.5t9 23.5t6 23t1.5 20q0 51 -45 51q-38 0 -69.5 -39.5t-47.5 -88t-24 -100.5q-52 37 -76.5 118t-24.5 181q0 98 29 216q159 -25 303 -25q165 0 320 35zM578 1503q101 0 170 -69
q-60 -6 -104.5 -43t-113.5 -129q-48 -67 -101.5 -103.5t-131.5 -36.5q-100 0 -162 62q69 29 116.5 71.5t117.5 130.5q44 58 93 87.5t116 29.5z" />
    <glyph glyph-name="Zdotaccent" unicode="&#x17b;" horiz-adv-x="890" 
d="M113 1477q286 -43 432 -43q171 0 295 41q-2 -85 -52 -239.5t-108.5 -295.5t-107 -288.5t-48.5 -221.5q0 -56 22 -81t56 -25q42 0 71 40t29 97q0 23 -6.5 55.5t-7.5 38.5q78 -32 129 -121.5t51 -191.5q0 -118 -77 -193.5t-236 -75.5q-59 0 -192.5 18.5t-200.5 18.5
q-66 0 -127 -12q0 96 68 283t161.5 406t122.5 312q21 71 21 117q0 70 -33 70q-41 0 -84.5 -90.5t-50.5 -239.5q-50 21 -86 94t-51 161t-15 179q0 120 25 187zM336 1700q0 64 41.5 108.5t101.5 44.5q62 0 104 -44.5t42 -108.5q0 -66 -42 -110t-104 -44q-60 0 -101.5 44
t-41.5 110z" />
    <glyph glyph-name="zdotaccent" unicode="&#x17c;" horiz-adv-x="796" 
d="M715 1100q0 -84 -26 -175.5t-63.5 -168.5t-75 -149.5t-63.5 -143t-26 -125.5q0 -45 16 -68.5t43 -23.5q28 0 50.5 26.5t35 66.5t19 81t6.5 76q135 -66 135 -258q0 -74 -18 -125.5t-51.5 -78t-72 -37.5t-87.5 -11q-47 0 -153.5 14t-164.5 14q-87 0 -182 -18
q8 105 30.5 188t48 132t74.5 128q14 22 34.5 55t30.5 49t25.5 41t22.5 37.5t16.5 30.5t14 28.5t9 23.5t6 23t1.5 20q0 51 -45 51q-38 0 -69.5 -39.5t-47.5 -88t-24 -100.5q-52 37 -76.5 118t-24.5 181q0 98 29 216q159 -25 303 -25q165 0 320 35zM258 1337q0 65 41.5 109.5
t101.5 44.5q61 0 103.5 -44.5t42.5 -109.5q0 -66 -42 -109.5t-104 -43.5q-60 0 -101.5 43.5t-41.5 109.5z" />
    <glyph glyph-name="Zcaron" unicode="&#x17d;" horiz-adv-x="890" 
d="M113 1477q286 -43 432 -43q171 0 295 41q-2 -85 -52 -239.5t-108.5 -295.5t-107 -288.5t-48.5 -221.5q0 -56 22 -81t56 -25q42 0 71 40t29 97q0 23 -6.5 55.5t-7.5 38.5q78 -32 129 -121.5t51 -191.5q0 -118 -77 -193.5t-236 -75.5q-59 0 -192.5 18.5t-200.5 18.5
q-66 0 -127 -12q0 96 68 283t161.5 406t122.5 312q21 71 21 117q0 70 -33 70q-41 0 -84.5 -90.5t-50.5 -239.5q-50 21 -86 94t-51 161t-15 179q0 120 25 187zM461 1507q-23 59 -45.5 102t-57 88t-81.5 71t-105 30q59 103 141 103q88 0 160 -119q23 53 77.5 86t113.5 33
q89 0 127 -74q-101 -24 -188 -116.5t-142 -203.5z" />
    <glyph glyph-name="zcaron" unicode="&#x17e;" horiz-adv-x="796" 
d="M715 1100q0 -84 -26 -175.5t-63.5 -168.5t-75 -149.5t-63.5 -143t-26 -125.5q0 -45 16 -68.5t43 -23.5q28 0 50.5 26.5t35 66.5t19 81t6.5 76q135 -66 135 -258q0 -74 -18 -125.5t-51.5 -78t-72 -37.5t-87.5 -11q-47 0 -153.5 14t-164.5 14q-87 0 -182 -18
q8 105 30.5 188t48 132t74.5 128q14 22 34.5 55t30.5 49t25.5 41t22.5 37.5t16.5 30.5t14 28.5t9 23.5t6 23t1.5 20q0 51 -45 51q-38 0 -69.5 -39.5t-47.5 -88t-24 -100.5q-52 37 -76.5 118t-24.5 181q0 98 29 216q159 -25 303 -25q165 0 320 35zM387 1145q-23 59 -45.5 102
t-57 88t-81.5 71t-105 30q58 102 142 102q87 0 159 -119q23 53 77.5 86t113.5 33q89 0 127 -74q-101 -24 -188 -116t-142 -203z" />
    <glyph glyph-name="florin" unicode="&#x192;" horiz-adv-x="952" 
d="M422 100q0 101 -59.5 496t-59.5 518q0 69 13.5 126t35.5 95.5t54.5 68t64.5 46t71 27t70.5 14.5t65.5 4q40 1 56.5 1.5t45 3t41.5 7t30.5 13.5t28 22.5t19.5 32.5q53 -74 53 -174q0 -121 -75 -193q-26 -24 -67 -44.5t-75.5 -35t-67.5 -36.5t-52 -61.5t-19 -96.5
q19 6 83.5 27t112 35t66.5 14q35 0 35 -37q0 -38 -31 -85t-74 -57q-23 -5 -53.5 -12.5t-44.5 -10.5t-32.5 -8t-33.5 -10t-32 -12q4 -40 52 -294.5t48 -385.5q0 -81 -13.5 -155t-43.5 -141.5t-73.5 -117.5t-108 -79t-142.5 -29t-139.5 29.5t-98 77.5t-55 105t-18.5 118
q0 117 63.5 197.5t172.5 80.5q-43 -65 -43 -137q0 -62 26 -101.5t80 -39.5q60 0 91.5 50t31.5 144z" />
    <glyph glyph-name="Scommaaccent" unicode="&#x218;" horiz-adv-x="774" 
d="M657 981q-5 46 -16.5 83t-40 67t-68.5 30q-37 0 -56 -23.5t-19 -60.5q0 -38 23.5 -81t55 -78.5t74 -94t70.5 -114.5q74 -145 74 -314q0 -106 -31.5 -189t-86 -132.5t-123 -75t-146.5 -25.5q-162 0 -258.5 102t-96.5 271q0 162 97 225q39 -221 149 -221q44 0 67 30.5
t23 72.5q0 52 -37.5 113t-96.5 136.5t-85 124.5q-78 135 -78 289q0 90 31 161.5t84.5 115.5t120 67t141.5 23q78 0 140 -25.5t98.5 -67t55.5 -91.5t19 -103q0 -118 -84 -215zM332 -522q6 54 6 57q0 57 -13.5 97.5t-33 62.5t-38.5 39.5t-32.5 41t-13.5 54.5q0 57 59.5 97.5
t179.5 43.5q-49 -34 -49 -73q0 -25 17.5 -49t42.5 -44.5t50 -42t42.5 -50t17.5 -60.5q0 -61 -56.5 -108t-178.5 -66z" />
    <glyph glyph-name="scommaaccent" unicode="&#x219;" horiz-adv-x="645" 
d="M551 735q-7 48 -41.5 96t-77.5 48q-23 0 -37 -13.5t-14 -40.5q0 -36 28.5 -76t78 -100.5t81.5 -118.5q62 -124 62 -235q0 -145 -89 -231.5t-229 -86.5q-131 0 -212 76.5t-81 202.5q0 119 80 172q13 -83 49.5 -125.5t81.5 -42.5q33 0 51.5 20.5t18.5 51.5q0 39 -30.5 85.5
t-81.5 106.5t-74 97q-62 105 -62 215q0 131 82.5 204.5t204.5 73.5q115 0 196.5 -63t81.5 -158q0 -82 -67 -158zM279 -522q6 54 6 57q0 57 -13.5 97.5t-32.5 62.5t-38.5 39.5t-33 41t-13.5 54.5q0 57 59.5 97.5t179.5 43.5q-49 -34 -49 -73q0 -25 17.5 -49t42.5 -44.5
t50 -42t42.5 -50t17.5 -60.5q0 -61 -56.5 -108t-178.5 -66z" />
    <glyph glyph-name="uni021A" unicode="&#x21a;" horiz-adv-x="870" 
d="M831 1477q19 -157 19 -260q0 -309 -125 -383q2 10 2 47q0 39 -4.5 80t-14.5 83t-29.5 68.5t-45.5 26.5q-84 0 -84 -254q0 -153 26 -322t56 -287q16 -70 35.5 -111.5t87.5 -162.5q-136 4 -242 4q-214 0 -395 -12q82 146 145.5 394t63.5 466q0 49 -4 92.5t-12.5 85.5
t-26 67t-41.5 25q-41 0 -64.5 -64.5t-23.5 -152.5q0 -64 10 -106q-82 44 -121 149.5t-39 233.5q0 167 41 254q490 4 786 39zM379 -522q6 54 6 57q0 57 -13.5 97.5t-32.5 62.5t-38.5 39.5t-33 41t-13.5 54.5q0 57 60 97.5t180 43.5q-50 -35 -50 -73q0 -25 17.5 -49
t42.5 -44.5t50 -42t42.5 -50t17.5 -60.5q0 -61 -56.5 -108t-178.5 -66z" />
    <glyph glyph-name="uni021B" unicode="&#x21b;" horiz-adv-x="686" 
d="M504 952q0 -28 -15 -145q26 4 95 18t102 17q0 -95 -55.5 -136t-188.5 -47q-36 -71 -36 -213q0 -118 51 -118q16 0 31.5 11.5t29 34.5t21.5 39.5t20 45.5t14 33q60 -57 60 -181q0 -86 -27 -160.5t-84.5 -124t-134.5 -49.5q-110 0 -177 95t-67 245q0 37 8.5 169t8.5 200
q0 306 -160 426q75 72 246 72q128 0 193 -53.5t65 -178.5zM307 -522q6 54 6 57q0 57 -13.5 97.5t-32.5 62.5t-38.5 39.5t-33 41t-13.5 54.5q0 57 60 97.5t180 43.5q-49 -34 -49 -73q0 -25 17.5 -49t42.5 -44.5t50 -42t42.5 -50t17.5 -60.5q0 -61 -57 -108t-179 -66z" />
    <glyph glyph-name="circumflex" unicode="&#x2c6;" horiz-adv-x="729" 
d="M385 1573q24 -60 46 -102.5t56 -87.5t81 -71t106 -30q-60 -102 -142 -102q-88 0 -159 118q-23 -53 -77.5 -85.5t-113.5 -32.5q-90 0 -127 75q101 23 188 114.5t142 203.5z" />
    <glyph glyph-name="caron" unicode="&#x2c7;" horiz-adv-x="729" 
d="M344 1145q-23 59 -45.5 102t-57 88t-81.5 71t-105 30q58 102 142 102q87 0 159 -119q23 53 77.5 86t113.5 33q89 0 127 -74q-101 -24 -188 -116t-142 -203z" />
    <glyph glyph-name="breve" unicode="&#x2d8;" horiz-adv-x="616" 
d="M213 1466q-25 -64 -25 -100q0 -86 113 -86q67 0 104 31t37 94q0 34 -10 68q88 -14 134 -60t46 -102q0 -80 -86.5 -134.5t-230.5 -54.5q-140 0 -216.5 48.5t-76.5 125.5q0 67 55.5 117t155.5 53z" />
    <glyph glyph-name="dotaccent" unicode="&#x2d9;" horiz-adv-x="419" 
d="M63 1337q0 64 42 109t102 45q61 0 103 -44.5t42 -109.5q0 -66 -41.5 -109.5t-103.5 -43.5q-60 0 -102 44t-42 109z" />
    <glyph glyph-name="ring" unicode="&#x2da;" horiz-adv-x="501" 
d="M55 1313q0 82 56.5 139t138.5 57t139 -57t57 -139q0 -83 -57 -139t-139 -56t-138.5 56t-56.5 139zM190 1321q0 -26 17 -42.5t43 -16.5t43.5 16.5t17.5 42.5t-17.5 43.5t-43.5 17.5t-43 -17.5t-17 -43.5z" />
    <glyph glyph-name="ogonek" unicode="&#x2db;" horiz-adv-x="673" 
d="M385 -29q-44 -36 -72 -83.5t-28 -88.5q0 -47 33.5 -72.5t74.5 -25.5q53 0 119 44.5t106 96.5q-26 -180 -117 -268t-206 -88q-99 0 -169.5 57.5t-70.5 151.5q0 77 53 141t127.5 98t149.5 37z" />
    <glyph glyph-name="tilde" unicode="&#x2dc;" horiz-adv-x="763" 
d="M35 1184q25 129 80.5 180t138.5 51q53 0 171 -26.5t173 -26.5q77 0 133 37q-49 -136 -111 -191t-141 -55q-53 0 -166 33t-166 33q-67 0 -112 -35z" />
    <glyph glyph-name="hungarumlaut" unicode="&#x2dd;" horiz-adv-x="964" 
d="M772 1503q87 0 150 -69q-53 -6 -92.5 -43t-98.5 -129q-43 -66 -91 -103t-116 -37q-90 0 -143 62q60 29 101.5 71t105.5 131q38 58 81 87.5t103 29.5zM432 1503q87 0 150 -69q-54 -6 -92.5 -42.5t-98.5 -129.5q-43 -66 -91 -103t-116 -37q-87 0 -143 62q61 29 101 70.5
t104 131.5q40 58 83 87.5t103 29.5z" />
    <glyph glyph-name="Delta" unicode="&#x394;" horiz-adv-x="1038" 
d="M471 1454q50 0 91 -21t52 -59l392 -1255q10 -27 10 -49q0 -34 -31 -52t-108 -18h-803q-66 6 -66 63q0 21 10 54l392 1276q12 39 23 50t38 11zM461 1098l-228 -838h457z" />
    <glyph glyph-name="Omega" unicode="&#x3a9;" horiz-adv-x="1099" 
d="M547 1466q87 0 168 -30t143.5 -83.5t100.5 -134t38 -174.5q0 -89 -36 -203.5t-79.5 -203.5t-79.5 -179t-36 -136q0 -37 17.5 -61.5t45.5 -24.5q35 0 61 39.5t37 91t11 102.5q69 -35 105 -98.5t36 -145.5q0 -109 -61 -180.5t-164 -71.5q-26 0 -93 8.5t-99 8.5
q-39 0 -70 -8q9 205 55.5 518.5t46.5 398.5q0 109 -37 166t-108 57t-106 -55t-35 -152q0 -72 23.5 -217t48 -332t26.5 -358q-24 8 -76 8q-26 -1 -100 -17.5t-113 -16.5q-94 0 -145.5 72.5t-51.5 183.5q0 186 142 258q0 -57 10.5 -113.5t37 -100.5t62.5 -44q30 0 45 24.5
t15 54.5q0 42 -36 130t-79 178t-79 207.5t-36 209.5q0 95 37.5 176t99.5 134.5t142 83.5t166 30z" />
    <glyph glyph-name="mu" unicode="&#x3bc;" horiz-adv-x="901" 
d="M541 127q-19 -35 -50.5 -62.5t-61 -44.5t-57 -36t-44.5 -49.5t-17 -73.5q0 -70 41 -162t99 -166q-27 0 -110 3t-130 3q-112 0 -211 -12q7 97 62 580.5t55 680.5q0 105 -16 163.5t-64 107.5q77 41 176 41q233 0 233 -201q0 -77 -46 -279.5t-46 -252.5q0 -36 12 -59t27 -23
q43 0 85 164t42 337q0 209 -76 295q59 19 119 19q109 0 179.5 -58t70.5 -176q0 -68 -36 -225t-36 -219q0 -53 16.5 -82t43.5 -29q40 0 71 51q19 -55 19 -112q0 -105 -57 -187.5t-132 -82.5q-93 0 -161 147z" />
    <glyph glyph-name="pi" unicode="&#x3c0;" horiz-adv-x="1134" 
d="M147 1083h854q31 0 56.5 -20.5t25.5 -46.5q0 -20 -21 -48t-50.5 -67t-59 -93t-50.5 -147.5t-21 -209.5q0 -64 9.5 -100t37.5 -36q11 0 21.5 6t19.5 13.5t18.5 22t16 25t15 28.5t12 26.5l10.5 25.5t8 19q59 -59 59 -184q0 -86 -29 -160.5t-86.5 -122t-130.5 -47.5
q-74 0 -131.5 49.5t-85 123t-27.5 153.5q0 29 10.5 174t10.5 227q0 66 -9 90.5t-38 24.5q-26 0 -41.5 -28t-32.5 -111q-35 -190 -35 -363q0 -106 18.5 -178t61.5 -139q-147 6 -209 6q-127 0 -229 -10q48 86 77 274t29 334q0 162 -38 205q-13 15 -45 18t-60 2.5t-50 19.5
t-22 66q0 38 12.5 84t37.5 72q9 11 24 16t24.5 5.5t32.5 0.5z" />
    <glyph glyph-name="uni058F" unicode="&#x58f;" horiz-adv-x="944" 
d="M236 -27q63 140 112 267h-207q-30 0 -45.5 32t-15.5 76q0 21 8 28.5t39 8.5h274q26 72 52 160h-312q-30 0 -45.5 33t-15.5 77q0 20 8 27t39 10h362q23 112 23 187q0 97 -33.5 157t-99.5 60q-61 0 -99 -50t-38 -135q0 -83 55 -127q-8 -2 -25 -2q-107 0 -176 88t-69 215
q0 71 23.5 138.5t68 122.5t117 88.5t161.5 33.5q64 0 122 -16.5t111.5 -55t92.5 -97t62.5 -147.5t23.5 -200q0 -102 -18 -260h65q30 0 46 -33t16 -79q0 -19 -8 -25.5t-38 -9.5h-98q-12 -122 -14 -160h96q30 0 46 -32.5t16 -76.5q0 -20 -8.5 -28t-37.5 -8h-106
q16 -123 68 -256q-101 14 -226 14q-128 0 -372 -25z" />
    <glyph glyph-name="Wgrave" unicode="&#x1e80;" horiz-adv-x="1222" 
d="M850 1511q2 -36 4 -59t10.5 -42.5t15 -29.5t26.5 -22.5t34 -18.5t49 -20q219 -90 219 -352q0 -86 -22.5 -171t-55 -154t-64.5 -134.5t-54.5 -137.5t-22.5 -139q0 -79 28 -119.5t83 -64.5q-38 -100 -164 -100q-61 0 -111.5 27t-81.5 67t-52 89.5t-29.5 91.5t-8.5 75
q0 57 21 145q-70 -119 -70 -235q0 -139 68 -221q-131 16 -275 16q-94 0 -141 -2q98 95 98 295q0 77 -21.5 141t-48 102.5t-83.5 106.5q-191 232 -191 471q0 135 52.5 245.5t138.5 131.5q-15 -24 -15 -61q0 -29 11 -54t34 -49.5t44 -41.5t57.5 -44.5t56.5 -44.5
q205 -166 205 -383q0 -83 -38 -212t-42 -193q14 34 55 107t63.5 135.5t22.5 131.5q0 72 -23 140t-63 114q5 0 15 1t20 1q114 0 199.5 -90t85.5 -217q0 -67 -37 -162.5t-37 -148.5q0 -29 2 -43q13 68 42 127t49 108t20 109t-19.5 112t-47 92t-55.5 82.5t-47.5 102
t-19.5 131.5q0 86 26.5 157.5t84.5 110.5zM305 1866q120 0 209 -117q70 -89 117.5 -131.5t116.5 -71.5q-61 -61 -164 -61q-77 0 -130.5 36.5t-101.5 102.5q-69 93 -113 129.5t-104 42.5q70 70 170 70z" />
    <glyph glyph-name="wgrave" unicode="&#x1e81;" horiz-adv-x="1103" 
d="M201 1135q-6 -27 -6 -72q0 -51 16.5 -89.5t43 -62.5t59 -45t64.5 -45t58.5 -54t43 -80t16.5 -116q0 -65 -25.5 -144t-30.5 -103q52 49 84.5 127t32.5 165q0 111 -70 175q27 12 62 12q76 0 133 -66t57 -168q0 -37 -10 -114t-12 -107q5 14 28.5 63t36.5 93.5t13 93.5
q0 37 -7.5 69t-25 60.5t-28 43t-36.5 42t-30 31.5q-52 58 -52 129q0 98 95 157q2 -24 5 -42.5t11 -35.5t12.5 -28t20 -26t22 -22t30.5 -23t34 -22t43 -26q176 -102 176 -299q0 -82 -29 -156.5t-82 -160.5q-6 -11 -29 -50t-32 -56.5t-19 -48.5t-10 -58q0 -35 25 -74
q-44 -20 -86 -20q-97 0 -156 100t-59 233q-51 -104 -51 -213q0 -52 14 -98q-98 4 -152 4q-124 0 -223 -16q66 112 66 223q0 63 -22 127t-53.5 119t-63.5 109.5t-54 118.5t-22 126q0 61 17.5 123.5t58.5 119t98 77.5zM266 1503q120 0 209 -117q70 -88 117.5 -130.5
t116.5 -71.5q-62 -62 -164 -62q-76 0 -130 37t-102 103q-69 93 -113 129.5t-104 42.5q69 69 170 69z" />
    <glyph glyph-name="Wacute" unicode="&#x1e82;" horiz-adv-x="1222" 
d="M850 1511q2 -36 4 -59t10.5 -42.5t15 -29.5t26.5 -22.5t34 -18.5t49 -20q219 -90 219 -352q0 -86 -22.5 -171t-55 -154t-64.5 -134.5t-54.5 -137.5t-22.5 -139q0 -79 28 -119.5t83 -64.5q-38 -100 -164 -100q-61 0 -111.5 27t-81.5 67t-52 89.5t-29.5 91.5t-8.5 75
q0 57 21 145q-70 -119 -70 -235q0 -139 68 -221q-131 16 -275 16q-94 0 -141 -2q98 95 98 295q0 77 -21.5 141t-48 102.5t-83.5 106.5q-191 232 -191 471q0 135 52.5 245.5t138.5 131.5q-15 -24 -15 -61q0 -29 11 -54t34 -49.5t44 -41.5t57.5 -44.5t56.5 -44.5
q205 -166 205 -383q0 -83 -38 -212t-42 -193q14 34 55 107t63.5 135.5t22.5 131.5q0 72 -23 140t-63 114q5 0 15 1t20 1q114 0 199.5 -90t85.5 -217q0 -67 -37 -162.5t-37 -148.5q0 -29 2 -43q13 68 42 127t49 108t20 109t-19.5 112t-47 92t-55.5 82.5t-47.5 102
t-19.5 131.5q0 86 26.5 157.5t84.5 110.5zM811 1866q100 0 170 -70q-60 -6 -104 -42.5t-113 -129.5q-48 -66 -102 -102.5t-132 -36.5q-100 0 -161 61q68 29 115 71.5t118 131.5q44 58 93 87.5t116 29.5z" />
    <glyph glyph-name="wacute" unicode="&#x1e83;" horiz-adv-x="1103" 
d="M201 1135q-6 -27 -6 -72q0 -51 16.5 -89.5t43 -62.5t59 -45t64.5 -45t58.5 -54t43 -80t16.5 -116q0 -65 -25.5 -144t-30.5 -103q52 49 84.5 127t32.5 165q0 111 -70 175q27 12 62 12q76 0 133 -66t57 -168q0 -37 -10 -114t-12 -107q5 14 28.5 63t36.5 93.5t13 93.5
q0 37 -7.5 69t-25 60.5t-28 43t-36.5 42t-30 31.5q-52 58 -52 129q0 98 95 157q2 -24 5 -42.5t11 -35.5t12.5 -28t20 -26t22 -22t30.5 -23t34 -22t43 -26q176 -102 176 -299q0 -82 -29 -156.5t-82 -160.5q-6 -11 -29 -50t-32 -56.5t-19 -48.5t-10 -58q0 -35 25 -74
q-44 -20 -86 -20q-97 0 -156 100t-59 233q-51 -104 -51 -213q0 -52 14 -98q-98 4 -152 4q-124 0 -223 -16q66 112 66 223q0 63 -22 127t-53.5 119t-63.5 109.5t-54 118.5t-22 126q0 61 17.5 123.5t58.5 119t98 77.5zM731 1503q101 0 170 -69q-60 -6 -104 -42.5t-113 -129.5
q-48 -67 -101.5 -103.5t-131.5 -36.5q-100 0 -162 62q69 29 116 71t117 131q44 58 93 87.5t116 29.5z" />
    <glyph glyph-name="Wdieresis" unicode="&#x1e84;" horiz-adv-x="1222" 
d="M850 1511q2 -36 4 -59t10.5 -42.5t15 -29.5t26.5 -22.5t34 -18.5t49 -20q219 -90 219 -352q0 -86 -22.5 -171t-55 -154t-64.5 -134.5t-54.5 -137.5t-22.5 -139q0 -79 28 -119.5t83 -64.5q-38 -100 -164 -100q-61 0 -111.5 27t-81.5 67t-52 89.5t-29.5 91.5t-8.5 75
q0 57 21 145q-70 -119 -70 -235q0 -139 68 -221q-131 16 -275 16q-94 0 -141 -2q98 95 98 295q0 77 -21.5 141t-48 102.5t-83.5 106.5q-191 232 -191 471q0 135 52.5 245.5t138.5 131.5q-15 -24 -15 -61q0 -29 11 -54t34 -49.5t44 -41.5t57.5 -44.5t56.5 -44.5
q205 -166 205 -383q0 -83 -38 -212t-42 -193q14 34 55 107t63.5 135.5t22.5 131.5q0 72 -23 140t-63 114q5 0 15 1t20 1q114 0 199.5 -90t85.5 -217q0 -67 -37 -162.5t-37 -148.5q0 -29 2 -43q13 68 42 127t49 108t20 109t-19.5 112t-47 92t-55.5 82.5t-47.5 102
t-19.5 131.5q0 86 26.5 157.5t84.5 110.5zM592 1700q0 64 41.5 108.5t101.5 44.5q62 0 104 -44.5t42 -108.5q0 -66 -42 -110t-104 -44q-60 0 -101.5 44t-41.5 110zM213 1642q0 65 41.5 109.5t101.5 44.5q61 0 103.5 -44.5t42.5 -109.5q0 -66 -42 -109.5t-104 -43.5
q-60 0 -101.5 43.5t-41.5 109.5z" />
    <glyph glyph-name="wdieresis" unicode="&#x1e85;" horiz-adv-x="1103" 
d="M201 1135q-6 -27 -6 -72q0 -51 16.5 -89.5t43 -62.5t59 -45t64.5 -45t58.5 -54t43 -80t16.5 -116q0 -65 -25.5 -144t-30.5 -103q52 49 84.5 127t32.5 165q0 111 -70 175q27 12 62 12q76 0 133 -66t57 -168q0 -37 -10 -114t-12 -107q5 14 28.5 63t36.5 93.5t13 93.5
q0 37 -7.5 69t-25 60.5t-28 43t-36.5 42t-30 31.5q-52 58 -52 129q0 98 95 157q2 -24 5 -42.5t11 -35.5t12.5 -28t20 -26t22 -22t30.5 -23t34 -22t43 -26q176 -102 176 -299q0 -82 -29 -156.5t-82 -160.5q-6 -11 -29 -50t-32 -56.5t-19 -48.5t-10 -58q0 -35 25 -74
q-44 -20 -86 -20q-97 0 -156 100t-59 233q-51 -104 -51 -213q0 -52 14 -98q-98 4 -152 4q-124 0 -223 -16q66 112 66 223q0 63 -22 127t-53.5 119t-63.5 109.5t-54 118.5t-22 126q0 61 17.5 123.5t58.5 119t98 77.5zM596 1346q0 64 41.5 108.5t101.5 44.5q62 0 104 -44.5
t42 -108.5q0 -66 -42 -110t-104 -44q-60 0 -101.5 44t-41.5 110zM219 1290q0 65 41.5 109.5t101.5 44.5q61 0 103.5 -44.5t42.5 -109.5q0 -66 -42 -109.5t-104 -43.5q-60 0 -101.5 43.5t-41.5 109.5z" />
    <glyph glyph-name="Ygrave" unicode="&#x1ef2;" horiz-adv-x="987" 
d="M166 1501q34 21 74 21q59 0 103 -37.5t63.5 -88t19.5 -102.5t-33 -179t-33 -171q0 -67 42 -111.5t94 -44.5q41 0 68.5 31.5t37.5 69.5t10 76q0 36 -19.5 136.5t-19.5 149.5q0 36 8 69.5t25 64t49.5 49t75.5 18.5q73 0 103 -49q-32 0 -46 -22t-14 -52q0 -75 78 -180
q54 -71 77 -124.5t23 -143.5q0 -112 -39.5 -177.5t-115.5 -105.5q-41 -22 -60 -32.5t-50 -30.5t-45.5 -35.5t-30.5 -38t-22.5 -49t-6.5 -58.5q0 -136 147 -372q-147 18 -303 18q-125 0 -248 -12q172 233 172 383q0 37 -8.5 65.5t-33 58.5t-48.5 52t-74 63
q-82 68 -116.5 138.5t-34.5 187.5q0 74 18 133.5t72 147.5q31 51 44.5 75t28.5 62.5t15 66.5q0 64 -47 80zM313 1866q120 0 209 -117q70 -89 117.5 -131.5t116.5 -71.5q-61 -61 -164 -61q-77 0 -130.5 36.5t-101.5 102.5q-69 93 -113 129.5t-104 42.5q70 70 170 70z" />
    <glyph glyph-name="ygrave" unicode="&#x1ef3;" horiz-adv-x="876" 
d="M846 1067q-90 -22 -90 -149q0 -67 42 -238t42 -264q0 -198 -124 -335.5t-294 -137.5q-141 0 -247.5 91t-106.5 238q0 20 4 56q43 -50 119.5 -82.5t154.5 -32.5q117 0 117 84q0 33 -19 45t-65 12q-126 0 -201 32.5t-112 111.5q-25 56 -25 118q0 64 22 142.5t44 144.5
t22 101q0 63 -63 77q51 39 129 39q98 0 143 -57.5t45 -136.5q0 -44 -19.5 -143t-19.5 -136q0 -92 80 -92q57 0 85 41.5t28 99.5q0 46 -25 133.5t-25 122.5q0 70 48 130.5t141 60.5q110 0 170 -76zM217 1503q120 0 209 -117q70 -89 117 -131t116 -71q-62 -62 -163 -62
q-76 0 -130 37t-102 103q-69 93 -113 129.5t-104 42.5q69 69 170 69z" />
    <glyph glyph-name="zerospace" unicode="&#x200b;" horiz-adv-x="0" 
 />
    <glyph glyph-name="endash" unicode="&#x2013;" horiz-adv-x="1181" 
d="M131 821l973 -4q34 0 47.5 -8.5t13.5 -32.5q0 -68 -26.5 -101.5t-98.5 -37.5l-956 -21q-34 -3 -52 13t-18 57q0 40 23 92q13 26 29.5 34.5t64.5 8.5z" />
    <glyph glyph-name="emdash" unicode="&#x2014;" horiz-adv-x="1822" 
d="M131 821l1616 -4q32 0 45.5 -8.5t13.5 -32.5q0 -68 -26.5 -101.5t-98.5 -37.5l-1597 -21q-34 -3 -52 13t-18 57q0 40 23 92q13 26 29.5 34.5t64.5 8.5z" />
    <glyph glyph-name="quoteleft" unicode="&#x2018;" horiz-adv-x="372" 
d="M209 1485q129 -47 129 -166q0 -51 -38 -161.5t-38 -168.5q0 -64 37 -106q-16 -2 -49 -2q-103 0 -160 57t-57 139q0 45 18.5 85t45 71t53 61.5t45 69.5t18.5 82q0 19 -4 39z" />
    <glyph glyph-name="quoteright" unicode="&#x2019;" horiz-adv-x="372" 
d="M160 881q-127 47 -127 166q0 51 36.5 161t36.5 168q0 69 -36 107q18 2 49 2q103 0 161 -57.5t58 -139.5q0 -45 -18.5 -85t-45.5 -70.5l-54 -61t-45.5 -69.5t-18.5 -82q0 -19 4 -39z" />
    <glyph glyph-name="quotesinglbase" unicode="&#x201a;" horiz-adv-x="372" 
d="M160 -307q-127 44 -127 166q0 51 36.5 161t36.5 168q0 66 -36 107q18 2 49 2q103 0 161 -57.5t58 -139.5q0 -45 -18.5 -85t-45.5 -70.5l-54 -61t-45.5 -69.5t-18.5 -82q0 -19 4 -39z" />
    <glyph glyph-name="uni201B" unicode="&#x201b;" horiz-adv-x="372" 
d="M209 881q4 20 4 39q0 43 -18.5 82t-45 69.5l-53 61t-45 70.5t-18.5 85q0 82 57 139.5t160 57.5q33 0 49 -2q-37 -42 -37 -107q0 -58 38 -168t38 -161q0 -119 -129 -166z" />
    <glyph glyph-name="quotedblleft" unicode="&#x201c;" horiz-adv-x="702" 
d="M209 1485q129 -47 129 -166q0 -51 -38 -161.5t-38 -168.5q0 -64 37 -106q-16 -2 -49 -2q-103 0 -160 57t-57 139q0 45 18.5 85t45 71t53 61.5t45 69.5t18.5 82q0 19 -4 39zM541 1485q129 -47 129 -166q0 -51 -38 -161.5t-38 -168.5q0 -64 37 -106q-16 -2 -49 -2
q-103 0 -160 57t-57 139q0 45 18.5 85t45 71t53 61.5t45 69.5t18.5 82q0 19 -4 39z" />
    <glyph glyph-name="quotedblright" unicode="&#x201d;" horiz-adv-x="702" 
d="M160 881q-127 47 -127 166q0 51 36.5 161t36.5 168q0 69 -36 107q18 2 49 2q103 0 161 -57.5t58 -139.5q0 -45 -18.5 -85t-45.5 -70.5l-54 -61t-45.5 -69.5t-18.5 -82q0 -19 4 -39zM492 881q-127 47 -127 166q0 51 36.5 161t36.5 168q0 67 -37 107q18 2 50 2
q103 0 161 -57.5t58 -139.5q0 -45 -19 -85t-46 -70.5t-53.5 -61t-45.5 -69.5t-19 -82q0 -14 5 -39z" />
    <glyph glyph-name="quotedblbase" unicode="&#x201e;" horiz-adv-x="702" 
d="M160 -307q-127 44 -127 166q0 51 36.5 161t36.5 168q0 66 -36 107q18 2 49 2q103 0 161 -57.5t58 -139.5q0 -45 -18.5 -85t-45.5 -70.5l-54 -61t-45.5 -69.5t-18.5 -82q0 -19 4 -39zM492 -307q-127 44 -127 166q0 51 36.5 161t36.5 168q0 65 -37 107q18 2 50 2
q103 0 161 -57.5t58 -139.5q0 -45 -19 -85t-46 -70.5t-53.5 -61t-45.5 -69.5t-19 -82q0 -14 5 -39z" />
    <glyph glyph-name="uni201F" unicode="&#x201f;" horiz-adv-x="743" 
d="M209 881q4 20 4 39q0 43 -18.5 82t-45 69.5l-53 61t-45 70.5t-18.5 85q0 82 57 139.5t160 57.5q33 0 49 -2q-37 -42 -37 -107q0 -58 38 -168t38 -161q0 -119 -129 -166zM582 881q4 20 4 39q0 43 -18.5 82t-45 69.5l-53 61t-45 70.5t-18.5 85q0 82 57 139.5t160 57.5
q33 0 49 -2q-37 -42 -37 -107q0 -58 38 -168t38 -161q0 -119 -129 -166z" />
    <glyph glyph-name="dagger" unicode="&#x2020;" horiz-adv-x="952" 
d="M393 -29v967h-301q-31 3 -39 11t-8 32q0 48 15.5 84.5t45.5 36.5h287v303q3 30 11 38.5t32 8.5q48 0 84.5 -16.5t36.5 -46.5v-287h299q31 -3 40 -11t9 -30q0 -50 -16 -86.5t-47 -36.5h-285v-981q-3 -31 -11 -39t-32 -8q-47 0 -84 16t-37 45z" />
    <glyph glyph-name="daggerdbl" unicode="&#x2021;" horiz-adv-x="952" 
d="M109 424h284v514h-301q-31 3 -39 11t-8 32q0 48 15.5 84.5t45.5 36.5h287v303q3 30 11 38.5t32 8.5q48 0 84.5 -16.5t36.5 -46.5v-287h299q31 -3 40 -11t9 -30q0 -50 -16 -86.5t-47 -36.5h-285v-514h301q31 -3 39 -11.5t8 -31.5q0 -48 -15.5 -85.5t-45.5 -37.5h-287v-301
q-3 -31 -11 -39t-32 -8q-47 0 -84 16t-37 45v287h-299q-31 3 -40 11.5t-9 31.5q0 48 16.5 85.5t47.5 37.5z" />
    <glyph glyph-name="bullet" unicode="&#x2022;" horiz-adv-x="714" 
d="M55 717q0 125 87 213t214 88q126 0 213.5 -88t87.5 -213q0 -129 -87.5 -216t-213.5 -87q-128 0 -214.5 87t-86.5 216z" />
    <glyph glyph-name="ellipsis" unicode="&#x2026;" horiz-adv-x="1480" 
d="M111 137q0 65 43.5 109.5t109.5 44.5q64 0 109 -44.5t45 -109.5q0 -66 -44.5 -109.5t-109.5 -43.5q-66 0 -109.5 43.5t-43.5 109.5zM586 137q0 65 43.5 109.5t109.5 44.5q65 0 109.5 -44.5t44.5 -109.5q0 -66 -44.5 -109.5t-109.5 -43.5q-66 0 -109.5 43.5t-43.5 109.5z
M1059 137q0 65 43.5 109.5t109.5 44.5q64 0 109 -44.5t45 -109.5q0 -66 -44.5 -109.5t-109.5 -43.5q-66 0 -109.5 43.5t-43.5 109.5z" />
    <glyph glyph-name="perthousand" unicode="&#x2030;" horiz-adv-x="1802" 
d="M317 631q-59 0 -103.5 36.5t-70 97t-37.5 129.5t-12 144q0 54 6 108t22.5 112.5t41 102.5t65.5 72.5t93 28.5q55 0 98 -32.5t67 -79.5t40 -108t21 -111t5 -95q0 -52 -8 -106t-26 -108t-44.5 -96t-67.5 -68.5t-90 -26.5zM381 1047q0 204 -59 204q-60 0 -60 -217
q0 -205 55 -205q29 0 46.5 56.5t17.5 161.5zM1120 1530q31 -60 31 -133q0 -145 -110.5 -332t-288.5 -373q-74 -77 -202 -195.5t-212.5 -197.5t-166 -185.5t-112.5 -201.5q-4 16 -4 49q0 73 37.5 163t91 171.5t137 181.5t151 171t157.5 161q86 87 131 134t115 129
t109.5 144.5t78 146t57.5 167.5zM1010 -14q-59 0 -104 36.5t-70 97t-37.5 130t-12.5 143.5q0 54 6 108t22.5 112.5t41 102.5t65.5 72.5t93 28.5q55 0 98 -32.5t67 -79.5t40 -108t21 -111t5 -95q0 -67 -13 -134t-39.5 -130t-74 -102t-108.5 -39zM1073 401q0 205 -59 205
q-60 0 -60 -217q0 -205 56 -205q29 0 46 55.5t17 161.5zM1511 -14q-59 0 -103.5 36.5t-70 97t-37.5 129.5t-12 144q0 54 6 108t22.5 112.5t41 102.5t65.5 72.5t93 28.5q55 0 98 -32.5t67 -79.5t40 -108t21 -111t5 -95q0 -52 -8 -106t-26 -108t-44.5 -96t-67.5 -68.5
t-90 -26.5zM1575 401q0 205 -59 205q-60 0 -60 -217q0 -205 55 -205q29 0 46.5 56t17.5 161z" />
    <glyph glyph-name="guilsinglleft" unicode="&#x2039;" horiz-adv-x="473" 
d="M27 524q120 100 217 248t121 322q79 -62 79 -217q0 -104 -35.5 -198.5t-93.5 -133.5q129 -123 129 -279q0 -138 -108 -243q-3 82 -24 152.5t-48.5 119.5t-71 94.5t-79.5 74t-86 60.5z" />
    <glyph glyph-name="guilsinglright" unicode="&#x203a;" horiz-adv-x="473" 
d="M444 524q-50 -32 -86.5 -60.5t-79.5 -74t-71 -94.5t-48.5 -119.5t-23.5 -152.5q-108 102 -108 243q0 158 127 279q-57 39 -92 133.5t-35 198.5q0 154 77 217q13 -92 49 -180.5t85 -160.5t100 -128t106 -101z" />
    <glyph glyph-name="fraction" unicode="&#x2044;" horiz-adv-x="395" 
d="M721 1530q31 -60 31 -133q0 -145 -110.5 -331.5t-289.5 -373.5q-74 -77 -202 -195.5t-212 -197.5t-165.5 -185.5t-112.5 -201.5q-4 16 -4 49q0 73 37 163t91 172t137 181t150.5 170.5t157.5 161.5q73 73 110 112t98.5 106.5t97 117.5t76.5 115.5t67.5 132t42.5 137.5z
" />
    <glyph glyph-name="zerosuperior" unicode="&#x2070;" horiz-adv-x="581" 
d="M285 631q-59 0 -104 36.5t-70 97t-37.5 130t-12.5 143.5q0 54 6 108t22.5 112.5t41 102.5t65.5 72.5t93 28.5q55 0 98 -32.5t67 -79.5t40 -108t21 -111t5 -95q0 -67 -13 -134t-39.5 -130t-74 -102t-108.5 -39zM348 1047q0 204 -59 204q-60 0 -60 -217q0 -205 56 -205
q29 0 46 56t17 162z" />
    <glyph glyph-name="foursuperior" unicode="&#x2074;" horiz-adv-x="583" 
d="M287 1440q-19 -36 -37.5 -125t-18.5 -156q0 -84 35 -84q58 0 58 207q0 30 -9 160q74 -8 115 -8q53 0 100 8q-29 -73 -49 -217t-20 -291q0 -161 31 -295q-153 10 -203 10q-30 0 -92 -4q96 135 96 281q-40 12 -92 12q-64 0 -142 -20q21 136 21 229q0 131 -29 289
q25 -2 68 -2q25 0 53 1t62 2.5t53 2.5z" />
    <glyph glyph-name="fivesuperior" unicode="&#x2075;" horiz-adv-x="550" 
d="M340 1497q13 10 33 10q47 0 78.5 -37.5t31.5 -93.5q0 -55 -31 -95t-90 -40q-44 0 -124 33q-7 -32 -7 -62q0 -9 1 -19.5t1 -14.5q38 10 66 10q90 0 144.5 -78.5t54.5 -185.5q0 -114 -68.5 -203.5t-171.5 -89.5q-85 0 -150 65t-65 154q0 76 49 139q13 -59 47.5 -105
t77.5 -46q37 0 58.5 28.5t21.5 67.5q0 50 -35.5 87.5t-105.5 37.5q-35 0 -66 -8q10 117 10 206q0 128 -8 191q77 -35 172 -35q103 0 103 51q0 24 -27 33z" />
    <glyph glyph-name="sixsuperior" unicode="&#x2076;" horiz-adv-x="593" 
d="M373 1169q16 32 16 58q0 28 -14 42.5t-35 14.5q-41 0 -72.5 -49t-31.5 -135v-25q46 74 137 74q82 0 123 -61t41 -156q0 -122 -63.5 -212.5t-170.5 -90.5q-82 0 -138.5 60.5t-80 147t-23.5 187.5q0 44 5 88.5t16 96t32 95t50.5 80t73.5 57.5t98 21q81 0 120.5 -43
t39.5 -104q0 -58 -32.5 -100t-90.5 -46zM248 913q0 -44 15.5 -74t45.5 -30q27 0 41.5 26t14.5 70t-15 77.5t-45 33.5t-43.5 -31.5t-13.5 -71.5z" />
    <glyph glyph-name="sevensuperior" unicode="&#x2077;" horiz-adv-x="598" 
d="M139 1477q-10 -17 -10 -31q0 -43 102 -43q74 0 180.5 20.5t143.5 34.5q-17 -44 -51.5 -128t-56.5 -140.5t-46.5 -131.5t-36.5 -147t-12 -141q0 -55 13 -125q-94 4 -158 4q-78 0 -111 -4q26 274 250 612q-86 -40 -166 -40q-133 0 -133 124q0 52 22.5 92t69.5 44z" />
    <glyph glyph-name="eightsuperior" unicode="&#x2078;" horiz-adv-x="587" 
d="M436 1092q94 -79 94 -209q0 -107 -60.5 -181.5t-170.5 -74.5q-112 0 -177 74.5t-65 177.5q0 59 26 115t75 93q-70 67 -70 162q0 88 57.5 148.5t151.5 60.5q97 0 151 -65.5t54 -155.5q0 -95 -66 -145zM262 1237q0 -48 11.5 -75t29.5 -27q33 0 33 86q0 92 -41 92
q-33 0 -33 -76zM252 907q0 -112 51 -112q43 0 43 108q0 115 -45 115q-49 0 -49 -111z" />
    <glyph glyph-name="ninesuperior" unicode="&#x2079;" horiz-adv-x="593" 
d="M223 922q-18 -34 -18 -60q0 -27 14 -43t35 -16q41 0 72.5 50t31.5 134v25q-46 -74 -135 -74q-83 0 -124.5 61t-41.5 156q0 124 63.5 214.5t170.5 90.5q62 0 110 -35t75.5 -93t41.5 -125.5t14 -141.5q0 -54 -6.5 -108t-25.5 -115.5t-48 -107.5t-79.5 -76.5t-114.5 -30.5
q-82 0 -121 43t-39 106q0 56 33 98t92 48zM346 1176q0 43 -15.5 72.5t-45.5 29.5q-27 0 -41.5 -25.5t-14.5 -68.5q0 -45 15 -77t45 -32q31 0 44 30t13 71z" />
    <glyph glyph-name="zeroinferior" unicode="&#x2080;" horiz-adv-x="581" 
d="M285 -14q-59 0 -104 36.5t-70 97t-37.5 130t-12.5 143.5q0 54 6 108t22.5 112.5t41 102.5t65.5 72.5t93 28.5q55 0 98 -32.5t67 -79.5t40 -108t21 -111t5 -95q0 -67 -13 -134t-39.5 -130t-74 -102t-108.5 -39zM348 401q0 205 -59 205q-60 0 -60 -217q0 -205 56 -205
q29 0 46 55.5t17 161.5z" />
    <glyph glyph-name="oneinferior" unicode="&#x2081;" horiz-adv-x="409" 
d="M322 821q-33 -149 -33 -329q0 -295 67 -502q-58 6 -118 6q-80 0 -160 -6q74 226 74 450q0 172 -74 172q-17 0 -45 -8q26 72 114.5 134.5t174.5 82.5z" />
    <glyph glyph-name="twoinferior" unicode="&#x2082;" horiz-adv-x="561" 
d="M444 303q37 -10 55.5 -49.5t18.5 -93.5q0 -77 -37 -125.5t-119 -48.5q-32 0 -104 13t-113 13q-49 0 -84 -12q-2 140 117 340q59 103 83 156t24 90q0 55 -49 55q-27 0 -40.5 -18.5t-13.5 -49.5q0 -26 13 -65q-60 0 -93.5 36t-33.5 85q0 71 58.5 127.5t156.5 56.5
q90 0 151.5 -53.5t61.5 -147.5q0 -51 -25.5 -106.5t-55.5 -95.5t-55.5 -89t-25.5 -88q0 -49 43 -49q67 0 67 119z" />
    <glyph glyph-name="threeinferior" unicode="&#x2083;" horiz-adv-x="557" 
d="M88 815q107 -24 244 -24q91 0 160 10q-22 -217 -109 -314q58 -17 91.5 -76.5t33.5 -134.5q0 -72 -29 -136.5t-91 -108t-144 -43.5q-96 0 -146.5 54.5t-50.5 123.5q0 49 26.5 90t76.5 57q4 -127 83 -127q41 0 75 36t34 93q0 43 -21 60.5t-50.5 17.5t-59.5 0.5t-51 19
t-21 62.5v17q6 0 21.5 -1.5t21.5 -1.5q44 0 77.5 36t33.5 79q0 55 -49 55q-35 0 -72 -37t-61 -114q-45 62 -45 151q0 48 22 156z" />
    <glyph glyph-name="fourinferior" unicode="&#x2084;" horiz-adv-x="583" 
d="M287 795q-19 -36 -37.5 -125t-18.5 -156q0 -84 35 -84q58 0 58 207q0 29 -9 160q83 -9 115 -9q48 0 100 9q-29 -73 -49 -217t-20 -291q0 -161 31 -295q-152 10 -203 10q-30 0 -92 -4q96 135 96 281q-40 12 -92 12q-60 0 -142 -21q21 136 21 230q0 131 -29 289
q38 -3 68 -3q33 0 93 3t75 4z" />
    <glyph glyph-name="fiveinferior" unicode="&#x2085;" horiz-adv-x="550" 
d="M340 852q13 10 33 10q47 0 78.5 -37.5t31.5 -93.5q0 -55 -31 -95t-90 -40q-44 0 -124 33q-7 -31 -7 -62q0 -9 1 -20t1 -15q42 11 66 11q90 0 144.5 -78.5t54.5 -185.5q0 -114 -68.5 -203.5t-171.5 -89.5q-85 0 -150 65t-65 154q0 76 49 139q13 -59 47.5 -105t77.5 -46
q37 0 58.5 28.5t21.5 67.5q0 50 -35.5 87.5t-105.5 37.5q-35 0 -66 -8q10 117 10 206q0 128 -8 191q77 -35 172 -35q103 0 103 51q0 24 -27 33z" />
    <glyph glyph-name="sixinferior" unicode="&#x2086;" horiz-adv-x="593" 
d="M373 524q16 32 16 58q0 28 -14 42.5t-35 14.5q-41 0 -72.5 -49t-31.5 -135v-25q46 74 137 74q82 0 123 -61t41 -156q0 -122 -63.5 -212.5t-170.5 -90.5q-82 0 -138.5 60.5t-80 147t-23.5 187.5q0 44 5 88.5t16 96t32 95t50.5 80t73.5 57.5t98 21q81 0 120.5 -43
t39.5 -104q0 -58 -32.5 -100t-90.5 -46zM248 268q0 -44 15.5 -74t45.5 -30q27 0 41.5 26t14.5 70t-15 77.5t-45 33.5t-43.5 -31.5t-13.5 -71.5z" />
    <glyph glyph-name="seveninferior" unicode="&#x2087;" horiz-adv-x="598" 
d="M139 831q-10 -17 -10 -30q0 -43 102 -43q74 0 180.5 20.5t143.5 34.5q-17 -44 -51.5 -128t-56.5 -140.5t-46.5 -131.5t-36.5 -147t-12 -141q0 -55 13 -125q-94 4 -158 4q-78 0 -111 -4q26 274 250 612q-88 -41 -166 -41q-133 0 -133 125q0 52 22.5 91.5t69.5 43.5z" />
    <glyph glyph-name="eightinferior" unicode="&#x2088;" horiz-adv-x="587" 
d="M436 446q94 -79 94 -208q0 -107 -60.5 -181.5t-170.5 -74.5q-112 0 -177 74t-65 177q0 60 26 116t75 93q-70 67 -70 162q0 88 57.5 148.5t151.5 60.5q97 0 151 -65.5t54 -155.5q0 -96 -66 -146zM262 592q0 -48 11.5 -75.5t29.5 -27.5q33 0 33 86q0 93 -41 93
q-33 0 -33 -76zM252 262q0 -112 51 -112q43 0 43 108q0 115 -45 115q-49 0 -49 -111z" />
    <glyph glyph-name="nineinferior" unicode="&#x2089;" horiz-adv-x="593" 
d="M223 276q-18 -34 -18 -59q0 -27 14 -43t35 -16q41 0 72.5 50t31.5 134v25q-46 -74 -135 -74q-83 0 -124.5 61t-41.5 156q0 124 63.5 214.5t170.5 90.5q62 0 110 -35t75.5 -93t41.5 -125.5t14 -141.5q0 -54 -6.5 -108t-25.5 -115.5t-48 -107.5t-79.5 -76.5t-114.5 -30.5
q-82 0 -121 43t-39 106q0 56 33 97.5t92 47.5zM346 530q0 44 -15.5 73.5t-45.5 29.5q-27 0 -41.5 -25.5t-14.5 -68.5q0 -45 15 -77t45 -32q31 0 44 29.5t13 70.5z" />
    <glyph glyph-name="uni20A9" unicode="&#x20a9;" horiz-adv-x="1454" 
d="M141 778h45q-96 163 -96 336q0 137 52.5 247.5t138.5 131.5q-15 -24 -15 -59q0 -29 10.5 -55t34 -50.5t44 -41.5t57.5 -44.5t57 -44.5q94 -78 149.5 -169.5t55.5 -213.5q0 -27 -2 -39h63v8q0 72 -23 140t-63 114q5 0 15 1t20 1q104 0 186 -76.5t95 -189.5h39
q-7 48 -29 92.5t-48 81t-50.5 77t-41 97t-16.5 123.5q0 84 26.5 155.5t84.5 110.5q2 -36 4 -59t10.5 -42.5t15 -29.5t26.5 -22.5t34 -18.5t49 -20q219 -90 219 -354q0 -99 -28 -191h131q29 0 37 -8.5t8 -30.5q0 -46 -21.5 -72t-75.5 -26l-133 -2l-61 -129h215q29 0 37 -8.5
t8 -30.5q0 -46 -20.5 -71.5t-75.5 -26.5l-219 -4q-21 -64 -21 -132q0 -80 28 -121t83 -65q-38 -100 -164 -100q-61 0 -111.5 26.5t-81.5 66t-52 88t-29.5 90t-8.5 75.5q0 13 4 67h-24q-29 -71 -29 -151q0 -141 68 -223q-131 16 -275 16q-94 0 -141 -2q50 49 74 127.5
t24 163.5q0 29 -4 65l-356 -4q-35 0 -45.5 12.5t-10.5 43.5q0 46 19 74t74 28l270 -2l-82 115l-195 -2q-34 0 -44.5 12t-10.5 43q0 102 92 102zM643 508l59 121l-59 -2l-35 -119h35zM938 506l57 127l-43 -2l-45 -125h31z" />
    <glyph glyph-name="uni20AA" unicode="&#x20aa;" horiz-adv-x="1230" 
d="M453 1100q209 0 301 -92q48 -48 65 -124.5t17 -195.5q0 -53 -9 -260q-119 -4 -182 -16q0 159 -10.5 223t-52.5 106q-52 52 -117 52q-46 0 -80 -28t-53 -78t-28 -110.5t-9 -132.5q0 -74 8.5 -163t20.5 -176.5t14 -108.5q-90 0 -141 -5t-138 -22q14 95 26.5 259.5
t12.5 318.5q0 366 -80 446q67 45 190 76t245 31zM1034 1069q48 0 123 14q-41 -251 -41 -458q0 -304 82 -566q-68 -46 -190 -76t-246 -30q-209 0 -297 88q-49 47 -66.5 126.5t-17.5 199.5q0 46 8 258q106 0 182 16q0 -67 1 -104.5t6.5 -86t16.5 -74.5t30.5 -51t50 -35.5
t72.5 -10.5q96 0 127.5 60.5t31.5 205.5q0 176 -26.5 360.5t-42.5 222.5q91 -59 196 -59z" />
    <glyph glyph-name="Euro" unicode="&#x20ac;" horiz-adv-x="976" 
d="M676 528h-230q25 -111 72.5 -161t116.5 -50q64 0 112.5 43t55.5 148q133 -40 133 -184q0 -132 -100.5 -238t-249.5 -106q-117 0 -212 71.5t-154.5 194t-82.5 282.5h-74q-23 0 -29.5 8t-6.5 27q0 39 12.5 67.5t38.5 28.5h49v91h-64q-23 0 -29.5 7t-6.5 27q0 40 12.5 69.5
t38.5 29.5h59q17 124 57.5 230t103.5 189t153.5 130t199.5 47q142 0 213.5 -75t71.5 -192q0 -109 -58 -189.5t-155 -80.5q25 55 25 111q0 57 -26.5 93t-78.5 36q-139 0 -199 -299h308q25 -1 32 -8t7 -27q0 -40 -13 -69t-39 -29h-309v-91h258q26 -1 32.5 -7t6.5 -25
q0 -39 -13.5 -69t-37.5 -30z" />
    <glyph glyph-name="uni20AD" unicode="&#x20ad;" horiz-adv-x="1196" 
d="M1022 649h-252q58 -156 119.5 -250t118.5 -94q67 0 67 135q57 -23 89 -86t32 -143q0 -34 -6 -68t-21.5 -69.5t-39 -62t-62.5 -43.5t-88 -17q-52 0 -101.5 20t-88.5 50.5t-77 78t-65 92t-54 104t-43.5 102t-34 98t-24.5 80t-16 59.5q0 -135 43.5 -338.5t87.5 -312.5
q-141 10 -465 10q49 328 52 655h-115q-38 0 -49 11t-11 42q0 61 20.5 106.5t59.5 45.5h90q-13 348 -77 610q195 -20 352 -20q61 0 92 2q-63 -300 -63 -569q91 77 133.5 164.5t42.5 170.5q0 38 -12.5 119t-12.5 115q0 62 31 109t114 85q-13 -61 6 -108t58 -92
q87 -100 123.5 -160.5t36.5 -126.5q0 -68 -42.5 -137.5t-140.5 -161.5h211q38 0 49 -11t11 -42q0 -61 -20 -106.5t-58 -45.5z" />
    <glyph glyph-name="uni20AE" unicode="&#x20ae;" horiz-adv-x="870" 
d="M831 1477q19 -157 19 -260q0 -309 -125 -383q2 10 2 47q0 39 -4.5 80t-14.5 83t-29.5 68.5t-45.5 26.5q-84 0 -84 -254q0 -46 4 -140q190 58 201 58q18 0 30.5 -19t16.5 -39t4 -36q0 -19 -12.5 -34t-65 -42t-154.5 -64q15 -98 23 -139q178 29 188 29q17 -1 28 -16.5
t14 -32t3 -35.5q0 -16 -8.5 -26t-54 -26t-137.5 -38q18 -76 37.5 -119.5t87.5 -163.5q-136 4 -242 4q-214 0 -395 -12q44 77 86 199q-71 -15 -105 -15q-65 0 -65 98q0 36 25.5 52t123.5 32l76 13l23 92q-145 -49 -164 -49q-29 0 -51.5 27.5t-22.5 91.5q0 36 22.5 53.5
t110.5 44.5l137 41q13 99 13 180q0 49 -4 92.5t-12.5 85.5t-26 67t-41.5 25q-41 0 -64.5 -64.5t-23.5 -152.5q0 -64 10 -106q-82 44 -121 149.5t-39 233.5q0 167 41 254q490 4 786 39z" />
    <glyph glyph-name="uni20B1" unicode="&#x20b1;" horiz-adv-x="1060" 
d="M111 1077h41q-8 182 -37 375q65 0 175 4t150 4q76 0 138 -8t129 -32.5t113 -65.5t78 -113t36 -168h61q37 0 47.5 -7.5t10.5 -31.5q0 -58 -27.5 -74.5t-99.5 -23.5q-26 -154 -119.5 -247t-226.5 -126q-76 -19 -108.5 -30.5t-39 -18.5t-6.5 -20q0 -92 25 -186t53 -154
t76 -146q-47 0 -135.5 2t-141.5 2q-130 0 -237 -8q85 510 88 918l-84 -2q-37 -1 -48.5 11.5t-13.5 43.5q0 7 3.5 20t12.5 33.5t32 34.5t55 14zM455 776q56 14 91.5 55.5t49.5 98.5l-147 -4q0 -103 6 -150zM532 1159q-42 0 -67 -84h133q-9 38 -27 61t-39 23z" />
    <glyph glyph-name="uni20B2" unicode="&#x20b2;" horiz-adv-x="991" 
d="M1012 1530q30 -58 30 -133q0 -125 -82.5 -281t-222.5 -319q87 0 127.5 -13.5t59.5 -54.5q26 -62 26 -174q0 -103 -25 -203t-73.5 -187t-130.5 -140.5t-186 -53.5q-120 0 -215.5 68.5t-159.5 187.5q-160 -170 -209 -315q-4 16 -4 49q0 157 162 381q-62 168 -62 356
q0 112 22.5 223t69 213t112 180.5t158 125.5t199.5 47q117 0 198 -54t107 -153q73 132 99 250zM350 711q0 -49 4 -74l258 266q19 48 19 98q0 123 -84 123q-48 0 -87.5 -41t-62.5 -104.5t-35 -133t-12 -134.5zM567 498q-55 0 -94 28l-72 -65q28 -60 65 -94.5t75 -34.5
q85 0 108 182q-41 -16 -82 -16z" />
    <glyph glyph-name="uni20B4" unicode="&#x20b4;" horiz-adv-x="890" 
d="M406 1483q101 0 184.5 -39t137.5 -124t54 -204q0 -78 -22 -158h41q31 0 47 -26t16 -62q0 -16 -8.5 -22t-38.5 -6h-104q-11 -34 -82 -125h170q31 0 47 -25.5t16 -60.5q0 -17 -8.5 -23t-38.5 -6h-272q-60 -87 -60 -149q0 -42 23 -72.5t67 -30.5q111 0 150 221
q96 -63 96 -227q0 -168 -96 -269.5t-258 -101.5q-78 0 -146.5 25t-123 75t-86 134t-31.5 192t31 203h-29q-30 0 -46 25t-16 59q0 17 9 24t39 7h90q38 71 80 125h-156q-30 0 -46 26t-16 60q0 17 9 23.5t39 6.5h262q47 63 47 119q0 37 -19.5 60.5t-56.5 23.5q-40 0 -68.5 -30
t-40 -67t-16.5 -83q-84 97 -84 215q0 53 19 103t56 91.5t99 67t140 25.5z" />
    <glyph glyph-name="uni20B8" unicode="&#x20b8;" horiz-adv-x="923" 
d="M850 1042q43 -113 43 -262q0 -132 -38 -239.5t-112 -143.5q2 8 2 43q0 42 -4.5 84.5t-15 85t-31.5 69t-49 26.5q-38 0 -61 -44.5t-23 -119.5q0 -128 60 -290.5t151 -258.5q-376 0 -637 -17q93 98 159 267.5t66 292.5q0 70 -24 112.5t-66 42.5q-51 0 -73.5 -63t-22.5 -160
q0 -59 8 -100q-82 44 -122 150t-40 235q0 144 43 252q500 4 787 38zM487 1155q-129 0 -247.5 -20.5t-180.5 -55.5q-28 86 -28 178q0 106 35 168q507 4 786 39q39 -70 39 -164q0 -95 -39 -200q-143 55 -365 55z" />
    <glyph glyph-name="uni20B9" unicode="&#x20b9;" horiz-adv-x="1032" 
d="M731 1194q23 -26 23 -111q108 0 146 -7.5t38 -28.5q0 -39 -69.5 -103.5t-125.5 -71.5q-56 -123 -180 -192q7 -33 26 -83.5t47 -107t66.5 -96t75.5 -39.5q63 0 84 111q59 -25 86 -93t27 -139q0 -121 -67 -191.5t-169 -70.5q-92 0 -186 64.5t-164 191.5q-62 106 -114 248.5
t-52 222.5q0 35 18.5 53.5t48 26.5t60.5 17t60.5 33t44.5 65q-26 1 -82 3t-90 4t-82 8t-86 16q-37 8 -37 47q0 33 27 66t57 36q87 9 340 19q10 33 10 53q0 48 -36.5 76t-95 37.5t-119 12.5t-120 7t-86.5 16q-26 14 -26 49q0 50 30 95q20 28 36 35.5t63 7.5q216 0 493.5 -9.5
t315.5 -17.5q24 -9 24 -33q0 -49 -110 -178q-8 -9 -17 -15.5t-21.5 -11t-20.5 -8t-23.5 -6t-21.5 -3.5t-24 -3t-22 -2z" />
    <glyph glyph-name="uni20BA" unicode="&#x20ba;" horiz-adv-x="1103" 
d="M659 1477q-8 -22 -33.5 -71.5t-33.5 -78.5q9 4 47.5 23.5t73.5 34t57 14.5q23 0 23 -25q0 -33 -23.5 -85.5t-42.5 -78.5q-20 -26 -99 -75t-91 -58q-11 -19 -15 -63q34 4 71.5 22.5t63.5 38t54 35.5t47 16q39 0 39 -61q0 -48 -16.5 -98t-39.5 -72q-19 -19 -122.5 -67.5
t-110.5 -67.5q-23 -64 -23 -144q0 -121 43 -188.5t127 -67.5q42 0 73.5 16.5t48.5 44t24.5 56.5t7.5 60q0 80 -49 143q46 12 86 12q109 0 164 -87.5t55 -221.5q0 -85 -23.5 -152.5t-74.5 -121.5t-141.5 -83.5t-215.5 -29.5q-53 0 -182 7t-170 7q-50 0 -118 -9t-105 -9
q85 194 129.5 352t44.5 318q-47 -19 -84 -19q-66 0 -66 51q0 37 29 73.5t72 55.5q24 8 36 17.5t21.5 37t9.5 74.5q-20 -7 -51 -22t-54.5 -26t-31.5 -11q-14 0 -26.5 17t-12.5 42q0 51 50 100t110 81q-1 9 -5.5 42t-6.5 45t-7 41.5t-9 44.5t-11.5 40t-15.5 42.5t-19 37.5
t-24 38q147 -10 264 -10q153 0 282 23z" />
    <glyph glyph-name="uni20BC" unicode="&#x20bc;" horiz-adv-x="1142" 
d="M313 920q71 0 129 -37q-19 315 -61 569q152 -16 223 -16q52 0 101 6q-61 -238 -64 -570q93 27 170 27q129 0 210 -65t81 -183q0 -59 -36 -210t-36 -228q0 -125 72 -211q-249 0 -352 -18q25 18 37 138t12 263q0 139 -16.5 189.5t-63.5 50.5q-40 0 -58 -35.5t-18 -120.5
q0 -165 78 -457q-29 2 -80 2q-121 0 -233 -34q59 233 59 444q0 194 -68 194q-73 0 -73 -176q0 -205 9.5 -294.5t31.5 -110.5q-51 0 -100.5 -5.5t-115.5 -15t-118 -14.5q71 88 71 209q0 73 -35.5 221t-35.5 203q0 117 81.5 201t198.5 84z" />
    </font>
</defs>
</svg>
